<?xml version="1.0" encoding="UTF-8" standalone="no"?>
<!DOCTYPE svg  PUBLIC '-//W3C//DTD SVG 1.1//EN'  'http://www.w3.org/Graphics/SVG/1.1/DTD/svg11.dtd'>
<svg xmlns="http://www.w3.org/2000/svg">
<defs>
<font id="Mandingo-Regular" horiz-adv-x="455">
<font-face underline-position="-123" font-weight="400" descent="-200" panose-1="0 0 4 0 0 0 0 0 0 0" units-per-em="1000" unicode-range="U+0020-25CA" bbox="-276 -394 1427 1102" x-height="548" underline-thickness="20" font-family="Mandingo" ascent="800" cap-height="758"/>
<missing-glyph horiz-adv-x="1000"/>
<glyph glyph-name=".notdef" horiz-adv-x="1000"/>
<glyph glyph-name=".null" horiz-adv-x="0"/>
<glyph glyph-name="nonmarkingreturn" horiz-adv-x="1000"/>
<glyph glyph-name="space" horiz-adv-x="500" unicode=" "/>
<glyph glyph-name="exclam" horiz-adv-x="202" unicode="!" d="M202 789l-6 -70l-38 -1l-9 -499l2 -35l-131 13l-14 65l43 -13l9 466l-34 -1l3 78zM126 119q30 0 53 -13q29 -16 29 -44q0 -24 -24 -48t-63 -35q-21 -5 -41 -5q-31 0 -54 13q-28 15 -28 44q0 25 24 49t63 33q20 6 41 6z"/>
<glyph glyph-name="quotedbl" horiz-adv-x="410" unicode='&quot;' d="M372.5 762.5q29.5 -20.5 33.5 -53t4 -61.5q0 -109 -59 -148q-25 -17 -59 -18l-4 38q49 4 49 48q0 20 -10 46q-18 -5 -38 -5q-40 0 -69.5 21t-33.5 53q-1 5 -1 11q0 36 36 63q36 26 82 26q40 0 69.5 -20.5zM3 700q-1 5 -1 9q0 38 37 65q36 27 81 27q54 0 85 -33 q-40 -35 -40 -77q0 -6 1 -11q5 -45 57 -72q-15 -72 -66 -97q-21 -11 -48 -11l-3 38q49 4 49 48q0 19 -10 46q-19 -5 -38 -5q-41 0 -70.5 20.5t-33.5 52.5z"/>
<glyph glyph-name="numbersign" horiz-adv-x="840" unicode="#" d="M255 319q-4 0 -13 10.5t-14 10.5q-7 0 -7 -24q0 -10 1 -24l-8 -10q-16 21 -16 48q0 9 2 17q5 24 26 24q10 0 21 -5q26 -16 26 -29q0 -6 -6 -12t-12 -6zM744 273l-1 -12l-25 -17l1 32q1 13 -24 22q2 -17 -16 -21q-7 -1 -18 0q-22 -31 -56 -31q-9 0 -29 4q-8 1 -18 -10.5 t-17 -11.5q-10 0 -23.5 15t-13.5 30q0 20 20 39l-9 -1l-35 -63q-7 -34 -32 -47q-14 -6 -14 -38q0 -44 19 -60l10 -8l-26 -1l-15 14q-21 19 -21 49q0 49 35 67q15 7 28 29l-33 53l-15 5q-8 -9 -19 -3q-11 5 -16 16l-14 5l-54 12q-26 62 -69 62q-4 0 -9 -1q-62 -9 -62 -49 q0 -8 2 -17q6 -27 11 -54q11 -32 39 -32q8 0 22.5 4t21.5 4q13 0 13 -10q0 -12 -20 -37q-23 -35 -23 -65q0 -42 46 -57q80 -24 159 -48q98 -33 122 -72q16 -25 41 -25q20 0 51 17t36 17q1 -1 17.5 -4t27.5 -3q50 0 50 55q0 72 -42 81q2 -6 2 -13q0 -33 -47 -42 q-31 -7 -71 -7q-124 0 -145 54q-5 12 -5 24q0 34 32 66q28 28 57 32q12 2 22 2q19 0 26 -7q30 24 48 24q19 0 46 -22q4 8 9 15q12 16 27 20.5t15 23.5q0 32 -35 52l-22 13q-26 12 -40 12q-13 0 -33 -7l-27 15l-13 18l-27 -3l7 -38l-22 -24v-1q1 -4 -15 -18q-14 -13 -14 -27 q0 -17 8 -17q7 0 23 17t23 17q3 0 16 -8t25 -6q34 4 37 35q1 4 -8 9t-9 8q0 10 22 10q21 0 31 -21l2 -1q55 -4 52 -39zM723 96q11 11 11 22q0 20 -32 36q-36 -38 -61 -38q-4 0 -8 1q-21 9 -46 9q-36 0 -72 -16l30 -16q43 -24 96 -24q56 0 82 26zM692 183q-3 33 -19 33 q-3 0 -5 -1q-22 -6 -35 -36q-14 18 -39 18q-9 0 -19 -3q-38 -10 -69 -72q45 21 80 21q12 0 25.5 -5t19.5 -5q31 0 61 50zM409 449q-14 -2 -22 5q3 -6 3 -13q0 -18 -21 -34q-15 -12 -15 -29q0 -11 7 -22l9 -4l37 44zM563 336l-30 46l3 54l-52 -15l-51 20l-2 -54l-35 -42 l51 -19l30 -46l33 43zM579 411l-18 20l-2 -27zM630 500l-44 40q-19 0 -37 -6q-45 -13 -81 -48q-13 -13 -25 -21l42 -17l79 22l-2 -20l49 19zM711 443l-38 9l-25 30l-20 -33l-37 -15l26 -29l2 -39l36 15l38 -10l-3 39zM820 2q-31 -61 -72 -61q-12 0 -36 4q-3 1 -6 1 q-15 0 -41 -12q-36 -15 -57 -15q-36 0 -70 36q-48 51 -134 73q-61 11 -122 23q-40 9 -77.5 46.5t-37.5 63.5q0 5 2 8q-34 14 -61 33q-64 46 -84 115.5t-20 142.5q0 166 96 266q109 113 320 113q20 0 42 -1q134 -7 196 -71q50 -50 50 -129q0 -42 -14 -81q-11 -34 -25 -46 q10 -10 27 -39l55 -13l-36 -55l3 -31q73 -44 73 -78q0 -20 -30 -49q-29 -28 -29 -45q0 -16 47.5 -72.5t47.5 -94.5q0 -17 -7 -32z"/>
<glyph glyph-name="dollar" horiz-adv-x="483" unicode="$" d="M285 -163l-98 -18l22 183q-70 10 -121 68q-46 53 -62 127l-24 -6l-1 93l165 11l12 -60l-54 -13q29 -122 112 -122q36 0 74.5 34.5t38.5 73.5q0 73 -142 100q-107 21 -161 72q-47 46 -47 109q0 80 67.5 150t158.5 82l-17 170l95 12v-186q66 -15 107 -70q39 -51 44 -121 l26 -1l-9 -64l-154 3l15 69l20 -1q-15 91 -98 91q-49 0 -102 -41.5t-53 -85.5q0 -65 127 -90q114 -21 172 -78q51 -49 51 -116q0 -71 -52 -132.5t-124 -75.5z"/>
<glyph glyph-name="percent" horiz-adv-x="550" unicode="%" d="M406 220q-23 0 -49 -7q-45 -13 -71 -41q-23 -24 -23 -49q0 -26 31 -41q24 -12 53 -12q24 0 49 7q45 13 72 41q23 25 23 49q0 26 -31 41q-25 12 -54 12zM413 20q-37 -11 -70 -11q-63 0 -103 36q-36 33 -36 82q0 45 34.5 84.5t102.5 59.5q36 10 70 10q63 0 101 -34.5 t38 -83.5q0 -45 -33 -82q-37 -42 -104 -61zM200 750q-23 0 -49 -8q-45 -13 -71 -41q-23 -24 -23 -49q0 -26 31 -41q24 -12 53 -12q24 0 49 8q45 13 72 41q22 24 22 49q0 26 -30 41q-25 12 -54 12zM207 549q-37 -11 -70 -11q-64 0 -101.5 35t-37.5 83q0 46 33 83 q36 42 104 61q36 10 69 10q64 0 102 -34.5t38 -82.5q0 -46 -33 -83q-37 -42 -104 -61zM115 -62l-28 -39l-178 37l31 75l39 -16l451 808l-38 17l32 25l181 -36l-52 -63l-32 15l-449 -805z"/>
<glyph glyph-name="ampersand" horiz-adv-x="666" unicode="&amp;" d="M359 95q-108 128 -191 263q-64 -130 -64 -202q0 -13 2 -24q15 -82 177 -82q51 0 76 45zM269 736q-101 -12 -101 -102q0 -26 9 -58l68 115q15 26 24 45zM645 82q-11 -132 -103 -132q-41 0 -113 69q-50 -69 -146 -69q-278 0 -278 192q0 117 109 323q-37 113 -37 186 q0 186 234 187h2q68 0 68 -59q0 -52 -49 -138q-33 -54 -107 -179q56 -106 156 -232q-2 74 -25 178l218 9l4 -100l-102 -7q6 -46 6 -87q0 -54 -10 -100q45 -49 67 -66q7 22 7 54q0 13 -1 28l-29 -1l-1 41l165 49l12 -85l-47 -1q1 -16 1 -32q0 -14 -1 -28z"/>
<glyph glyph-name="quotesingle" horiz-adv-x="229" unicode="&apos;" d="M229 666q0 -109 -59 -149q-25 -16 -59 -17l-4 38q49 4 49 48q0 19 -9 46q-19 -5 -39 -5q-40 0 -69.5 20.5t-33.5 52.5q-1 6 -1 11q0 37 36 63q36 27 82 27q40 0 69.5 -21t33.5 -53t4 -61z"/>
<glyph glyph-name="parenleft" horiz-adv-x="328" unicode="(" d="M346 -66l-146 -60l-36 47l28 16l-10 12q-182 229 -182 509q0 117 45 228q52 127 143 183l-18 19l84 27l70 -121l-39 -27l-24 26l-14 -8q-76 -48 -114 -143q-33 -81 -33 -184q0 -121 48 -249q50 -134 132 -222l22 13z"/>
<glyph glyph-name="parenright" horiz-adv-x="296" unicode=")" d="M-50 -56l44 66l22 -13q82 88 132 222q48 128 48 249q0 103 -33 184q-38 95 -115 143q-6 4 -13 8l-25 -26l-38 27l70 121l84 -27l-18 -19q91 -56 143 -183q45 -111 45 -228q0 -280 -182 -509l-10 -12l27 -16l-35 -47z"/>
<glyph glyph-name="asterisk" horiz-adv-x="340" unicode="*" d="M352 698l-14 -67l-131 -18l-1 -2l118 -54l-12 -74l-77 -11l-48 124h-2l-17 -133l-73 -10l-31 67l102 85l-2 2l-130 -18l-30 60l56 52l108 -69l2 2l-59 115l54 53l64 -37l-31 -127l2 -2l87 97z"/>
<glyph glyph-name="plus" horiz-adv-x="247" unicode="+" d="M244 300h-65v-142l-100 -2v143h-78l-1 100h76l-1 140l100 2l1 -141h68v-100z"/>
<glyph glyph-name="comma" horiz-adv-x="229" unicode="," d="M227 53q0 -109 -59 -149q-25 -16 -59 -17l-4 38q49 3 49 48q0 19 -9 46q-19 -5 -39 -5q-40 0 -69.5 20.5t-33.5 52.5q-1 5 -1 10q0 38 36 64q37 27 82 27q40 0 69.5 -21t33.5 -53t4 -61z"/>
<glyph glyph-name="hyphen" horiz-adv-x="220" unicode="-" d="M0 432q0 38 32 64t77 26t76.5 -26t31.5 -64q0 -37 -31.5 -63.5t-76.5 -26.5t-77 26.5t-32 63.5z"/>
<glyph glyph-name="hyphen" horiz-adv-x="220" unicode="‐" d="M0 432q0 38 32 64t77 26t76.5 -26t31.5 -64q0 -37 -31.5 -63.5t-76.5 -26.5t-77 26.5t-32 63.5z"/>
<glyph glyph-name="period" horiz-adv-x="223" unicode="." d="M0 87q0 36 32.5 61t78.5 25t78.5 -25t32.5 -61t-32.5 -61.5t-78.5 -25.5t-78.5 25.5t-32.5 61.5z"/>
<glyph glyph-name="slash" horiz-adv-x="532" unicode="/" d="M115 -62l-28 -39l-178 37l31 75l39 -16l451 808l-38 17l32 25l181 -36l-52 -63l-32 15l-449 -805z"/>
<glyph glyph-name="zero" horiz-adv-x="636" unicode="0" d="M478 421l-285 -196q25 -19 54 -34q62 -30 123 -30q66 0 112 33q51 37 51 99q0 68 -55 128zM128 301l265 183l-2 1q-62 30 -123 30q-66 0 -112 -33q-51 -36 -51 -99q0 -41 23 -82zM434 575q100 -49 152 -124q46 -69 46 -147q0 -100 -70 -171q-74 -75 -187 -75 q-83 0 -171 43q-100 49 -152 125q-46 68 -46 146q0 101 70 172q74 74 187 74q83 0 171 -43z"/>
<glyph glyph-name="one" horiz-adv-x="251" unicode="1" d="M251 85l-3 -100l-255 6l3 100l71 -2l50 578l-88 -24l-27 96l227 64l-62 -716z"/>
<glyph glyph-name="two" horiz-adv-x="590" unicode="2" d="M603 0l-95 9l2 21l-507 26l2 100q223 2 329 83q81 62 87 162q1 10 1 20q0 80 -44 148q-40 65 -70 66q-43 0 -74 -22.5t-40 -62.5l46 -10l-29 -52l-177 10l20 81l42 -9q2 6 4 13q21 72 76.5 112t132.5 40q80 -1 146 -99t66 -219q0 -184 -160 -280l157 -8l3 35l69 -8z"/>
<glyph glyph-name="three" horiz-adv-x="520" unicode="3" d="M153 256l-44 2q8 -132 105 -132q67 0 132 59.5t65 125.5q0 116 -211 148q-24 4 -215 13l385 218l-276 4l-1 -41l-68 20l10 127l61 14l-1 -20l647 -9l-438 -247q103 -32 157 -97q50 -60 50 -136q0 -88 -66 -165t-176 -105q-32 -9 -63 -9q-84 0 -136 57q-58 63 -61 181h-19 l25 62l122 -21z"/>
<glyph glyph-name="four" horiz-adv-x="564" unicode="4" d="M368 554l-196 -350l195 24zM521 -67l-203 -7l13 81l35 -3l1 123l-379 -47l482 859l-3 -698l43 5v35l38 31l20 -177l-59 -21v31l-42 -5l-1 -145l50 -4z"/>
<glyph glyph-name="five" horiz-adv-x="478" unicode="5" d="M149 242l-44 3l1 -6q4 -129 78 -129h1q182 1 182 191v14q-3 84 -135 84q-48 0 -129 -13l-21 394l371 4l1 16l36 12l11 -167l-58 12l2 27l-257 -3l9 -182q13 1 26 1q90 0 151 -32q89 -46 93 -149v-16q0 -134 -79 -218q-76 -79 -180 -79q-67 0 -117 36q-54 39 -73 109 q-13 49 -13 100l-12 1l7 66l148 -24z"/>
<glyph glyph-name="six" horiz-adv-x="495" unicode="6" d="M409 565q-1 61 -33 98.5t-78 37.5q-75 0 -128 -90q-64 -106 -65 -300q90 80 202 80q74 0 120 -42q52 -47 55 -138q3 -20 3 -40q0 -88 -47 -145q-52 -63 -147 -64h-11q-148 0 -211 80q-64 79 -64 263q0 196 62 328q77 167 232 167h2q95 -1 153 -70q51 -62 55 -155l49 5 l16 -70l-203 7l-14 42zM117 171q15 -65 57 -89q34 -20 103 -20h13q95 1 95 109q0 16 -2 32v4q0 79 -75 79q-52 0 -112 -36t-79 -79z"/>
<glyph glyph-name="seven" horiz-adv-x="512" unicode="7" d="M195 -18l-38 -30l-167 48l31 94l40 -26l381 574l-379 -39l7 -45l-66 -4l-9 184l48 -14l3 -22l597 62l-497 -750z"/>
<glyph glyph-name="eight" horiz-adv-x="560" unicode="8" d="M431 208q-47 28 -119 28q-19 0 -40 -2q-88 -9 -141 -51q-40 -32 -40 -61v-4q3 -26 43 -49q47 -28 119 -28q19 0 40 2q88 9 141 51q40 32 40 61q0 28 -43 53zM434 483q0 40 -35 77q-40 41 -107 55q-26 6 -50 6q-49 0 -90 -23q-49 -28 -49 -74q0 -40 35 -76q40 -42 107 -56 q26 -5 50 -5q49 0 90 23q49 28 49 73zM303 -56q-28 -3 -54 -3q-120 0 -191 56q-65 52 -65 127q0 58 43.5 109.5t126.5 79.5q-78 30 -120 89q-38 53 -38 117q0 82 60 140q65 63 170 63q37 0 78 -9q107 -23 166 -89q53 -59 53 -135q0 -112 -99 -170q67 -22 103 -67t36 -99 q0 -75 -66 -132q-74 -64 -203 -77z"/>
<glyph glyph-name="nine" horiz-adv-x="505" unicode="9" d="M100 197q1 -61 33.5 -98.5t78.5 -37.5q74 0 128 90q63 106 64 300q-90 -81 -201 -81q-75 0 -121 43q-52 47 -55 138q-3 20 -3 39q0 89 48 146q52 63 147 64h7q149 0 213.5 -79.5t64.5 -263.5q0 -196 -61 -328q-77 -167 -230 -167h-4q-96 0 -153 69q-52 62 -56 156l-48 -5 l-17 70l204 -7l13 -43zM393 590q-15 66 -57 90q-35 20 -109 20h-7q-96 -1 -96 -109q0 -16 3 -32v-4q0 -79 75 -79q52 0 111.5 36t79.5 78z"/>
<glyph glyph-name="colon" horiz-adv-x="223" unicode=":" d="M1 387q0 36 32.5 61.5t78.5 25.5t78.5 -25.5t32.5 -61.5t-32.5 -61t-78.5 -25t-78.5 25t-32.5 61zM3 123q2 20 34.5 40t68.5 20q7 0 14 -1q46 -5 74 -32.5t28 -59.5v-6q-4 -36 -36 -56t-67 -20q-8 0 -17 1q-45 5 -73 32t-28 58q0 4 2 24z"/>
<glyph glyph-name="semicolon" horiz-adv-x="223" unicode=";" d="M227 53q0 -109 -59 -149q-25 -16 -59 -17l-4 38q49 3 49 48q0 19 -9 46q-19 -5 -39 -5q-40 0 -69.5 20.5t-33.5 52.5q-1 5 -1 10q0 38 36 64q37 27 82 27q40 0 69.5 -21t33.5 -53t4 -61zM1 387q0 36 32.5 61.5t78.5 25.5t78.5 -25.5t32.5 -61.5t-32.5 -61t-78.5 -25 t-78.5 25t-32.5 61z"/>
<glyph glyph-name="less" horiz-adv-x="375" unicode="&lt;" d="M352 195l-45 -108l-36 9l9 27l-278 176l266 233l-22 29l72 36l55 -130l-29 -35l-16 21l-189 -161l162 -103l9 27z"/>
<glyph glyph-name="equal" horiz-adv-x="360" unicode="=" d="M19 318l341 3l-18 -84l-342 26zM0 422l331 5l31 -66l-362 -17v78z"/>
<glyph glyph-name="greater" horiz-adv-x="375" unicode="&gt;" d="M23 195l43 21l8 -27l163 103l-189 161l-16 -21l-30 35l56 130l72 -36l-22 -29l265 -233l-277 -176l9 -27l-36 -9z"/>
<glyph glyph-name="question" horiz-adv-x="493" unicode="?" d="M124 72q-2 23 25.5 41.5t67.5 21.5h10q34 0 62 -14t28 -39q0 -21 -26 -39t-66 -21q-7 -1 -14 -1q-32 0 -59 13.5t-28 37.5zM304 232l-4 -57l-177 9l7 35l36 2l14 216q89 1 135 18q74 26 81 96q-2 110 -77 161q-39 26 -77 26l-63 -17q-75 -43 -79 -163l30 -3l9 -27 l-159 -25l-4 66l25 -2q1 10 2 19q13 124 83 191q62 60 150 60q103 0 180 -77q80 -81 80 -205v-6q0 -8 -6 -36q-19 -74 -79 -120q-56 -42 -137 -52l-7 -112z"/>
<glyph glyph-name="at" horiz-adv-x="602" unicode="@" d="M338 365q-7 23 -11 50q-16 4 -30 4q-38 0 -38 -27q0 -52 31 -52q20 0 48 25zM176 269l-158 -84l-24 99l23 5q-12 51 -12 97q0 133 76 227q83 104 226 105h7q139 0 216 -83q68 -73 68 -180q0 -76 -36 -130q-39 -56 -101 -57q-36 0 -64 16q-54 -45 -106 -45q-57 0 -96 50 q-36 46 -36 106q0 53 31 86q36 38 102 38q16 0 34 -3q2 15 4 29l-20 6l22 27l118 -21l-5 -46l-19 6q-4 -32 -4 -59v-12q3 -59 27 -73q6 -4 12 -4q15 0 27 23.5t12 54.5q0 18 -4 40q-10 57 -59 89q-45 30 -109 30q-88 0 -152 -54q-73 -61 -73 -162q0 -38 11 -80l37 8z"/>
<glyph glyph-name="A" horiz-adv-x="448" unicode="A" d="M244 231l-44 252l-66 -280zM475 -96l-184 -74l-13 99l18 5l-35 204l-145 -8l-42 -177l55 -13l-44 -50l-130 17l4 75l18 -5l238 1000l179 -1022l56 13z"/>
<glyph glyph-name="B" horiz-adv-x="400" unicode="B" d="M100 296l-4 -244q72 8 115 47q40 36 40 82q0 44 -36 75q-41 34 -115 40zM213 727l-104 15l-6 -324q98 16 153 73q49 51 49 114q0 43 -24.5 76.5t-67.5 45.5zM267 358q94 -59 94 -163q0 -96 -80 -167q-86 -78 -221 -78h-62v66h-3q0 3 16 842l219 -33q7 -1 33 -10 q71 -29 110 -90q36 -57 36 -128t-36 -134q-38 -66 -106 -105z"/>
<glyph glyph-name="C" horiz-adv-x="434" unicode="C" d="M460 363l-173 -18v83l25 -1q-9 115 -31 201q-30 122 -73 122q-52 0 -85 -170q-23 -123 -23 -203q0 -81 23 -203q33 -171 85 -171q28 0 62 88l-17 4l18 76l156 -49l-25 -59l-32 7q-59 -167 -162 -167q-115 0 -171 195q-37 131 -37 279t37 279q56 194 171 194 q104 0 160 -162q39 -113 46 -268l25 -2z"/>
<glyph glyph-name="D" horiz-adv-x="554" unicode="D" d="M327 579q-89 52 -218 83l-8 2l7 -542q131 37 221 95q126 82 126 184t-128 178zM555 402q0 -150 -152 -261q-123 -91 -293 -126l-100 -2l-11 771q44 -7 134 -25q166 -41 273 -113q149 -100 149 -244z"/>
<glyph glyph-name="E" horiz-adv-x="588" unicode="E" d="M652 108l-92 -66l-8 55l-543 -52l-13 697l493 -34v43l94 -19l-36 -163l-58 19v20l-391 27l4 -191l318 9l1 25l66 -18l-21 -133l-52 7l1 19l-311 -9l3 -189l431 41l-5 34l64 23z"/>
<glyph glyph-name="F" horiz-adv-x="491" unicode="F" d="M574 618l-91 11l-3 24l-383 -37l3 -79l269 6l3 22l44 16l-9 -167l-50 14l2 15l-256 -6l11 -379l27 3l2 -86l-170 8l-7 59l49 5l-21 659l475 47l-3 28l69 7z"/>
<glyph glyph-name="G" horiz-adv-x="824" unicode="G" d="M834 517l-29 -81l-150 5l2 29l30 8q-15 64 -86 108q-76 47 -180 47q-23 0 -47 -2q-128 -14 -208 -86q-67 -61 -67 -130q0 -7 1 -15q7 -69 80 -118q78 -53 189 -53q23 0 47 3q133 14 214 92l-229 -26l-12 -41l-53 10l19 157l81 -6l-9 -30l277 30l50 -332l36 2l7 -51 l-195 -47l11 85l42 3l-13 129q-118 -77 -269 -77q-142 0 -250 70q-124 80 -124 215q0 144 143 236q125 82 275 82q133 0 235 -61q107 -63 132 -168z"/>
<glyph glyph-name="H" horiz-adv-x="694" unicode="H" d="M739 673l-18 -46l-59 -4l-8 -556l44 2l-2 -69l-163 -9l-28 69l49 2l4 257l-445 -11l1 -237l34 5l23 -84l-201 -7l22 69l22 3l-2 567l-34 1l-2 87l215 -34l-36 -62l-43 3l1 -211l446 11l3 198l-47 -2l18 87z"/>
<glyph glyph-name="I" horiz-adv-x="198" unicode="I" d="M196 666l-43 -2l-14 -571l32 6l-8 -89l-155 2l-8 57l38 6l15 586l-53 -2l17 99l170 -14z"/>
<glyph glyph-name="J" horiz-adv-x="680" unicode="J" d="M684 748l-9 -96l-63 13l-6 -441q-4 -17 -11 -46q-29 -80 -100 -122q-64 -38 -149 -38q-121 0 -213 70q-100 75 -100 190q0 16 2 31l-35 2l3 86l215 -38l-34 -58l-48 3v-7v-14q0 -74 60 -120q59 -46 143 -46q62 0 107 28q49 31 60 86l7 454l-84 17l12 58z"/>
<glyph glyph-name="K" horiz-adv-x="561" unicode="K" d="M589 -36l-198 39l3 37l32 4l-11 180q-6 109 -186 109q-57 0 -113 -11l1 -288l66 4l23 -85l-221 18l-2 55l34 2l-1 652l-35 -4l-3 91l187 -13l2 -56l-52 -6l1 -271q66 13 122 14l175 328l-47 25l57 57l147 -107l12 -65l-80 43l-157 -293q59 -16 100 -52q65 -57 70 -144 l10 -170l34 4z"/>
<glyph glyph-name="L" horiz-adv-x="561" unicode="L" d="M579 0l-93 -33l-2 46l-464 -32l4 756l-43 -4l29 98l194 -23l-37 -60l-43 -4l-3 -655l357 24l-4 62l60 -21z"/>
<glyph glyph-name="M" horiz-adv-x="950" unicode="M" d="M1010 14l-13 -78l-222 -9v60l41 5l-56 492l-289 -569l-339 678l-34 -538l67 -6l34 -90l-232 26l11 80l20 -2l58 906l416 -832l349 689l95 -823z"/>
<glyph glyph-name="N" horiz-adv-x="622" unicode="N" d="M655 -125l-534 635l-19 -439l34 -8l-4 -51l-198 9l16 85l53 -12l29 676l481 -570l-52 404l-63 4l-12 56l243 34l-18 -103l-49 3z"/>
<glyph glyph-name="O" horiz-adv-x="716" unicode="O" d="M618 317q0 62 -54 121q-59 64 -159 93q-54 15 -105 15q-75 0 -134 -33q-71 -40 -71 -109q0 -62 54 -121q60 -64 159 -93q54 -15 105 -15q75 0 134 33q71 40 71 109zM433 627q140 -40 215 -128q68 -78 68 -173q0 -104 -77 -176q-83 -77 -216 -77q-68 0 -143 21 q-140 40 -215 128q-68 78 -68 173q0 104 77 176q83 77 216 77q68 0 143 -21z"/>
<glyph glyph-name="P" horiz-adv-x="597" unicode="P" d="M497 499q0 72 -75 106q-51 23 -121 23h-16l-176 -5l1 -233l137 3q10 -1 46 -3h11q193 0 193 109zM597 499q0 -112 -97 -166q-77 -43 -197 -43q-31 0 -60 3l-133 -3v-195l53 -3l-15 -92l-170 26l4 76l28 -1l-1 618l272 9h18q112 0 193 -47q105 -62 105 -182z"/>
<glyph glyph-name="Q" horiz-adv-x="718" unicode="Q" d="M413 519q-43 0 -88 -10q-106 -22 -170 -82q-57 -54 -57 -110q0 -62 76 -97q60 -28 129 -28q30 0 63 5l-86 127l-39 -16l-23 41l173 101l20 -75l-36 -14l92 -136q72 30 113 79q38 45 38 89q0 62 -76 98q-60 28 -129 28zM719 -27l-209 -128l-48 91l66 22l-101 149 q-70 -16 -134 -16q-135 0 -217 70q-76 66 -76 162q0 93 74 169q82 83 230 115q62 13 118 13q135 0 218 -71q76 -66 76 -162q0 -72 -47 -136q-50 -69 -144 -111l101 -149l61 21z"/>
<glyph glyph-name="R" horiz-adv-x="544" unicode="R" d="M291 392q153 50 153 118q0 35 -48 57t-128 22h-7l-142 -2l-4 -239l144 35q7 2 32 9zM544 517v-6q0 -73 -69 -133q-57 -49 -148 -79l96 -267l60 21l39 -82l-213 -43l-28 54l48 17q-1 3 -6 16l-93 258l-118 -29l-4 -192l47 2l21 -78l-198 -32v101l30 2l13 639l240 3h6 q99 0 173 -34q100 -45 104 -138z"/>
<glyph glyph-name="S" horiz-adv-x="524" unicode="S" d="M585 476l-45 -55l-147 45l23 33l22 -3v1q-5 81 -114 81q-52 0 -102.5 -19.5t-64.5 -43.5q-2 -5 -2 -12q0 -52 134 -120q223 -115 223 -233q0 -80 -96 -136q-91 -52 -202 -52q-91 0 -147 39q-64 44 -64 128q0 27 7 58l1 6l-29 3l16 73l198 -44l-37 -50l-48 6 q-7 -22 -7 -42q0 -78 129 -80h7q73 1 119 21q48 22 48 58q0 72 -164 156q-193 98 -193 206q0 74 88 127q83 50 186 50q88 0 144 -40q64 -46 69 -133q1 -11 1 -21z"/>
<glyph glyph-name="T" horiz-adv-x="577" unicode="T" d="M574 579l-277 -5l2 -271q0 -77 2 -232l43 -2l-5 -69l-169 -25l-16 102l46 -2v33l-3 464l-193 -3l-2 100l570 10z"/>
<glyph glyph-name="U" horiz-adv-x="463" unicode="U" d="M466 626l-57 2l-7 -375q-2 -112 -57 -175q-48 -55 -122 -55q-79 0 -137 62q-62 66 -62 168v6l7 442l-28 -3l-7 100l206 -15l8 -65l-79 -8l-7 -457q-1 -11 -1 -21q0 -43 24 -74q27 -34 67 -34q36 0 60 31q27 35 28 99l7 378l-42 2l11 81l167 -27z"/>
<glyph glyph-name="V" horiz-adv-x="488" unicode="V" d="M491 837l-3 -68l-62 11l-181 -778l-198 699l-27 -5l-21 98l174 -15l25 -50l-52 -10l90 -317l92 396l-43 8l13 99z"/>
<glyph glyph-name="W" horiz-adv-x="548" unicode="W" d="M566 710l-16 -70l-26 3l-142 -642l-118 402l-173 -459l-127 780l-27 2l-5 50l200 24l-5 -91l-60 5l3 -17l60 -366l146 387l93 -315l56 253l-19 2l10 45z"/>
<glyph glyph-name="X" horiz-adv-x="492" unicode="X" d="M556 735l-54 -42l-27 6l-181 -296l185 -290l45 5l3 -49l-154 -69l-35 97l30 3l-132 208l-146 -237l33 -24l-35 -67l-155 76l47 94l29 -21l167 273l-187 293l-43 -22l-27 71l185 56l30 -33l-55 -27l155 -243l137 225l-21 4l23 93z"/>
<glyph glyph-name="Y" horiz-adv-x="661" unicode="Y" d="M753 765l-60 -55l-30 19l-365 -323l-21 -318l54 -2l-17 -86l-181 26l-14 67l58 -2l21 327l-195 297l-56 -21l-16 77l197 40l17 -44l-46 -17l161 -244l315 278l-40 26l76 78z"/>
<glyph glyph-name="Z" horiz-adv-x="551" unicode="Z" d="M597 744l-433 -673l178 21l-11 49l113 6l1 -210l-77 31l-5 26l-397 -47l447 695l-234 -4l-5 -50l-61 7l-19 188l98 -13l-3 -31z"/>
<glyph glyph-name="bracketleft" horiz-adv-x="262" unicode="[" d="M288 -70l-28 -154l-47 5l-2 43l-183 -2l-24 1116l181 40l-8 43l56 30l31 -176l-55 -29l-6 33l-97 -21l20 -935l81 1l-2 37z"/>
<glyph glyph-name="backslash" horiz-adv-x="532" unicode="\" d="M389 -42l43 18l-449 805l-32 -15l-52 63l181 36l32 -25l-38 -17l451 -808l39 16l31 -75l-178 -37z"/>
<glyph glyph-name="bracketright" horiz-adv-x="139" unicode="]" d="M-136 -70l83 31l-2 -37l81 -1l20 935l-97 21l-6 -33l-55 29l31 176l56 -30l-8 -43l181 -40l-24 -1116l-184 2l-1 -43l-47 -5z"/>
<glyph glyph-name="asciicircum" horiz-adv-x="262" unicode="^" d="M251 678l-86 -49l-49 95l-50 -70l-58 21l111 120z"/>
<glyph glyph-name="underscore" horiz-adv-x="451" unicode="_" d="M6 -8l441 4v-100l-440 -4z"/>
<glyph glyph-name="grave" horiz-adv-x="226" unicode="`" d="M195 654l-49 -43l-138 87l83 103z"/>
<glyph glyph-name="a" d="M303 184q0 27 -38 43q-29 12 -59 12q-46 0 -74 -20q-24 -16 -24 -35q0 -18 24 -35q28 -19 74 -19q30 0 59 12q38 15 38 42zM451 -54l-160 16l-1 72l17 1v20q-46 -25 -99 -25q-70 0 -123 41q-57 45 -57 113t57 113q53 42 123 42q48 0 90 -21l-2 90q-1 4 -3 22 q-16 107 -71 107q-51 0 -71 -82l38 -8l-8 -54l-184 -6l21 97l36 -8q18 79 64 122q42 39 97 39q70 0 121 -59q56 -64 60 -166l11 -369l39 3z" unicode="a"/>
<glyph glyph-name="b" horiz-adv-x="574" unicode="b" d="M492 232q0 40 -46 72q-51 36 -130 36q-78 0 -130 -36q-46 -32 -46 -72q0 -39 46 -72q52 -35 130 -35q79 0 130 35q46 33 46 72zM571 232q0 -91 -79 -151q-75 -56 -176 -56q-103 0 -178 58l-1 -43l68 -14l-25 -52l-178 -8l11 99l24 -5l7 716l-44 -3l24 81l152 6l-1 -73 l-31 -3l-3 -400q74 56 175 56t176 -56q79 -61 79 -152z"/>
<glyph glyph-name="c" horiz-adv-x="425" unicode="c" d="M447 270l-163 -28l11 85l28 1q-9 95 -48 155q-32 51 -64 51q-36 0 -72 -64q-42 -77 -42 -196q0 -118 42 -195q36 -64 72 -64q30 0 60 42l-24 16l20 27l157 -42l-51 -66l-18 11q-60 -88 -144 -88q-99 0 -160 117q-54 104 -54 242q0 139 54 242q61 118 160 118 q89 0 148 -94q52 -84 64 -207l18 1z"/>
<glyph glyph-name="d" horiz-adv-x="594" unicode="d" d="M429 222q0 40 -46 72q-51 36 -130 36q-78 0 -129 -36q-46 -32 -46 -72q0 -39 46 -72q51 -35 129 -35q79 0 130 35q46 33 46 72zM592 81l-18 -91h-166l-8 45l32 8l-1 30q-75 -58 -178 -58q-101 0 -176 56q-79 60 -79 151t79 152q75 56 176 56t175 -56l-3 433l-38 2l4 90 l194 -43l-26 -55l-34 1l6 -736z"/>
<glyph glyph-name="e" horiz-adv-x="391" unicode="e" d="M293 378q-9 72 -32 132q-28 78 -62 78q-43 0 -71 -97q-19 -66 -23 -132zM389 298l-284 1q5 -241 94 -241q34 0 55 113h-33l-15 89l178 -33l-8 -58h-20q-6 -34 -14 -63q-42 -148 -143 -148q-109 0 -159 123q-36 91 -36 229q0 29 1 56q6 49 26 148q50 174 168 174 q177 0 190 -390z"/>
<glyph glyph-name="f" horiz-adv-x="372" unicode="f" d="M457 582l-41 -78l-167 19l9 53l35 1q0 173 -61 173q-48 0 -78 -107q-22 -74 -24 -133l-1 -49l105 16l12 -109l-121 1l-11 -370l51 5l-29 -87l-150 4l-23 64l51 5l11 379h-32l-5 72l40 6l2 68q7 54 28 155q53 180 174 180q89 0 130 -92q32 -70 32 -178z"/>
<glyph glyph-name="g" horiz-adv-x="585" unicode="g" d="M609 -178q0 39 -65 75q-77 42 -197 42q-119 0 -197 -42q-65 -36 -65 -75t65 -74q78 -42 197 -42q120 0 197 42q65 35 65 74zM488 249v9q0 41 -42 79q-53 48 -140 57q-16 2 -32 2q-75 0 -126 -35q-46 -31 -51 -72v-9q0 -41 42 -79q53 -48 140 -57q17 -2 33 -2q75 0 126 35 q46 31 50 72zM678 -178q0 -99 -107 -160q-96 -56 -225 -56q-128 0 -225 56q-107 61 -107 160q0 79 70 136q-30 39 -30 82q0 39 26 75q-81 67 -81 164q0 88 68 150q74 67 198 67q23 0 48 -3q67 -7 120 -30q7 13 7 22q0 13 -15 19l-9 -14l-75 93l117 69l42 -28l-22 -34 q63 -33 63 -102q0 -41 -25 -81q64 -63 64 -148q0 -97 -80 -160q-72 -57 -182 -57q-25 0 -52 3q-54 5 -98 21q-39 -28 -39 -53q0 -11 8 -21q93 47 209 47q129 0 225 -56q107 -62 107 -161z"/>
<glyph glyph-name="h" horiz-adv-x="442" unicode="h" d="M445 23l-10 -66l-148 -18l12 96l15 -1l9 206q0 15 -1 32q-7 148 -77 150h-1q-44 0 -80 -68q-29 -54 -37 -114q2 -48 8 -193l1 -12l18 -1l13 -93l-151 2l2 102l17 -1q-2 58 -21 788l-46 4l10 72l197 -4l-22 -86l-39 4l7 -356q49 56 122 56h5q97 -3 143 -102 q32 -70 32 -162v-21l-9 -211z"/>
<glyph glyph-name="i" horiz-adv-x="202" unicode="i" d="M202 -23l-175 -3l-3 78l34 -1l-9 466l-43 -13l14 65l131 13l-2 -35l9 -499l38 -1zM126 647q-21 0 -41 6q-38 10 -62.5 33.5t-24.5 48.5q0 29 28 44q23 13 54 13q20 0 41 -5q38 -11 62.5 -34.5t24.5 -48.5q0 -28 -29 -44q-23 -13 -53 -13z"/>
<glyph glyph-name="j" horiz-adv-x="169" unicode="j" d="M155 591l-3 -35l-13 -4v-18q0 -16 1 -76l1 -561q1 -12 1 -23q0 -98 -56 -160q-55 -61 -138 -61q-78 0 -135 55q-63 61 -71 168h-18l12 63l158 -17l5 -43l-56 -1q9 -62 39 -97q27 -30 62 -30q39 0 68 38.5t29 103.5l-2 629l-30 -9l8 88zM187 747v-7q0 -32 -43 -53 q-39 -20 -80 -20q-36 0 -61.5 14t-28.5 36q-1 4 -1 8q0 32 43 53q39 19 80 19q36 0 61.5 -13.5t29.5 -36.5z"/>
<glyph glyph-name="k" horiz-adv-x="391" unicode="k" d="M415 46l-19 -56l-128 23l-1 62l23 -4q-11 140 -75 142l-82 3l2 -163l17 1l-2 -61l-131 13l-6 42l22 1l-5 634l-23 -1l-24 79l175 -2l-5 -70l-23 -1l2 -372l13 -1q75 229 122 371l9 30l-23 7l4 48l171 -14l-15 -86l-42 12q-50 -151 -85 -254l-38 -120q71 -16 108 -94 q29 -60 34 -145v-19z"/>
<glyph glyph-name="l" horiz-adv-x="140" unicode="l" d="M157 11l-154 -25l-3 78l24 -1l-6 675l-25 -2l15 65l131 13l1 -65l-22 -2l6 -689l21 -1z"/>
<glyph glyph-name="m" horiz-adv-x="673" unicode="m" d="M679 -62l-166 -18l-8 61l35 2l5 302q0 27 -12 111q-13 64 -36 80q-26 0 -55 -45q-24 -36 -35 -74q5 -39 5 -74l5 -230l21 -3l7 -66l-175 10l23 74l23 -3l-4 214q-4 43 -15 120q-13 66 -30 87q-49 -4 -86 -78q-29 -59 -40 -131l3 -239h37l4 -65l-171 -36l-1 100h31l-6 497 l-25 -2l-13 78l173 -3l-20 -62l-15 -1v-22q53 63 132 64h2q62 0 98 -81q51 71 127 71q84 0 122 -113q26 -76 26 -171v-7l-5 -296l23 1z"/>
<glyph glyph-name="n" horiz-adv-x="442" unicode="n" d="M442 -59l-164 -25l-2 100h20l6 384q0 50 -9 92q-10 51 -32 65q-49 0 -88 -62q-32 -51 -43 -112l2 -326l24 1l4 -84l-160 13l8 68l24 1l-3 558l-28 -2l-11 78l165 1l-7 -69l-19 -1v-22q54 58 132 58q80 0 117 -97q24 -64 24 -149v-13l-6 -380h29z"/>
<glyph glyph-name="o" horiz-adv-x="578" unicode="o" d="M338 447q-39 0 -81 -12q-76 -22 -119 -68q-39 -41 -39 -82q0 -43 52 -68q41 -20 89 -20q39 0 82 12q75 22 119 68q38 41 38 82q0 43 -52 68q-40 20 -89 20zM349 113q-61 -18 -116 -18q-106 0 -171 60q-61 56 -61 137q0 75 55 137q61 70 173 102q61 18 116 18 q106 0 171 -60q61 -56 61 -137q0 -75 -54 -138q-61 -69 -174 -101z"/>
<glyph glyph-name="p" horiz-adv-x="647" unicode="p" d="M576 258q0 45 -59 82q-67 42 -168 42t-167 -42q-59 -37 -59 -82q0 -46 59 -83q66 -42 167 -42t168 42q59 37 59 83zM644 258q0 -99 -92 -164q-86 -61 -202 -61q-139 0 -228 81l5 -278h22l2 -100l-156 33l6 65h26l-9 592l-29 -4l4 65l165 14v-54l-41 -6l1 -44 q89 85 232 85q116 0 202 -60q92 -65 92 -164z"/>
<glyph glyph-name="q" horiz-adv-x="669" unicode="q" d="M527 363q-5 40 -59 71q-60 34 -148 34q-19 0 -39 -2q-103 -9 -165 -56q-50 -39 -50 -79q0 -4 1 -9q5 -40 59 -71q60 -34 148 -34q19 0 38 2q103 9 165 56q51 38 51 79q0 5 -1 9zM721 -280l-180 -62l-8 557q-74 -81 -214 -96q-25 -2 -48 -2q-124 0 -199 66q-67 61 -67 149 q0 86 65 149q73 71 202 85q25 2 49 2q132 0 207 -75l-1 56h-9l-34 69l194 -5l-9 -52l-42 -4l12 -772l61 50z"/>
<glyph glyph-name="r" horiz-adv-x="503" unicode="r" d="M503 413l-6 -80l-171 28l29 49l31 1v19q0 111 -50 113h-4q-67 0 -127 -64q-55 -58 -74 -130l-9 -345l67 6l-21 -77l-168 -12l-6 72l28 3l15 583l-24 -2l-13 65l183 17l-19 -71l-27 -2l-1 -38q81 95 194 95h9q79 -3 118 -74q29 -55 29 -139v-18z"/>
<glyph glyph-name="s" horiz-adv-x="483" unicode="s" d="M480 475l-9 -64l-154 3l15 69l20 -1q-15 91 -98 91q-49 0 -102 -41.5t-53 -85.5q0 -65 127 -90q114 -21 172 -78q51 -49 51 -116q0 -80 -65 -146t-148 -66q-80 0 -139 61q-53 55 -71 136l-24 -6l-1 93l165 11l12 -60l-54 -13q29 -122 112 -122q36 0 74.5 34.5t38.5 73.5 q0 73 -142 100q-107 21 -161 72q-47 46 -47 110q0 86 78 159.5t177 73.5q87 0 142 -59q52 -55 58 -138z"/>
<glyph glyph-name="t" horiz-adv-x="500" unicode="t" d="M493 238l-30 -7q1 -11 1 -24v-22q0 -106 -45 -168q-44 -61 -116 -61q-81 0 -143 73q-68 80 -69 205l-5 336l-81 -2l-2 100l82 2l-1 90h-29l-3 59l160 26l3 -84l-31 -1l1 -88l149 4v-100l-148 -4l5 -340q1 -76 36 -127q32 -47 72 -47q29 0 48 30t19 89q0 15 -1 32l-22 -5 l-19 71l160 11z"/>
<glyph glyph-name="u" horiz-adv-x="463" unicode="u" d="M466 376l-57 2l-7 -235q-3 -112 -58 -174q-50 -56 -123 -56q-79 0 -137 62q-60 65 -60 164v10l7 302l-28 -3l-7 100l206 -15l8 -65l-79 -8l-7 -317q-1 -11 -1 -21q0 -43 24 -74q27 -34 66 -34q36 0 60 31q27 35 29 99l7 238l-42 2l11 81l167 -27z"/>
<glyph glyph-name="v" horiz-adv-x="488" unicode="v" d="M491 697l-3 -68l-62 11l-181 -778l-198 699l-27 -5l-21 98l174 -15l25 -50l-52 -10l90 -317l92 396l-43 8l13 99z"/>
<glyph glyph-name="w" horiz-adv-x="548" unicode="w" d="M566 710l-16 -70l-26 3l-142 -642l-118 402l-173 -459l-117 730l-27 2l-1 100l187 -43l4 -74l-60 5l53 -333l146 387l93 -315l56 253l-19 2l10 45z"/>
<glyph glyph-name="x" horiz-adv-x="492" unicode="x" d="M523 598l-28 -61l-44 12l-140 -282l113 -200l28 10l40 -72l-186 -30l5 52l17 6l-71 126l-49 -100l16 -5l-6 -49h-166l37 90l22 -7l87 176l-173 307l-27 -5l1 83l146 19l26 -68l-43 -9l124 -219l101 203l-17 5l10 75z"/>
<glyph glyph-name="y" horiz-adv-x="443" unicode="y" d="M456 738l-5 -75l-34 1l-39 -792q-2 -11 -5 -29q-16 -61 -56 -97q-43 -38 -104 -38q-12 0 -25 2q-79 9 -115 68q-26 42 -26 99v8l-22 4l1 85l147 -55v-52l-27 4q5 -31 24 -48t43 -17q26 0 45 19.5t20 54.5l8 259q-50 -32 -110 -32q-153 0 -160 299l-7 242l-30 3l22 94 l146 -38l9 -73l-46 4l6 -233q5 -198 60 -198q72 0 119 80l22 380l-27 1l23 56z"/>
<glyph glyph-name="z" horiz-adv-x="446" unicode="z" d="M506 606l-342 -535l178 21l-11 49l113 6l1 -210l-77 31l-5 26l-397 -47l355 557l-234 -4l-5 -50l-60 7l-19 188l98 -13l-3 -31z"/>
<glyph glyph-name="braceleft" horiz-adv-x="328" unicode="{" d="M346 -66l-146 -60l-36 47l28 16l-10 12q-182 229 -182 509q0 117 45 228q52 127 143 183l-18 19l84 27l70 -121l-39 -27l-24 26l-14 -8q-76 -48 -114 -143q-33 -81 -33 -184q0 -121 48 -249q50 -134 132 -222l22 13z"/>
<glyph glyph-name="bar" horiz-adv-x="132" unicode="|" d="M119 845l-12 -900l-100 2l12 899z"/>
<glyph glyph-name="braceright" horiz-adv-x="296" unicode="}" d="M-50 -56l44 66l22 -13q82 88 132 222q48 128 48 249q0 103 -33 184q-38 95 -115 143q-6 4 -13 8l-25 -26l-38 27l70 121l84 -27l-18 -19q91 -56 143 -183q45 -111 45 -228q0 -280 -182 -509l-10 -12l27 -16l-35 -47z"/>
<glyph glyph-name="asciitilde" horiz-adv-x="270" unicode="~" d="M241 777q17 -21 17 -41q0 -29 -41 -43q-15 -5 -26 -5q-22 0 -44.5 25.5t-43.5 25.5q-6 0 -13 -1q-49 -10 -49 -59q0 -11 2 -20l-23 -6q-12 30 -12 59q0 59 55 74q14 4 27 4q29 0 53 -21q9 -7 32 -37q14 -17 23 -17h2q9 2 9 9q0 11 -24 31z"/>
<glyph glyph-name="exclamdown" horiz-adv-x="202" unicode="¡" d="M4 -23l5 70l39 1l9 499l-3 35l131 -13l15 -65l-44 13l-8 -466l33 1l-2 -78zM80 647q-31 0 -54 13q-28 16 -28 44q0 24 24 48t63 35q20 5 41 5q30 0 53 -13q29 -15 29 -44q0 -25 -24 -49t-63 -33q-21 -6 -41 -6z"/>
<glyph glyph-name="cent" horiz-adv-x="425" unicode="¢" d="M233 7l-72 12l20 88q-86 14 -138 105q-46 81 -46 183q0 101 46 182q52 90 137 105l-23 85l91 19l-13 -103q79 -10 130 -83q46 -66 58 -158l18 1l6 -52l-163 -23l11 69l28 1q-9 77 -48 125q-32 41 -64 41q-36 0 -72 -52q-42 -62 -42 -157q0 -96 42 -158q36 -52 72 -52 q30 0 60 35l-24 12l20 22l157 -34l-51 -53l-18 9q-54 -65 -129 -71z"/>
<glyph glyph-name="sterling" horiz-adv-x="465" unicode="£" d="M523 174l-81 -59l-18 7l-63 -149l-349 -15l-5 618q0 18 2 39q10 111 64 172q48 54 114 54q72 0 122 -61q48 -59 48 -149q0 -12 -1 -24l37 -6l-33 -38l-129 -4v65l26 -3v11q0 50 -17 79t-45 29q-34 0 -60 -42q-29 -46 -28 -121l1 -112h77l2 27l60 -31l-31 -111l-39 -11 l2 26h-70l2 -303l183 8l36 88l-24 9l27 75z"/>
<glyph glyph-name="currency" horiz-adv-x="192" unicode="¤" d="M143 426q0 13 -14 21.5t-34 8.5q-21 0 -35 -8.5t-14 -21.5q0 -12 14 -20.5t35 -8.5q20 0 34 8.5t14 20.5zM181 413q-4 -21 -25.5 -34.5t-51.5 -13.5q-36 0 -67 21q-32 21 -32 49q0 5 1 9q4 21 25.5 34t51.5 13q36 0 67 -20q32 -21 32 -49q0 -4 -1 -9z"/>
<glyph glyph-name="yen" horiz-adv-x="1438" unicode="¥" d="M401 279q0 -17 -30 -17t-30 17t30 17t30 -17zM717 291q0 -16 -20 -26q-16 -7 -34 -7t-34 7q-20 10 -20 26t20 26q16 7 34 7t34 -7q20 -10 20 -26zM1156 167q0 -18 -34 -28q-25 -8 -47 -8q-23 0 -48 8q-34 10 -34 28t34 29q24 7 48 7q23 0 47 -7q34 -11 34 -29zM1102 276 q-15 -10 -38 -10t-44 11q-23 13 -23 32v3q2 16 21 25q16 8 34 8q22 0 43 -11q23 -13 23 -32q0 -15 -16 -26zM1296 333q0 -32 -48 -46q-13 -4 -26 -4q-43 0 -43 27q0 33 49 47q13 4 25 4q43 0 43 -28zM309 203l-5 16h-7l1 91v6q0 27 -8 50q-12 34 -37 34q-24 0 -40 -22 q-11 25 -30 25h-1q-24 0 -40 -19v6l4 1l6 19l-53 1l4 -24h8l2 -153h-10v-31l53 11l-1 20h-12l-1 74q10 62 39 65q13 -16 14 -64l2 -67l-7 1l-8 -23l54 -3l-2 21l-6 1l-2 71q0 13 -1 23q10 36 28 36q7 -5 11 -24q3 -18 3 -30v-5l-1 -93l-11 -1l2 -19zM447 206l-1 30h-13 l-3 114q-1 26 -16 47.5t-40 21.5q-38 0 -50 -50l-11 3l-6 -30l56 2l3 17l-12 2q6 25 22 25q18 0 23 -33q0 -3 1 -7v-27q-13 6 -28 6q-22 0 -39 -13.5t-17 -34.5t17 -34t39 -13q16 0 30 7v-6h-4v-23zM585 204l-5 24h-9l1 117v7q0 74 -43 74q-24 0 -41 -18v7h6l2 21h-51l3 -24 h9l1 -173h-7l-3 -21l50 -4l-2 25h-7l-1 102q10 54 41 54q13 -9 13 -49l-2 -119h-6v-31zM768 247l-19 -4l-2 227h11l8 17l-60 13l-1 -28h11l1 -134q-23 17 -54 17t-53 -16q-26 -19 -26 -48q0 -30 26 -48q23 -16 53 -16q32 0 55 18v-9l-9 -3l2 -14h52zM831 215l-2 22h-12 l-2 165l-40 -4l-5 -20l14 4l2 -144h-10l1 -24zM968 204l-5 24h-9l1 117v7q0 74 -43 74q-24 0 -41 -18v7h6l2 21h-47q1 2 1 4q0 18 -27 26q-6 1 -13 1q-25 0 -25 -17q0 -18 27 -26q6 -2 12 -2q14 0 22 8l2 -18h9l1 -173h-7l-3 -21l50 -4l-2 25h-7l-1 102q10 54 41 54 q12 -8 12 -43v-6l-1 -119h-7l1 -31zM1177 167q0 33 -37 52q-29 15 -66 15q-36 0 -64 -14q-3 3 -3 6q0 8 12 17q13 -5 30 -7q8 -1 15 -1q29 0 51 13q32 18 32 54q0 27 -20 46q8 12 8 25q0 21 -20 32l7 10l-13 9l-36 -22l23 -28l3 4q5 -2 5 -6q0 -3 -2 -7q-24 11 -53 11 q-33 0 -56 -17q-26 -19 -26 -50q0 -30 25 -51q-8 -11 -8 -23q0 -14 9 -26q-22 -17 -22 -42q0 -33 37 -52q30 -15 66 -15t66 15q37 19 37 52zM1327 331q0 28 -23 46q-20 15 -49 15q-57 0 -89 -37q-17 -19 -17 -42q0 -29 21 -45t50 -16q58 0 90 36q17 20 17 43zM1427 331 q0 -61 -41 -107.5t-109 -64.5q-4 -74 -68 -119q-58 -40 -135 -40q-58 0 -109 25q-54 28 -78 75q-17 5 -30 16h-10q-7 -1 -14 -1l-54 -1q-18 0 -34 5h-34q-16 0 -34 8h-13.5h-15.5q-23 -18 -48 -22l-51 -8q-9 -1 -17 -1q-28 0 -51 15q-16 -5 -34 -5h-10q-20 2 -40.5 4 t-35.5 9q-22 -13 -41 -15l-52 -6q-5 -1 -11 -1q-33 0 -59 22l-8 1q-6 -2 -13 -4l-53 -11q-13 -3 -25 -3q-42 0 -69 28t-27 73v31q0 41 32 71q-20 17 -24 72q-17 21 -17 44q0 35 34 63q33 27 70 27h3h46q30 -2 47 -8q15 -1 29 -6q14 3 30 3q21 0 41 -6q36 25 80 25h15 q27 17 55 17q77 0 99 -11q35 -4 62 -22q5 41 30.5 69.5t66.5 28.5q12 0 26 -3l60 -13q32 -8 52 -25q24 -8 44 -24q23 -1 42 -11q52 -5 85 -43q6 4 11 7l36 21q16 9 42 9q46 0 77 -21q10 -6 17 -14q30 8 61 8q71 0 121.5 -45.5t50.5 -115.5z"/>
<glyph glyph-name="section" horiz-adv-x="500" unicode="§" d="M137 77l-31 -5q4 -46 31 -69.5t65 -23.5q46 0 83 33t37 86q0 82 -84 147q-69 54 -162 76l-2 155q14 -19 26 -33q30 -33 49 -40q117 -41 188 -111q85 -84 85 -193v-5q-2 -123 -104 -182q-57 -33 -114 -33q-39 0 -79 15q-106 41 -119 164l-31 -4v76l154 -15zM354 617 q-7 138 -89 138q-37 0 -73 -29.5t-45 -66.5q-3 -9 -3 -19q0 -104 223 -192q37 -14 66 -53q34 -45 34 -100q0 -44 -22 -88l-93 97q1 42 -19 50q-289 117 -289 285q0 84 70 150t155 66q69 0 116 -49q54 -57 66 -168q2 -14 3 -27l44 -3l-11 -34l-145 -15l-19 60z"/>
<glyph glyph-name="dieresis" horiz-adv-x="448" unicode="¨" d="M198 953q0 -24 -18.5 -41t-45.5 -17q-26 0 -44.5 17t-18.5 41t18.5 41.5t44.5 17.5q27 0 45.5 -17.5t18.5 -41.5zM345 930q0 -23 -17 -39t-41 -16t-41.5 16t-17.5 39t17.5 39t41.5 16t41 -16t17 -39z"/>
<glyph glyph-name="copyright" horiz-adv-x="578" unicode="©" d="M389 584l-68 -18l-5 23l12 2q-14 23 -34 34t-33 11h-4q-28 -4 -28 -42q0 -15 7 -31q13 -31 39 -48q19 -12 33 -12q3 0 6 1q13 2 21 14l-12 3l6 8l73 -1l-15 -20l-9 2q-21 -33 -69 -33q-39 0 -73 25q-30 23 -44 54q-8 19 -8 38q0 33 22.5 51t56.5 18q69 0 108 -65l8 2z M339 700q-39 0 -81 -12q-75 -22 -119 -69q-38 -40 -38 -81q0 -44 51 -69q41 -19 89 -19q40 0 82 12q75 21 119 68q38 41 38 82q0 43 -51 68q-41 20 -90 20zM350 366q-61 -18 -116 -18q-106 0 -171 60q-61 56 -61 137q0 75 55 137q61 70 173 102q61 17 117 17q105 0 171 -59 q61 -56 61 -137q0 -75 -55 -138q-61 -69 -174 -101z"/>
<glyph glyph-name="ordfeminine" d="M303 184q0 27 -38 43q-29 12 -59 12q-46 0 -74 -20q-24 -16 -24 -35q0 -18 24 -35q28 -19 74 -19q30 0 59 12q38 15 38 42zM451 -54l-160 16l-1 72l17 1v20q-46 -25 -99 -25q-70 0 -123 41q-57 45 -57 113t57 113q53 42 123 42q48 0 90 -21l-2 90q-1 4 -3 22 q-16 107 -71 107q-51 0 -71 -82l38 -8l-8 -54l-184 -6l21 97l36 -8q18 79 64 122q42 39 97 39q70 0 121 -59q56 -64 60 -166l11 -369l39 3z" unicode="ª"/>
<glyph glyph-name="guillemotleft" horiz-adv-x="609" unicode="«" d="M352 195l-45 -108l-36 9l9 27l-278 176l266 233l-22 29l72 36l55 -130l-29 -35l-16 21l-189 -161l162 -103l9 27zM567 196l-45 -108l-36 9l9 27l-278 176l266 233l-22 29l72 36l55 -130l-29 -35l-16 21l-189 -161l162 -103l9 27z"/>
<glyph glyph-name="logicalnot" horiz-adv-x="1438" unicode="¬" d="M401 279q0 -17 -30 -17t-30 17t30 17t30 -17zM717 291q0 -16 -20 -26q-16 -7 -34 -7t-34 7q-20 10 -20 26t20 26q16 7 34 7t34 -7q20 -10 20 -26zM1156 167q0 -18 -34 -28q-25 -8 -47 -8q-23 0 -48 8q-34 10 -34 28t34 29q24 7 48 7q23 0 47 -7q34 -11 34 -29zM1102 276 q-15 -10 -38 -10t-44 11q-23 13 -23 32v3q2 16 21 25q16 8 34 8q22 0 43 -11q23 -13 23 -32q0 -15 -16 -26zM1296 333q0 -32 -48 -46q-13 -4 -26 -4q-43 0 -43 27q0 33 49 47q13 4 25 4q43 0 43 -28zM309 203l-5 16h-7l1 91v6q0 27 -8 50q-12 34 -37 34q-24 0 -40 -22 q-11 25 -30 25h-1q-24 0 -40 -19v6l4 1l6 19l-53 1l4 -24h8l2 -153h-10v-31l53 11l-1 20h-12l-1 74q10 62 39 65q13 -16 14 -64l2 -67l-7 1l-8 -23l54 -3l-2 21l-6 1l-2 71q0 13 -1 23q10 36 28 36q7 -5 11 -24q3 -18 3 -30v-5l-1 -93l-11 -1l2 -19zM447 206l-1 30h-13 l-3 114q-1 26 -16 47.5t-40 21.5q-38 0 -50 -50l-11 3l-6 -30l56 2l3 17l-12 2q6 25 22 25q18 0 23 -33q0 -3 1 -7v-27q-13 6 -28 6q-22 0 -39 -13.5t-17 -34.5t17 -34t39 -13q16 0 30 7v-6h-4v-23zM585 204l-5 24h-9l1 117v7q0 74 -43 74q-24 0 -41 -18v7h6l2 21h-51l3 -24 h9l1 -173h-7l-3 -21l50 -4l-2 25h-7l-1 102q10 54 41 54q13 -9 13 -49l-2 -119h-6v-31zM768 247l-19 -4l-2 227h11l8 17l-60 13l-1 -28h11l1 -134q-23 17 -54 17t-53 -16q-26 -19 -26 -48q0 -30 26 -48q23 -16 53 -16q32 0 55 18v-9l-9 -3l2 -14h52zM831 215l-2 22h-12 l-2 165l-40 -4l-5 -20l14 4l2 -144h-10l1 -24zM968 204l-5 24h-9l1 117v7q0 74 -43 74q-24 0 -41 -18v7h6l2 21h-47q1 2 1 4q0 18 -27 26q-6 1 -13 1q-25 0 -25 -17q0 -18 27 -26q6 -2 12 -2q14 0 22 8l2 -18h9l1 -173h-7l-3 -21l50 -4l-2 25h-7l-1 102q10 54 41 54 q12 -8 12 -43v-6l-1 -119h-7l1 -31zM1177 167q0 33 -37 52q-29 15 -66 15q-36 0 -64 -14q-3 3 -3 6q0 8 12 17q13 -5 30 -7q8 -1 15 -1q29 0 51 13q32 18 32 54q0 27 -20 46q8 12 8 25q0 21 -20 32l7 10l-13 9l-36 -22l23 -28l3 4q5 -2 5 -6q0 -3 -2 -7q-24 11 -53 11 q-33 0 -56 -17q-26 -19 -26 -50q0 -30 25 -51q-8 -11 -8 -23q0 -14 9 -26q-22 -17 -22 -42q0 -33 37 -52q30 -15 66 -15t66 15q37 19 37 52zM1327 331q0 28 -23 46q-20 15 -49 15q-57 0 -89 -37q-17 -19 -17 -42q0 -29 21 -45t50 -16q58 0 90 36q17 20 17 43zM1427 331 q0 -61 -41 -107.5t-109 -64.5q-4 -74 -68 -119q-58 -40 -135 -40q-58 0 -109 25q-54 28 -78 75q-17 5 -30 16h-10q-7 -1 -14 -1l-54 -1q-18 0 -34 5h-34q-16 0 -34 8h-13.5h-15.5q-23 -18 -48 -22l-51 -8q-9 -1 -17 -1q-28 0 -51 15q-16 -5 -34 -5h-10q-20 2 -40.5 4 t-35.5 9q-22 -13 -41 -15l-52 -6q-5 -1 -11 -1q-33 0 -59 22l-8 1q-6 -2 -13 -4l-53 -11q-13 -3 -25 -3q-42 0 -69 28t-27 73v31q0 41 32 71q-20 17 -24 72q-17 21 -17 44q0 35 34 63q33 27 70 27h3h46q30 -2 47 -8q15 -1 29 -6q14 3 30 3q21 0 41 -6q36 25 80 25h15 q27 17 55 17q77 0 99 -11q35 -4 62 -22q5 41 30.5 69.5t66.5 28.5q12 0 26 -3l60 -13q32 -8 52 -25q24 -8 44 -24q23 -1 42 -11q52 -5 85 -43q6 4 11 7l36 21q16 9 42 9q46 0 77 -21q10 -6 17 -14q30 8 61 8q71 0 121.5 -45.5t50.5 -115.5z"/>
<glyph glyph-name="registered" horiz-adv-x="578" unicode="®" d="M306 590q55 23 55 42q0 16 -40 16q-16 0 -36 -3l-56 -9l9 -70l56 19q2 1 12 5zM347 362q-61 -18 -117 -18q-105 0 -171 60q-61 56 -61 137q0 75 55 138q61 69 174 101q61 18 116 18q106 0 171 -60q61 -56 61 -137q0 -75 -55 -137q-61 -70 -173 -102zM192 659l-6 -1v-2 q3 1 6 3zM201 449l2 -10q13 4 25 7q-14 1 -27 3zM329 461l5 -5l82 25l-13 15q-32 -21 -74 -35z"/>
<glyph glyph-name="degree" horiz-adv-x="195" unicode="°" d="M148 723q0 13 -14 21.5t-34 8.5q-21 0 -35 -8.5t-14 -21.5q0 -12 14 -20.5t35 -8.5q20 0 34 8.5t14 20.5zM186 710q-4 -21 -25.5 -34.5t-51.5 -13.5q-36 0 -67 21q-32 21 -32 49q0 5 1 9q4 21 25.5 34t51.5 13q36 0 67 -20q32 -21 32 -49q0 -4 -1 -9z"/>
<glyph glyph-name="plusminus" horiz-adv-x="1000" unicode="±" d="M195 379q-4 0 -13 10.5t-14 10.5q-7 0 -7 -24q0 -10 1 -24l-8 -10q-16 21 -16 48q0 9 2 17q5 24 26 24q10 0 21 -5q26 -16 26 -29q0 -6 -6 -12t-12 -6zM499 458q-6 -9 -77 -16q-27 -2 -47 -39t-30 -37t-18 9t-8 19q0 40 71 70q34 15 63 15q23 0 36 -7.5t10 -13.5z M453 398q0 -13 -19 -13q-18 0 -18 13t18 13q19 0 19 -13zM634 363q1 -5 1 -8q0 -19 -24 -19q-4 0 -10 1q-22 -31 -56 -31q-9 0 -29 4q-8 1 -18 -10.5t-17 -11.5q-10 0 -23.5 15t-13.5 30q0 25 30 47q16 6 17 -6q1 -4 -14 -17.5t-15 -27.5q0 -17 7.5 -17t23.5 17t23 17 q3 0 16 -8t25 -6q34 4 37 35q1 4 -8 9t-9 8q0 10 22 10q26 0 35 -31zM592 437q-6 -6 -17 -6q-19 0 -19 14q0 11 17 13q-6 10 -3 17l8 15q-18 -16 -26 -13q-13 3 -13 18q0 8 9 14q36 21 47 21q6 0 11 -3l-80 73q-19 0 -37 -6q-45 -13 -82 -49t-64 -36q-10 0 -16 5q3 -6 3 -13 q0 -18 -21 -34q-15 -12 -15 -29q0 -14 10 -27l-51 -10q-26 62 -69 62q-4 0 -9 -1q-62 -9 -62 -49q0 -8 2 -17q6 -27 11 -54q11 -32 39 -32q8 0 22.5 4t21.5 4q13 0 13 -10q0 -12 -20 -37q-23 -35 -23 -65q0 -42 46 -57q80 -24 159 -48q98 -33 122 -72q16 -25 41 -25 q20 0 51 17t36 17q1 -1 17.5 -4t27.5 -3q50 0 50 55q0 72 -42 81q2 -6 2 -13q0 -33 -47 -42q-31 -7 -71 -7q-124 0 -145 54q-5 12 -5 24q0 34 32 66q28 28 57 32q12 2 22 2q19 0 26 -7q30 24 48 24q19 0 46 -22q4 8 9 15q12 16 27 20.5t15 23.5q0 32 -35 52q-27 15 -76 48z M663 156q11 11 11 22q0 20 -32 36q-36 -38 -61 -38q-4 0 -8 1q-21 9 -46 9q-36 0 -72 -16l30 -16q43 -24 96 -24q56 0 82 26zM632 243q-3 33 -19 33q-3 0 -5 -1q-22 -6 -35 -36q-14 18 -39 18q-9 0 -19 -3q-38 -10 -69 -72q45 21 80 21q12 0 25.5 -5t19.5 -5q31 0 61 50z M760 62q-31 -61 -72 -61q-12 0 -36 4q-3 1 -6 1q-15 0 -41 -12q-36 -15 -57 -15q-36 0 -70 36q-48 51 -134 73q-61 11 -122 23q-33 7 -52 38q-16 26 -16 56q0 15 5 24q-38 13 -66 32q-68 45 -79.5 116.5t-11.5 128.5q0 145 70 228q89 105 282 105q19 0 38 -1q138 -7 202 -60 q50 -43 50 -108q0 -68 -35 -99q29 -29 29 -52q0 -14 -18 -28.5t-18 -20.5q0 -7 14 -14q115 -61 115 -101q0 -20 -29.5 -48.5t-29.5 -45.5q0 -16 47.5 -72.5t47.5 -94.5q0 -17 -7 -32z"/>
<glyph glyph-name="acute" horiz-adv-x="588" unicode="´" d="M423 863l-138 -87l-49 43l104 147z"/>
<glyph glyph-name="mu" horiz-adv-x="840" unicode="µ" d="M255 319q-4 0 -13 10.5t-14 10.5q-7 0 -7 -24q0 -10 1 -24l-8 -10q-16 21 -16 48q0 9 2 17q5 24 26 24q10 0 21 -5q26 -16 26 -29q0 -6 -6 -12t-12 -6zM744 273l-1 -12l-25 -17l1 32q1 13 -24 22q2 -17 -16 -21q-7 -1 -18 0q-22 -31 -56 -31q-9 0 -29 4q-8 1 -18 -10.5 t-17 -11.5q-10 0 -23.5 15t-13.5 30q0 20 20 39l-9 -1l-35 -63q-7 -34 -32 -47q-14 -6 -14 -38q0 -44 19 -60l10 -8l-26 -1l-15 14q-21 19 -21 49q0 49 35 67q15 7 28 29l-33 53l-15 5q-8 -9 -19 -3q-11 5 -16 16l-14 5l-54 12q-26 62 -69 62q-4 0 -9 -1q-62 -9 -62 -49 q0 -8 2 -17q6 -27 11 -54q11 -32 39 -32q8 0 22.5 4t21.5 4q13 0 13 -10q0 -12 -20 -37q-23 -35 -23 -65q0 -42 46 -57q80 -24 159 -48q98 -33 122 -72q16 -25 41 -25q20 0 51 17t36 17q1 -1 17.5 -4t27.5 -3q50 0 50 55q0 72 -42 81q2 -6 2 -13q0 -33 -47 -42 q-31 -7 -71 -7q-124 0 -145 54q-5 12 -5 24q0 34 32 66q28 28 57 32q12 2 22 2q19 0 26 -7q30 24 48 24q19 0 46 -22q4 8 9 15q12 16 27 20.5t15 23.5q0 32 -35 52l-22 13q-26 12 -40 12q-13 0 -33 -7l-27 15l-13 18l-27 -3l7 -38l-22 -24v-1q1 -4 -15 -18q-14 -13 -14 -27 q0 -17 8 -17q7 0 23 17t23 17q3 0 16 -8t25 -6q34 4 37 35q1 4 -8 9t-9 8q0 10 22 10q21 0 31 -21l2 -1q55 -4 52 -39zM723 96q11 11 11 22q0 20 -32 36q-36 -38 -61 -38q-4 0 -8 1q-21 9 -46 9q-36 0 -72 -16l30 -16q43 -24 96 -24q56 0 82 26zM692 183q-3 33 -19 33 q-3 0 -5 -1q-22 -6 -35 -36q-14 18 -39 18q-9 0 -19 -3q-38 -10 -69 -72q45 21 80 21q12 0 25.5 -5t19.5 -5q31 0 61 50zM409 449q-14 -2 -22 5q3 -6 3 -13q0 -18 -21 -34q-15 -12 -15 -29q0 -11 7 -22l9 -4l37 44zM563 336l-30 46l3 54l-52 -15l-51 20l-2 -54l-35 -42 l51 -19l30 -46l33 43zM579 411l-18 20l-2 -27zM630 500l-44 40q-19 0 -37 -6q-45 -13 -81 -48q-13 -13 -25 -21l42 -17l79 22l-2 -20l49 19zM711 443l-38 9l-25 30l-20 -33l-37 -15l26 -29l2 -39l36 15l38 -10l-3 39zM820 2q-31 -61 -72 -61q-12 0 -36 4q-3 1 -6 1 q-15 0 -41 -12q-36 -15 -57 -15q-36 0 -70 36q-48 51 -134 73q-61 11 -122 23q-40 9 -77.5 46.5t-37.5 63.5q0 5 2 8q-34 14 -61 33q-64 46 -84 115.5t-20 142.5q0 166 96 266q109 113 320 113q20 0 42 -1q134 -7 196 -71q50 -50 50 -129q0 -42 -14 -81q-11 -34 -25 -46 q10 -10 27 -39l55 -13l-36 -55l3 -31q73 -44 73 -78q0 -20 -30 -49q-29 -28 -29 -45q0 -16 47.5 -72.5t47.5 -94.5q0 -17 -7 -32z"/>
<glyph glyph-name="mu" horiz-adv-x="840" unicode="μ" d="M255 319q-4 0 -13 10.5t-14 10.5q-7 0 -7 -24q0 -10 1 -24l-8 -10q-16 21 -16 48q0 9 2 17q5 24 26 24q10 0 21 -5q26 -16 26 -29q0 -6 -6 -12t-12 -6zM744 273l-1 -12l-25 -17l1 32q1 13 -24 22q2 -17 -16 -21q-7 -1 -18 0q-22 -31 -56 -31q-9 0 -29 4q-8 1 -18 -10.5 t-17 -11.5q-10 0 -23.5 15t-13.5 30q0 20 20 39l-9 -1l-35 -63q-7 -34 -32 -47q-14 -6 -14 -38q0 -44 19 -60l10 -8l-26 -1l-15 14q-21 19 -21 49q0 49 35 67q15 7 28 29l-33 53l-15 5q-8 -9 -19 -3q-11 5 -16 16l-14 5l-54 12q-26 62 -69 62q-4 0 -9 -1q-62 -9 -62 -49 q0 -8 2 -17q6 -27 11 -54q11 -32 39 -32q8 0 22.5 4t21.5 4q13 0 13 -10q0 -12 -20 -37q-23 -35 -23 -65q0 -42 46 -57q80 -24 159 -48q98 -33 122 -72q16 -25 41 -25q20 0 51 17t36 17q1 -1 17.5 -4t27.5 -3q50 0 50 55q0 72 -42 81q2 -6 2 -13q0 -33 -47 -42 q-31 -7 -71 -7q-124 0 -145 54q-5 12 -5 24q0 34 32 66q28 28 57 32q12 2 22 2q19 0 26 -7q30 24 48 24q19 0 46 -22q4 8 9 15q12 16 27 20.5t15 23.5q0 32 -35 52l-22 13q-26 12 -40 12q-13 0 -33 -7l-27 15l-13 18l-27 -3l7 -38l-22 -24v-1q1 -4 -15 -18q-14 -13 -14 -27 q0 -17 8 -17q7 0 23 17t23 17q3 0 16 -8t25 -6q34 4 37 35q1 4 -8 9t-9 8q0 10 22 10q21 0 31 -21l2 -1q55 -4 52 -39zM723 96q11 11 11 22q0 20 -32 36q-36 -38 -61 -38q-4 0 -8 1q-21 9 -46 9q-36 0 -72 -16l30 -16q43 -24 96 -24q56 0 82 26zM692 183q-3 33 -19 33 q-3 0 -5 -1q-22 -6 -35 -36q-14 18 -39 18q-9 0 -19 -3q-38 -10 -69 -72q45 21 80 21q12 0 25.5 -5t19.5 -5q31 0 61 50zM409 449q-14 -2 -22 5q3 -6 3 -13q0 -18 -21 -34q-15 -12 -15 -29q0 -11 7 -22l9 -4l37 44zM563 336l-30 46l3 54l-52 -15l-51 20l-2 -54l-35 -42 l51 -19l30 -46l33 43zM579 411l-18 20l-2 -27zM630 500l-44 40q-19 0 -37 -6q-45 -13 -81 -48q-13 -13 -25 -21l42 -17l79 22l-2 -20l49 19zM711 443l-38 9l-25 30l-20 -33l-37 -15l26 -29l2 -39l36 15l38 -10l-3 39zM820 2q-31 -61 -72 -61q-12 0 -36 4q-3 1 -6 1 q-15 0 -41 -12q-36 -15 -57 -15q-36 0 -70 36q-48 51 -134 73q-61 11 -122 23q-40 9 -77.5 46.5t-37.5 63.5q0 5 2 8q-34 14 -61 33q-64 46 -84 115.5t-20 142.5q0 166 96 266q109 113 320 113q20 0 42 -1q134 -7 196 -71q50 -50 50 -129q0 -42 -14 -81q-11 -34 -25 -46 q10 -10 27 -39l55 -13l-36 -55l3 -31q73 -44 73 -78q0 -20 -30 -49q-29 -28 -29 -45q0 -16 47.5 -72.5t47.5 -94.5q0 -17 -7 -32z"/>
<glyph glyph-name="paragraph" horiz-adv-x="840" unicode="¶" d="M255 319q-4 0 -13 10.5t-14 10.5q-7 0 -7 -24q0 -10 1 -24l-8 -10q-16 21 -16 48q0 9 2 17q5 24 26 24q10 0 21 -5q26 -16 26 -29q0 -6 -6 -12t-12 -6zM744 273l-1 -12l-25 -17l1 32q1 13 -24 22q2 -17 -16 -21q-7 -1 -18 0q-22 -31 -56 -31q-9 0 -29 4q-8 1 -18 -10.5 t-17 -11.5q-10 0 -23.5 15t-13.5 30q0 20 20 39l-9 -1l-35 -63q-7 -34 -32 -47q-14 -6 -14 -38q0 -44 19 -60l10 -8l-26 -1l-15 14q-21 19 -21 49q0 49 35 67q15 7 28 29l-33 53l-15 5q-8 -9 -19 -3q-11 5 -16 16l-14 5l-54 12q-26 62 -69 62q-4 0 -9 -1q-62 -9 -62 -49 q0 -8 2 -17q6 -27 11 -54q11 -32 39 -32q8 0 22.5 4t21.5 4q13 0 13 -10q0 -12 -20 -37q-23 -35 -23 -65q0 -42 46 -57q80 -24 159 -48q98 -33 122 -72q16 -25 41 -25q20 0 51 17t36 17q1 -1 17.5 -4t27.5 -3q50 0 50 55q0 72 -42 81q2 -6 2 -13q0 -33 -47 -42 q-31 -7 -71 -7q-124 0 -145 54q-5 12 -5 24q0 34 32 66q28 28 57 32q12 2 22 2q19 0 26 -7q30 24 48 24q19 0 46 -22q4 8 9 15q12 16 27 20.5t15 23.5q0 32 -35 52l-22 13q-26 12 -40 12q-13 0 -33 -7l-27 15l-13 18l-27 -3l7 -38l-22 -24v-1q1 -4 -15 -18q-14 -13 -14 -27 q0 -17 8 -17q7 0 23 17t23 17q3 0 16 -8t25 -6q34 4 37 35q1 4 -8 9t-9 8q0 10 22 10q21 0 31 -21l2 -1q55 -4 52 -39zM723 96q11 11 11 22q0 20 -32 36q-36 -38 -61 -38q-4 0 -8 1q-21 9 -46 9q-36 0 -72 -16l30 -16q43 -24 96 -24q56 0 82 26zM692 183q-3 33 -19 33 q-3 0 -5 -1q-22 -6 -35 -36q-14 18 -39 18q-9 0 -19 -3q-38 -10 -69 -72q45 21 80 21q12 0 25.5 -5t19.5 -5q31 0 61 50zM409 449q-14 -2 -22 5q3 -6 3 -13q0 -18 -21 -34q-15 -12 -15 -29q0 -11 7 -22l9 -4l37 44zM563 336l-30 46l3 54l-52 -15l-51 20l-2 -54l-35 -42 l51 -19l30 -46l33 43zM579 411l-18 20l-2 -27zM630 500l-44 40q-19 0 -37 -6q-45 -13 -81 -48q-13 -13 -25 -21l42 -17l79 22l-2 -20l49 19zM711 443l-38 9l-25 30l-20 -33l-37 -15l26 -29l2 -39l36 15l38 -10l-3 39zM820 2q-31 -61 -72 -61q-12 0 -36 4q-3 1 -6 1 q-15 0 -41 -12q-36 -15 -57 -15q-36 0 -70 36q-48 51 -134 73q-61 11 -122 23q-40 9 -77.5 46.5t-37.5 63.5q0 5 2 8q-34 14 -61 33q-64 46 -84 115.5t-20 142.5q0 166 96 266q109 113 320 113q20 0 42 -1q134 -7 196 -71q50 -50 50 -129q0 -42 -14 -81q-11 -34 -25 -46 q10 -10 27 -39l55 -13l-36 -55l3 -31q73 -44 73 -78q0 -20 -30 -49q-29 -28 -29 -45q0 -16 47.5 -72.5t47.5 -94.5q0 -17 -7 -32z"/>
<glyph glyph-name="cedilla" horiz-adv-x="425" unicode="¸" d="M342 -220q-15 -59 -182 -67l16 67q36 -13 61 -13q30 0 30 18q0 25 -81 30l9 109l42 3l6 -86q101 -1 101 -49q0 -6 -2 -12z"/>
<glyph glyph-name="ordmasculine" horiz-adv-x="578" unicode="º" d="M338 447q-39 0 -81 -12q-76 -22 -119 -68q-39 -41 -39 -82q0 -43 52 -68q41 -20 89 -20q39 0 82 12q75 22 119 68q38 41 38 82q0 43 -52 68q-40 20 -89 20zM349 113q-61 -18 -116 -18q-106 0 -171 60q-61 56 -61 137q0 75 55 137q61 70 173 102q61 18 116 18 q106 0 171 -60q61 -56 61 -137q0 -75 -54 -138q-61 -69 -174 -101z"/>
<glyph glyph-name="guillemotright" horiz-adv-x="602" unicode="»" d="M23 195l43 21l8 -27l163 103l-189 161l-16 -21l-30 35l56 130l72 -36l-22 -29l265 -233l-277 -176l9 -27l-36 -9zM246 198l43 21l8 -27l163 103l-189 161l-16 -21l-30 35l56 130l72 -36l-22 -29l265 -233l-277 -176l9 -27l-36 -9z"/>
<glyph glyph-name="questiondown" horiz-adv-x="493" unicode="¿" d="M368 784q0 -21 -26 -39t-67 -21q-7 -1 -13 -1q-32 0 -59 13.5t-28 36.5v3q0 22 26 39.5t67 20.5q7 1 13 1q32 0 59.5 -13.5t27.5 -39.5zM188 627l4 57l177 -9l-7 -35l-36 -3l-14 -215q-89 -2 -135 -18q-74 -27 -81 -96q2 -110 77 -161q39 -27 77 -27l63 18q75 42 79 163 l-30 3l-9 27l159 24l4 -66l-25 3q0 -10 -2 -20q-13 -123 -83 -190q-62 -60 -150 -60q-103 0 -179 77q-81 81 -81 205v6q1 7 6 36q19 74 79 119q56 43 137 53l7 112z"/>
<glyph glyph-name="Agrave" horiz-adv-x="448" unicode="À" d="M244 231l-44 252l-66 -280zM475 -96l-184 -74l-13 99l18 5l-35 204l-145 -8l-42 -177l55 -13l-44 -50l-130 17l4 75l18 -5l238 1000l179 -1022l56 13zM286 914l-49 -43l-138 87l83 103z"/>
<glyph glyph-name="Aacute" horiz-adv-x="448" unicode="Á" d="M244 231l-44 252l-66 -280zM475 -96l-184 -74l-13 99l18 5l-35 204l-145 -8l-42 -177l55 -13l-44 -50l-130 17l4 75l18 -5l238 1000l179 -1022l56 13zM344 999l-138 -87l-49 43l104 147z"/>
<glyph glyph-name="Acircumflex" horiz-adv-x="448" unicode="Â" d="M244 231l-44 252l-66 -280zM475 -96l-184 -74l-13 99l18 5l-35 204l-145 -8l-42 -177l55 -13l-44 -50l-130 17l4 75l18 -5l238 1000l179 -1022l56 13zM355 956l-86 -49l-49 95l-50 -70l-58 21l111 120z"/>
<glyph glyph-name="Atilde" horiz-adv-x="448" unicode="Ã" d="M244 231l-44 252l-66 -280zM475 -96l-184 -74l-13 99l18 5l-35 204l-145 -8l-42 -177l55 -13l-44 -50l-130 17l4 75l18 -5l238 1000l179 -1022l56 13zM353 982q17 -21 17 -41q0 -29 -41 -43q-15 -5 -26 -5q-22 0 -44.5 25.5t-43.5 25.5q-6 0 -13 -1q-49 -10 -49 -59 q0 -11 2 -20l-23 -6q-12 30 -12 59q0 59 55 74q14 4 27 4q29 0 53 -21q9 -7 32 -37q14 -17 23 -17h2q9 2 9 9q0 11 -24 31z"/>
<glyph glyph-name="Adieresis" horiz-adv-x="448" unicode="Ä" d="M244 231l-44 252l-66 -280zM475 -96l-184 -74l-13 99l18 5l-35 204l-145 -8l-42 -177l55 -13l-44 -50l-130 17l4 75l18 -5l238 1000l179 -1022l56 13zM198 953q0 -24 -18.5 -41t-45.5 -17q-26 0 -44.5 17t-18.5 41t18.5 41.5t44.5 17.5q27 0 45.5 -17.5t18.5 -41.5z M345 930q0 -23 -17 -39t-41 -16t-41.5 16t-17.5 39t17.5 39t41.5 16t41 -16t17 -39z"/>
<glyph glyph-name="Aring" horiz-adv-x="448" unicode="Å" d="M244 231l-44 252l-66 -280zM475 -96l-184 -74l-13 99l18 5l-35 204l-145 -8l-42 -177l55 -13l-44 -50l-130 17l4 75l18 -5l238 1000l179 -1022l56 13zM264 962q0 13 -14 21.5t-34 8.5q-21 0 -35 -8.5t-14 -21.5q0 -12 14 -20.5t35 -8.5q20 0 34 8.5t14 20.5zM302 949 q-4 -21 -25.5 -34.5t-51.5 -13.5q-36 0 -67 21q-32 21 -32 49q0 5 1 9q4 21 25.5 34t51.5 13q36 0 67 -20q32 -21 32 -49q0 -4 -1 -9z"/>
<glyph glyph-name="AE" horiz-adv-x="913" unicode="Æ" d="M244 231l-44 252l-66 -280zM977 43l-92 -65l-8 55l-488 -47l5 -31l56 13l25 -64l-184 -74l-13 99l18 5l-35 204l-145 -8l-42 -177l55 -13l-44 -50l-130 17l4 75l18 -5l238 1000l113 -643l-7 344l493 -34v43l94 -20l-36 -163l-58 20v20l-391 27l4 -192l318 10l2 25l65 -18 l-21 -133l-52 7l1 19l-311 -10l3 -189l431 42l-5 34l64 23z"/>
<glyph glyph-name="Ccedilla" horiz-adv-x="434" unicode="Ç" d="M460 363l-173 -18v83l25 -1q-9 115 -31 201q-30 122 -73 122q-52 0 -85 -170q-23 -123 -23 -203q0 -81 23 -203q33 -171 85 -171q28 0 62 88l-17 4l18 76l156 -49l-25 -59l-32 7q-59 -167 -162 -167q-115 0 -171 195q-37 131 -37 279t37 279q56 194 171 194 q104 0 160 -162q39 -113 46 -268l25 -2zM342 -230q-15 -59 -182 -67l16 67q36 -13 61 -13q30 0 30 18q0 25 -81 30l9 109l42 3l6 -86q101 -1 101 -49q0 -6 -2 -12z"/>
<glyph glyph-name="Egrave" horiz-adv-x="588" unicode="È" d="M652 108l-92 -66l-8 55l-543 -52l-13 697l493 -34v43l94 -19l-36 -163l-58 19v20l-391 27l4 -191l318 9l1 25l66 -18l-21 -133l-52 7l1 19l-311 -9l3 -189l431 41l-5 34l64 23zM374 804l-49 -43l-138 87l83 103z"/>
<glyph glyph-name="Eacute" horiz-adv-x="588" unicode="É" d="M652 108l-92 -66l-8 55l-543 -52l-13 697l493 -34v43l94 -19l-36 -163l-58 19v20l-391 27l4 -191l318 9l1 25l66 -18l-21 -133l-52 7l1 19l-311 -9l3 -189l431 41l-5 34l64 23zM423 863l-138 -87l-49 43l104 147z"/>
<glyph glyph-name="Ecircumflex" horiz-adv-x="588" unicode="Ê" d="M652 108l-92 -66l-8 55l-543 -52l-13 697l493 -34v43l94 -19l-36 -163l-58 19v20l-391 27l4 -191l318 9l1 25l66 -18l-21 -133l-52 7l1 19l-311 -9l3 -189l431 41l-5 34l64 23zM424 844l-86 -49l-49 95l-50 -70l-58 21l111 120z"/>
<glyph glyph-name="Edieresis" horiz-adv-x="588" unicode="Ë" d="M652 108l-92 -66l-8 55l-543 -52l-13 697l493 -34v43l94 -19l-36 -163l-58 19v20l-391 27l4 -191l318 9l1 25l66 -18l-21 -133l-52 7l1 19l-311 -9l3 -189l431 41l-5 34l64 23zM282 861q0 -24 -18.5 -41t-45.5 -17q-26 0 -44.5 17t-18.5 41t18.5 41.5t44.5 17.5 q27 0 45.5 -17.5t18.5 -41.5zM429 838q0 -23 -17 -39t-41 -16t-41.5 16t-17.5 39t17.5 39t41.5 16t41 -16t17 -39z"/>
<glyph glyph-name="Igrave" horiz-adv-x="198" unicode="Ì" d="M196 666l-43 -2l-14 -571l32 6l-8 -89l-155 2l-8 57l38 6l15 586l-53 -2l17 99l170 -14zM195 824l-49 -43l-138 87l83 103z"/>
<glyph glyph-name="Iacute" horiz-adv-x="198" unicode="Í" d="M196 666l-43 -2l-14 -571l32 6l-8 -89l-155 2l-8 57l38 6l15 586l-53 -2l17 99l170 -14zM221 889l-138 -87l-49 43l104 147z"/>
<glyph glyph-name="Icircumflex" horiz-adv-x="198" unicode="Î" d="M196 666l-43 -2l-14 -571l32 6l-8 -89l-155 2l-8 57l38 6l15 586l-53 -2l17 99l170 -14zM234 850l-86 -49l-49 95l-50 -70l-58 21l111 120z"/>
<glyph glyph-name="Idieresis" horiz-adv-x="198" unicode="Ï" d="M196 666l-43 -2l-14 -571l32 6l-8 -89l-155 2l-8 57l38 6l15 586l-53 -2l17 99l170 -14zM98 893q0 -24 -18.5 -41t-45.5 -17q-26 0 -44.5 17t-18.5 41t18.5 41.5t44.5 17.5q27 0 45.5 -17.5t18.5 -41.5zM245 870q0 -23 -17 -39t-41 -16t-41.5 16t-17.5 39t17.5 39 t41.5 16t41 -16t17 -39z"/>
<glyph glyph-name="Eth" horiz-adv-x="840" unicode="Ð" d="M255 319q-4 0 -13 10.5t-14 10.5q-7 0 -7 -24q0 -10 1 -24l-8 -10q-16 21 -16 48q0 9 2 17q5 24 26 24q10 0 21 -5q26 -16 26 -29q0 -6 -6 -12t-12 -6zM744 273l-1 -12l-25 -17l1 32q1 13 -24 22q2 -17 -16 -21q-7 -1 -18 0q-22 -31 -56 -31q-9 0 -29 4q-8 1 -18 -10.5 t-17 -11.5q-10 0 -23.5 15t-13.5 30q0 20 20 39l-9 -1l-35 -63q-7 -34 -32 -47q-14 -6 -14 -38q0 -44 19 -60l10 -8l-26 -1l-15 14q-21 19 -21 49q0 49 35 67q15 7 28 29l-33 53l-15 5q-8 -9 -19 -3q-11 5 -16 16l-14 5l-54 12q-26 62 -69 62q-4 0 -9 -1q-62 -9 -62 -49 q0 -8 2 -17q6 -27 11 -54q11 -32 39 -32q8 0 22.5 4t21.5 4q13 0 13 -10q0 -12 -20 -37q-23 -35 -23 -65q0 -42 46 -57q80 -24 159 -48q98 -33 122 -72q16 -25 41 -25q20 0 51 17t36 17q1 -1 17.5 -4t27.5 -3q50 0 50 55q0 72 -42 81q2 -6 2 -13q0 -33 -47 -42 q-31 -7 -71 -7q-124 0 -145 54q-5 12 -5 24q0 34 32 66q28 28 57 32q12 2 22 2q19 0 26 -7q30 24 48 24q19 0 46 -22q4 8 9 15q12 16 27 20.5t15 23.5q0 32 -35 52l-22 13q-26 12 -40 12q-13 0 -33 -7l-27 15l-13 18l-27 -3l7 -38l-22 -24v-1q1 -4 -15 -18q-14 -13 -14 -27 q0 -17 8 -17q7 0 23 17t23 17q3 0 16 -8t25 -6q34 4 37 35q1 4 -8 9t-9 8q0 10 22 10q21 0 31 -21l2 -1q55 -4 52 -39zM723 96q11 11 11 22q0 20 -32 36q-36 -38 -61 -38q-4 0 -8 1q-21 9 -46 9q-36 0 -72 -16l30 -16q43 -24 96 -24q56 0 82 26zM692 183q-3 33 -19 33 q-3 0 -5 -1q-22 -6 -35 -36q-14 18 -39 18q-9 0 -19 -3q-38 -10 -69 -72q45 21 80 21q12 0 25.5 -5t19.5 -5q31 0 61 50zM409 449q-14 -2 -22 5q3 -6 3 -13q0 -18 -21 -34q-15 -12 -15 -29q0 -11 7 -22l9 -4l37 44zM563 336l-30 46l3 54l-52 -15l-51 20l-2 -54l-35 -42 l51 -19l30 -46l33 43zM579 411l-18 20l-2 -27zM630 500l-44 40q-19 0 -37 -6q-45 -13 -81 -48q-13 -13 -25 -21l42 -17l79 22l-2 -20l49 19zM711 443l-38 9l-25 30l-20 -33l-37 -15l26 -29l2 -39l36 15l38 -10l-3 39zM820 2q-31 -61 -72 -61q-12 0 -36 4q-3 1 -6 1 q-15 0 -41 -12q-36 -15 -57 -15q-36 0 -70 36q-48 51 -134 73q-61 11 -122 23q-40 9 -77.5 46.5t-37.5 63.5q0 5 2 8q-34 14 -61 33q-64 46 -84 115.5t-20 142.5q0 166 96 266q109 113 320 113q20 0 42 -1q134 -7 196 -71q50 -50 50 -129q0 -42 -14 -81q-11 -34 -25 -46 q10 -10 27 -39l55 -13l-36 -55l3 -31q73 -44 73 -78q0 -20 -30 -49q-29 -28 -29 -45q0 -16 47.5 -72.5t47.5 -94.5q0 -17 -7 -32z"/>
<glyph glyph-name="Ntilde" horiz-adv-x="622" unicode="Ñ" d="M655 -125l-534 635l-19 -439l34 -8l-4 -51l-198 9l16 85l53 -12l29 676l481 -570l-52 404l-63 4l-12 56l243 34l-18 -103l-49 3zM419 857q17 -21 17 -41q0 -29 -41 -43q-15 -5 -26 -5q-22 0 -44.5 25.5t-43.5 25.5q-6 0 -13 -1q-49 -10 -49 -59q0 -11 2 -20l-23 -6 q-12 30 -12 59q0 59 55 74q14 4 27 4q29 0 53 -21q9 -7 32 -37q14 -17 23 -17h2q9 2 9 9q0 11 -24 31z"/>
<glyph glyph-name="Ograve" horiz-adv-x="716" unicode="Ò" d="M618 317q0 62 -54 121q-59 64 -159 93q-54 15 -105 15q-75 0 -134 -33q-71 -40 -71 -109q0 -62 54 -121q60 -64 159 -93q54 -15 105 -15q75 0 134 33q71 40 71 109zM433 627q140 -40 215 -128q68 -78 68 -173q0 -104 -77 -176q-83 -77 -216 -77q-68 0 -143 21 q-140 40 -215 128q-68 78 -68 173q0 104 77 176q83 77 216 77q68 0 143 -21zM454 709l-49 -43l-138 87l83 103z"/>
<glyph glyph-name="Oacute" horiz-adv-x="716" unicode="Ó" d="M618 317q0 62 -54 121q-59 64 -159 93q-54 15 -105 15q-75 0 -134 -33q-71 -40 -71 -109q0 -62 54 -121q60 -64 159 -93q54 -15 105 -15q75 0 134 33q71 40 71 109zM433 627q140 -40 215 -128q68 -78 68 -173q0 -104 -77 -176q-83 -77 -216 -77q-68 0 -143 21 q-140 40 -215 128q-68 78 -68 173q0 104 77 176q83 77 216 77q68 0 143 -21zM489 789l-138 -87l-49 43l104 147z"/>
<glyph glyph-name="Ocircumflex" horiz-adv-x="716" unicode="Ô" d="M618 317q0 62 -54 121q-59 64 -159 93q-54 15 -105 15q-75 0 -134 -33q-71 -40 -71 -109q0 -62 54 -121q60 -64 159 -93q54 -15 105 -15q75 0 134 33q71 40 71 109zM433 627q140 -40 215 -128q68 -78 68 -173q0 -104 -77 -176q-83 -77 -216 -77q-68 0 -143 21 q-140 40 -215 128q-68 78 -68 173q0 104 77 176q83 77 216 77q68 0 143 -21zM505 719l-86 -49l-49 95l-50 -70l-58 21l111 120z"/>
<glyph glyph-name="Otilde" horiz-adv-x="716" unicode="Õ" d="M618 317q0 62 -54 121q-59 64 -159 93q-54 15 -105 15q-75 0 -134 -33q-71 -40 -71 -109q0 -62 54 -121q60 -64 159 -93q54 -15 105 -15q75 0 134 33q71 40 71 109zM433 627q140 -40 215 -128q68 -78 68 -173q0 -104 -77 -176q-83 -77 -216 -77q-68 0 -143 21 q-140 40 -215 128q-68 78 -68 173q0 104 77 176q83 77 216 77q68 0 143 -21zM476 800q17 -21 17 -41q0 -29 -41 -43q-15 -5 -26 -5q-22 0 -44.5 25.5t-43.5 25.5q-6 0 -13 -1q-49 -10 -49 -59q0 -11 2 -20l-23 -6q-12 30 -12 59q0 59 55 74q14 4 27 4q29 0 53 -21 q9 -7 32 -37q14 -17 23 -17h2q9 2 9 9q0 11 -24 31z"/>
<glyph glyph-name="Odieresis" horiz-adv-x="716" unicode="Ö" d="M618 317q0 62 -54 121q-59 64 -159 93q-54 15 -105 15q-75 0 -134 -33q-71 -40 -71 -109q0 -62 54 -121q60 -64 159 -93q54 -15 105 -15q75 0 134 33q71 40 71 109zM433 627q140 -40 215 -128q68 -78 68 -173q0 -104 -77 -176q-83 -77 -216 -77q-68 0 -143 21 q-140 40 -215 128q-68 78 -68 173q0 104 77 176q83 77 216 77q68 0 143 -21zM343 775q0 -24 -18.5 -41t-45.5 -17q-26 0 -44.5 17t-18.5 41t18.5 41.5t44.5 17.5q27 0 45.5 -17.5t18.5 -41.5zM490 752q0 -23 -17 -39t-41 -16t-41.5 16t-17.5 39t17.5 39t41.5 16t41 -16 t17 -39z"/>
<glyph glyph-name="Oslash" horiz-adv-x="636" unicode="Ø" d="M478 421l-285 -196q25 -19 54 -34q62 -30 123 -30q66 0 112 33q51 37 51 99q0 68 -55 128zM128 301l265 183l-2 1q-62 30 -123 30q-66 0 -112 -33q-51 -36 -51 -99q0 -41 23 -82zM434 575q100 -49 152 -124q46 -69 46 -147q0 -100 -70 -171q-74 -75 -187 -75 q-83 0 -171 43q-100 49 -152 125q-46 68 -46 146q0 101 70 172q74 74 187 74q83 0 171 -43z"/>
<glyph glyph-name="Ugrave" horiz-adv-x="463" unicode="Ù" d="M466 626l-57 2l-7 -375q-2 -112 -57 -175q-48 -55 -122 -55q-79 0 -137 62q-62 66 -62 168v6l7 442l-28 -3l-7 100l206 -15l8 -65l-79 -8l-7 -457q-1 -11 -1 -21q0 -43 24 -74q27 -34 67 -34q36 0 60 31q27 35 28 99l7 378l-42 2l11 81l167 -27zM328 827l-49 -43l-138 87 l83 103z"/>
<glyph glyph-name="Uacute" horiz-adv-x="463" unicode="Ú" d="M466 626l-57 2l-7 -375q-2 -112 -57 -175q-48 -55 -122 -55q-79 0 -137 62q-62 66 -62 168v6l7 442l-28 -3l-7 100l206 -15l8 -65l-79 -8l-7 -457q-1 -11 -1 -21q0 -43 24 -74q27 -34 67 -34q36 0 60 31q27 35 28 99l7 378l-42 2l11 81l167 -27zM373 913l-138 -87l-49 43 l104 147z"/>
<glyph glyph-name="Ucircumflex" horiz-adv-x="463" unicode="Û" d="M466 626l-57 2l-7 -375q-2 -112 -57 -175q-48 -55 -122 -55q-79 0 -137 62q-62 66 -62 168v6l7 442l-28 -3l-7 100l206 -15l8 -65l-79 -8l-7 -457q-1 -11 -1 -21q0 -43 24 -74q27 -34 67 -34q36 0 60 31q27 35 28 99l7 378l-42 2l11 81l167 -27zM392 849l-86 -49l-49 95 l-50 -70l-58 21l111 120z"/>
<glyph glyph-name="Udieresis" horiz-adv-x="463" unicode="Ü" d="M466 626l-57 2l-7 -375q-2 -112 -57 -175q-48 -55 -122 -55q-79 0 -137 62q-62 66 -62 168v6l7 442l-28 -3l-7 100l206 -15l8 -65l-79 -8l-7 -457q-1 -11 -1 -21q0 -43 24 -74q27 -34 67 -34q36 0 60 31q27 35 28 99l7 378l-42 2l11 81l167 -27zM238 903q0 -24 -18.5 -41 t-45.5 -17q-26 0 -44.5 17t-18.5 41t18.5 41.5t44.5 17.5q27 0 45.5 -17.5t18.5 -41.5zM385 880q0 -23 -17 -39t-41 -16t-41.5 16t-17.5 39t17.5 39t41.5 16t41 -16t17 -39z"/>
<glyph glyph-name="Yacute" horiz-adv-x="661" unicode="Ý" d="M753 765l-60 -55l-30 19l-365 -323l-21 -318l54 -2l-17 -86l-181 26l-14 67l58 -2l21 327l-195 297l-56 -21l-16 77l197 40l17 -44l-46 -17l161 -244l315 278l-40 26l76 78zM429 905l-138 -87l-49 43l104 147z"/>
<glyph glyph-name="Thorn" horiz-adv-x="840" unicode="Þ" d="M255 319q-4 0 -13 10.5t-14 10.5q-7 0 -7 -24q0 -10 1 -24l-8 -10q-16 21 -16 48q0 9 2 17q5 24 26 24q10 0 21 -5q26 -16 26 -29q0 -6 -6 -12t-12 -6zM744 273l-1 -12l-25 -17l1 32q1 13 -24 22q2 -17 -16 -21q-7 -1 -18 0q-22 -31 -56 -31q-9 0 -29 4q-8 1 -18 -10.5 t-17 -11.5q-10 0 -23.5 15t-13.5 30q0 20 20 39l-9 -1l-35 -63q-7 -34 -32 -47q-14 -6 -14 -38q0 -44 19 -60l10 -8l-26 -1l-15 14q-21 19 -21 49q0 49 35 67q15 7 28 29l-33 53l-15 5q-8 -9 -19 -3q-11 5 -16 16l-14 5l-54 12q-26 62 -69 62q-4 0 -9 -1q-62 -9 -62 -49 q0 -8 2 -17q6 -27 11 -54q11 -32 39 -32q8 0 22.5 4t21.5 4q13 0 13 -10q0 -12 -20 -37q-23 -35 -23 -65q0 -42 46 -57q80 -24 159 -48q98 -33 122 -72q16 -25 41 -25q20 0 51 17t36 17q1 -1 17.5 -4t27.5 -3q50 0 50 55q0 72 -42 81q2 -6 2 -13q0 -33 -47 -42 q-31 -7 -71 -7q-124 0 -145 54q-5 12 -5 24q0 34 32 66q28 28 57 32q12 2 22 2q19 0 26 -7q30 24 48 24q19 0 46 -22q4 8 9 15q12 16 27 20.5t15 23.5q0 32 -35 52l-22 13q-26 12 -40 12q-13 0 -33 -7l-27 15l-13 18l-27 -3l7 -38l-22 -24v-1q1 -4 -15 -18q-14 -13 -14 -27 q0 -17 8 -17q7 0 23 17t23 17q3 0 16 -8t25 -6q34 4 37 35q1 4 -8 9t-9 8q0 10 22 10q21 0 31 -21l2 -1q55 -4 52 -39zM723 96q11 11 11 22q0 20 -32 36q-36 -38 -61 -38q-4 0 -8 1q-21 9 -46 9q-36 0 -72 -16l30 -16q43 -24 96 -24q56 0 82 26zM692 183q-3 33 -19 33 q-3 0 -5 -1q-22 -6 -35 -36q-14 18 -39 18q-9 0 -19 -3q-38 -10 -69 -72q45 21 80 21q12 0 25.5 -5t19.5 -5q31 0 61 50zM409 449q-14 -2 -22 5q3 -6 3 -13q0 -18 -21 -34q-15 -12 -15 -29q0 -11 7 -22l9 -4l37 44zM563 336l-30 46l3 54l-52 -15l-51 20l-2 -54l-35 -42 l51 -19l30 -46l33 43zM579 411l-18 20l-2 -27zM630 500l-44 40q-19 0 -37 -6q-45 -13 -81 -48q-13 -13 -25 -21l42 -17l79 22l-2 -20l49 19zM711 443l-38 9l-25 30l-20 -33l-37 -15l26 -29l2 -39l36 15l38 -10l-3 39zM820 2q-31 -61 -72 -61q-12 0 -36 4q-3 1 -6 1 q-15 0 -41 -12q-36 -15 -57 -15q-36 0 -70 36q-48 51 -134 73q-61 11 -122 23q-40 9 -77.5 46.5t-37.5 63.5q0 5 2 8q-34 14 -61 33q-64 46 -84 115.5t-20 142.5q0 166 96 266q109 113 320 113q20 0 42 -1q134 -7 196 -71q50 -50 50 -129q0 -42 -14 -81q-11 -34 -25 -46 q10 -10 27 -39l55 -13l-36 -55l3 -31q73 -44 73 -78q0 -20 -30 -49q-29 -28 -29 -45q0 -16 47.5 -72.5t47.5 -94.5q0 -17 -7 -32z"/>
<glyph glyph-name="germandbls" horiz-adv-x="430" unicode="ß" d="M127 -124l-22 -82l-154 30l8 60l41 -2l17 658q3 132 71 210q61 71 145 71q82 0 136 -66q56 -69 56 -184v-15q-4 -137 -94 -209q46 -33 71.5 -88.5t25.5 -115.5q0 -79 -41 -132q-46 -60 -128 -64h-8q-52 0 -84.5 36t-33.5 110l-16 2v28l155 33l-11 -65l-41 1q5 -44 48 -44 q24 0 41 22q19 26 20 74q0 69 -42.5 110t-108.5 44l2 100q73 0 112 52q33 45 33 115q0 61 -24.5 108t-61.5 48h-2q-61 0 -93 -63q-25 -49 -27 -119l-17 -662z"/>
<glyph glyph-name="agrave" d="M303 184q0 27 -38 43q-29 12 -59 12q-46 0 -74 -20q-24 -16 -24 -35q0 -18 24 -35q28 -19 74 -19q30 0 59 12q38 15 38 42zM451 -54l-160 16l-1 72l17 1v20q-46 -25 -99 -25q-70 0 -123 41q-57 45 -57 113t57 113q53 42 123 42q48 0 90 -21l-2 90q-1 4 -3 22 q-16 107 -71 107q-51 0 -71 -82l38 -8l-8 -54l-184 -6l21 97l36 -8q18 79 64 122q42 39 97 39q70 0 121 -59q56 -64 60 -166l11 -369l39 3zM297 703l-49 -43l-138 87l83 103z" unicode="à"/>
<glyph glyph-name="aacute" d="M303 184q0 27 -38 43q-29 12 -59 12q-46 0 -74 -20q-24 -16 -24 -35q0 -18 24 -35q28 -19 74 -19q30 0 59 12q38 15 38 42zM451 -54l-160 16l-1 72l17 1v20q-46 -25 -99 -25q-70 0 -123 41q-57 45 -57 113t57 113q53 42 123 42q48 0 90 -21l-2 90q-1 4 -3 22 q-16 107 -71 107q-51 0 -71 -82l38 -8l-8 -54l-184 -6l21 97l36 -8q18 79 64 122q42 39 97 39q70 0 121 -59q56 -64 60 -166l11 -369l39 3zM345 775l-138 -87l-49 43l104 147z" unicode="á"/>
<glyph glyph-name="acircumflex" d="M303 184q0 27 -38 43q-29 12 -59 12q-46 0 -74 -20q-24 -16 -24 -35q0 -18 24 -35q28 -19 74 -19q30 0 59 12q38 15 38 42zM451 -54l-160 16l-1 72l17 1v20q-46 -25 -99 -25q-70 0 -123 41q-57 45 -57 113t57 113q53 42 123 42q48 0 90 -21l-2 90q-1 4 -3 22 q-16 107 -71 107q-51 0 -71 -82l38 -8l-8 -54l-184 -6l21 97l36 -8q18 79 64 122q42 39 97 39q70 0 121 -59q56 -64 60 -166l11 -369l39 3zM355 723l-86 -49l-49 95l-50 -70l-58 21l111 120z" unicode="â"/>
<glyph glyph-name="atilde" d="M303 184q0 27 -38 43q-29 12 -59 12q-46 0 -74 -20q-24 -16 -24 -35q0 -18 24 -35q28 -19 74 -19q30 0 59 12q38 15 38 42zM451 -54l-160 16l-1 72l17 1v20q-46 -25 -99 -25q-70 0 -123 41q-57 45 -57 113t57 113q53 42 123 42q48 0 90 -21l-2 90q-1 4 -3 22 q-16 107 -71 107q-51 0 -71 -82l38 -8l-8 -54l-184 -6l21 97l36 -8q18 79 64 122q42 39 97 39q70 0 121 -59q56 -64 60 -166l11 -369l39 3zM336 780q17 -21 17 -41q0 -29 -41 -43q-15 -5 -26 -5q-22 0 -44.5 25.5t-43.5 25.5q-6 0 -13 -1q-49 -10 -49 -59q0 -11 2 -20 l-23 -6q-12 30 -12 59q0 59 55 74q14 4 27 4q29 0 53 -21q9 -7 32 -37q14 -17 23 -17h2q9 2 9 9q0 11 -24 31z" unicode="ã"/>
<glyph glyph-name="adieresis" d="M303 184q0 27 -38 43q-29 12 -59 12q-46 0 -74 -20q-24 -16 -24 -35q0 -18 24 -35q28 -19 74 -19q30 0 59 12q38 15 38 42zM451 -54l-160 16l-1 72l17 1v20q-46 -25 -99 -25q-70 0 -123 41q-57 45 -57 113t57 113q53 42 123 42q48 0 90 -21l-2 90q-1 4 -3 22 q-16 107 -71 107q-51 0 -71 -82l38 -8l-8 -54l-184 -6l21 97l36 -8q18 79 64 122q42 39 97 39q70 0 121 -59q56 -64 60 -166l11 -369l39 3zM235 763q0 -24 -18.5 -41t-45.5 -17q-26 0 -44.5 17t-18.5 41t18.5 41.5t44.5 17.5q27 0 45.5 -17.5t18.5 -41.5zM382 740 q0 -23 -17 -39t-41 -16t-41.5 16t-17.5 39t17.5 39t41.5 16t41 -16t17 -39z" unicode="ä"/>
<glyph glyph-name="aring" d="M303 184q0 27 -38 43q-29 12 -59 12q-46 0 -74 -20q-24 -16 -24 -35q0 -18 24 -35q28 -19 74 -19q30 0 59 12q38 15 38 42zM451 -54l-160 16l-1 72l17 1v20q-46 -25 -99 -25q-70 0 -123 41q-57 45 -57 113t57 113q53 42 123 42q48 0 90 -21l-2 90q-1 4 -3 22 q-16 107 -71 107q-51 0 -71 -82l38 -8l-8 -54l-184 -6l21 97l36 -8q18 79 64 122q42 39 97 39q70 0 121 -59q56 -64 60 -166l11 -369l39 3zM281 735q0 13 -14 21.5t-34 8.5q-21 0 -35 -8.5t-14 -21.5q0 -12 14 -20.5t35 -8.5q20 0 34 8.5t14 20.5zM319 722 q-4 -21 -25.5 -34.5t-51.5 -13.5q-36 0 -67 21q-32 21 -32 49q0 5 1 9q4 21 25.5 34t51.5 13q36 0 67 -20q32 -21 32 -49q0 -4 -1 -9z" unicode="å"/>
<glyph glyph-name="ae" horiz-adv-x="746" unicode="æ" d="M303 184q0 27 -38 43q-29 12 -59 12q-46 0 -74 -20q-24 -16 -24 -35q0 -18 24 -35q28 -19 74 -19q30 0 59 12q38 15 38 42zM651 342q-9 72 -31 132q-29 77 -63 77q-42 0 -70 -96q-19 -66 -23 -132zM748 262l-285 1q5 -241 94 -241q34 0 56 113h-34l-14 89l177 -33l-8 -58 h-20q-5 -34 -14 -64q-41 -147 -143 -147q-63 0 -107 42l1 -18l-160 16l-1 72l17 1v20q-46 -25 -99 -25q-70 0 -123 41q-57 45 -57 113t57 113q53 42 123 42q48 0 90 -21l-2 90q-1 4 -3 22q-16 107 -71 107q-51 0 -71 -82l38 -8l-8 -54l-184 -6l21 97l36 -8q18 79 64 122 q42 39 97 39q58 0 105 -43q51 -45 68 -121l1 5q49 173 168 173q177 0 191 -389z"/>
<glyph glyph-name="ccedilla" horiz-adv-x="425" unicode="ç" d="M447 270l-163 -28l11 85l28 1q-9 95 -48 155q-32 51 -64 51q-36 0 -72 -64q-42 -77 -42 -196q0 -118 42 -195q36 -64 72 -64q30 0 60 42l-24 16l20 27l157 -42l-51 -66l-18 11q-60 -88 -144 -88q-99 0 -160 117q-54 104 -54 242q0 139 54 242q61 118 160 118 q89 0 148 -94q52 -84 64 -207l18 1zM342 -220q-15 -59 -182 -67l16 67q36 -13 61 -13q30 0 30 18q0 25 -81 30l9 109l42 3l6 -86q101 -1 101 -49q0 -6 -2 -12z"/>
<glyph glyph-name="egrave" horiz-adv-x="391" unicode="è" d="M293 378q-9 72 -32 132q-28 78 -62 78q-43 0 -71 -97q-19 -66 -23 -132zM389 298l-284 1q5 -241 94 -241q34 0 55 113h-33l-15 89l178 -33l-8 -58h-20q-6 -34 -14 -63q-42 -148 -143 -148q-109 0 -159 123q-36 91 -36 229q0 29 1 56q6 49 26 148q50 174 168 174 q177 0 190 -390zM297 765l-49 -43l-138 87l83 103z"/>
<glyph glyph-name="eacute" horiz-adv-x="391" unicode="é" d="M293 378q-9 72 -32 132q-28 78 -62 78q-43 0 -71 -97q-19 -66 -23 -132zM389 298l-284 1q5 -241 94 -241q34 0 55 113h-33l-15 89l178 -33l-8 -58h-20q-6 -34 -14 -63q-42 -148 -143 -148q-109 0 -159 123q-36 91 -36 229q0 29 1 56q6 49 26 148q50 174 168 174 q177 0 190 -390zM325 823l-138 -87l-49 43l104 147z"/>
<glyph glyph-name="ecircumflex" horiz-adv-x="391" unicode="ê" d="M293 378q-9 72 -32 132q-28 78 -62 78q-43 0 -71 -97q-19 -66 -23 -132zM389 298l-284 1q5 -241 94 -241q34 0 55 113h-33l-15 89l178 -33l-8 -58h-20q-6 -34 -14 -63q-42 -148 -143 -148q-109 0 -159 123q-36 91 -36 229q0 29 1 56q6 49 26 148q50 174 168 174 q177 0 190 -390zM340 772l-86 -49l-49 95l-50 -70l-58 21l111 120z"/>
<glyph glyph-name="edieresis" horiz-adv-x="391" unicode="ë" d="M293 378q-9 72 -32 132q-28 78 -62 78q-43 0 -71 -97q-19 -66 -23 -132zM389 298l-284 1q5 -241 94 -241q34 0 55 113h-33l-15 89l178 -33l-8 -58h-20q-6 -34 -14 -63q-42 -148 -143 -148q-109 0 -159 123q-36 91 -36 229q0 29 1 56q6 49 26 148q50 174 168 174 q177 0 190 -390zM210 808q0 -24 -18.5 -41t-45.5 -17q-26 0 -44.5 17t-18.5 41t18.5 41.5t44.5 17.5q27 0 45.5 -17.5t18.5 -41.5zM357 785q0 -23 -17 -39t-41 -16t-41.5 16t-17.5 39t17.5 39t41.5 16t41 -16t17 -39z"/>
<glyph glyph-name="igrave" horiz-adv-x="202" unicode="ì" d="M202 -23l-175 -3l-3 78l34 -1l-9 466l-43 -13l14 65l131 13l-2 -35l9 -499l38 -1zM195 654l-49 -43l-138 87l83 103z"/>
<glyph glyph-name="iacute" horiz-adv-x="202" unicode="í" d="M202 -23l-175 -3l-3 78l34 -1l-9 466l-43 -13l14 65l131 13l-2 -35l9 -499l38 -1zM208 702l-139 -86l-49 43l104 147z"/>
<glyph glyph-name="icircumflex" horiz-adv-x="202" unicode="î" d="M202 -23l-175 -3l-3 78l34 -1l-9 466l-43 -13l14 65l131 13l-2 -35l9 -499l38 -1zM220 686l-86 -49l-50 95l-49 -70l-58 21l110 120z"/>
<glyph glyph-name="idieresis" horiz-adv-x="202" unicode="ï" d="M202 -23l-175 -3l-3 78l34 -1l-9 466l-43 -13l14 65l131 13l-2 -35l9 -499l38 -1zM78 713q0 -24 -18.5 -41t-44.5 -17q-27 0 -45.5 17t-18.5 41q0 25 18.5 42t45.5 17q26 0 44.5 -17t18.5 -42zM226 690q0 -22 -17.5 -38.5t-41.5 -16.5t-41 16.5t-17 38.5q0 23 17 39 t41 16t41.5 -16t17.5 -39z"/>
<glyph glyph-name="eth" horiz-adv-x="1438" unicode="ð" d="M401 279q0 -17 -30 -17t-30 17t30 17t30 -17zM717 291q0 -16 -20 -26q-16 -7 -34 -7t-34 7q-20 10 -20 26t20 26q16 7 34 7t34 -7q20 -10 20 -26zM1156 167q0 -18 -34 -28q-25 -8 -47 -8q-23 0 -48 8q-34 10 -34 28t34 29q24 7 48 7q23 0 47 -7q34 -11 34 -29zM1102 276 q-15 -10 -38 -10t-44 11q-23 13 -23 32v3q2 16 21 25q16 8 34 8q22 0 43 -11q23 -13 23 -32q0 -15 -16 -26zM1296 333q0 -32 -48 -46q-13 -4 -26 -4q-43 0 -43 27q0 33 49 47q13 4 25 4q43 0 43 -28zM309 203l-5 16h-7l1 91v6q0 27 -8 50q-12 34 -37 34q-24 0 -40 -22 q-11 25 -30 25h-1q-24 0 -40 -19v6l4 1l6 19l-53 1l4 -24h8l2 -153h-10v-31l53 11l-1 20h-12l-1 74q10 62 39 65q13 -16 14 -64l2 -67l-7 1l-8 -23l54 -3l-2 21l-6 1l-2 71q0 13 -1 23q10 36 28 36q7 -5 11 -24q3 -18 3 -30v-5l-1 -93l-11 -1l2 -19zM447 206l-1 30h-13 l-3 114q-1 26 -16 47.5t-40 21.5q-38 0 -50 -50l-11 3l-6 -30l56 2l3 17l-12 2q6 25 22 25q18 0 23 -33q0 -3 1 -7v-27q-13 6 -28 6q-22 0 -39 -13.5t-17 -34.5t17 -34t39 -13q16 0 30 7v-6h-4v-23zM585 204l-5 24h-9l1 117v7q0 74 -43 74q-24 0 -41 -18v7h6l2 21h-51l3 -24 h9l1 -173h-7l-3 -21l50 -4l-2 25h-7l-1 102q10 54 41 54q13 -9 13 -49l-2 -119h-6v-31zM768 247l-19 -4l-2 227h11l8 17l-60 13l-1 -28h11l1 -134q-23 17 -54 17t-53 -16q-26 -19 -26 -48q0 -30 26 -48q23 -16 53 -16q32 0 55 18v-9l-9 -3l2 -14h52zM831 215l-2 22h-12 l-2 165l-40 -4l-5 -20l14 4l2 -144h-10l1 -24zM968 204l-5 24h-9l1 117v7q0 74 -43 74q-24 0 -41 -18v7h6l2 21h-47q1 2 1 4q0 18 -27 26q-6 1 -13 1q-25 0 -25 -17q0 -18 27 -26q6 -2 12 -2q14 0 22 8l2 -18h9l1 -173h-7l-3 -21l50 -4l-2 25h-7l-1 102q10 54 41 54 q12 -8 12 -43v-6l-1 -119h-7l1 -31zM1177 167q0 33 -37 52q-29 15 -66 15q-36 0 -64 -14q-3 3 -3 6q0 8 12 17q13 -5 30 -7q8 -1 15 -1q29 0 51 13q32 18 32 54q0 27 -20 46q8 12 8 25q0 21 -20 32l7 10l-13 9l-36 -22l23 -28l3 4q5 -2 5 -6q0 -3 -2 -7q-24 11 -53 11 q-33 0 -56 -17q-26 -19 -26 -50q0 -30 25 -51q-8 -11 -8 -23q0 -14 9 -26q-22 -17 -22 -42q0 -33 37 -52q30 -15 66 -15t66 15q37 19 37 52zM1327 331q0 28 -23 46q-20 15 -49 15q-57 0 -89 -37q-17 -19 -17 -42q0 -29 21 -45t50 -16q58 0 90 36q17 20 17 43zM1427 331 q0 -61 -41 -107.5t-109 -64.5q-4 -74 -68 -119q-58 -40 -135 -40q-58 0 -109 25q-54 28 -78 75q-17 5 -30 16h-10q-7 -1 -14 -1l-54 -1q-18 0 -34 5h-34q-16 0 -34 8h-13.5h-15.5q-23 -18 -48 -22l-51 -8q-9 -1 -17 -1q-28 0 -51 15q-16 -5 -34 -5h-10q-20 2 -40.5 4 t-35.5 9q-22 -13 -41 -15l-52 -6q-5 -1 -11 -1q-33 0 -59 22l-8 1q-6 -2 -13 -4l-53 -11q-13 -3 -25 -3q-42 0 -69 28t-27 73v31q0 41 32 71q-20 17 -24 72q-17 21 -17 44q0 35 34 63q33 27 70 27h3h46q30 -2 47 -8q15 -1 29 -6q14 3 30 3q21 0 41 -6q36 25 80 25h15 q27 17 55 17q77 0 99 -11q35 -4 62 -22q5 41 30.5 69.5t66.5 28.5q12 0 26 -3l60 -13q32 -8 52 -25q24 -8 44 -24q23 -1 42 -11q52 -5 85 -43q6 4 11 7l36 21q16 9 42 9q46 0 77 -21q10 -6 17 -14q30 8 61 8q71 0 121.5 -45.5t50.5 -115.5z"/>
<glyph glyph-name="ntilde" horiz-adv-x="442" unicode="ñ" d="M442 -59l-164 -25l-2 100h20l6 384q0 50 -9 92q-10 51 -32 65q-49 0 -88 -62q-32 -51 -43 -112l2 -326l24 1l4 -84l-160 13l8 68l24 1l-3 558l-28 -2l-11 78l165 1l-7 -69l-19 -1v-22q54 58 132 58q80 0 117 -97q24 -64 24 -149v-13l-6 -380h29zM336 850q17 -21 17 -41 q0 -29 -41 -43q-15 -5 -26 -5q-22 0 -44.5 25.5t-43.5 25.5q-6 0 -13 -1q-49 -10 -49 -59q0 -11 2 -20l-23 -6q-12 30 -12 59q0 59 55 74q14 4 27 4q29 0 53 -21q9 -7 32 -37q14 -17 23 -17h2q9 2 9 9q0 11 -24 31z"/>
<glyph glyph-name="ograve" horiz-adv-x="578" unicode="ò" d="M338 447q-39 0 -81 -12q-76 -22 -119 -68q-39 -41 -39 -82q0 -43 52 -68q41 -20 89 -20q39 0 82 12q75 22 119 68q38 41 38 82q0 43 -52 68q-40 20 -89 20zM349 113q-61 -18 -116 -18q-106 0 -171 60q-61 56 -61 137q0 75 55 137q61 70 173 102q61 18 116 18 q106 0 171 -60q61 -56 61 -137q0 -75 -54 -138q-61 -69 -174 -101zM417 620l-49 -43l-138 87l83 103z"/>
<glyph glyph-name="oacute" horiz-adv-x="578" unicode="ó" d="M338 447q-39 0 -81 -12q-76 -22 -119 -68q-39 -41 -39 -82q0 -43 52 -68q41 -20 89 -20q39 0 82 12q75 22 119 68q38 41 38 82q0 43 -52 68q-40 20 -89 20zM349 113q-61 -18 -116 -18q-106 0 -171 60q-61 56 -61 137q0 75 55 137q61 70 173 102q61 18 116 18 q106 0 171 -60q61 -56 61 -137q0 -75 -54 -138q-61 -69 -174 -101zM448 687l-138 -87l-49 43l104 147z"/>
<glyph glyph-name="ocircumflex" horiz-adv-x="578" unicode="ô" d="M338 447q-39 0 -81 -12q-76 -22 -119 -68q-39 -41 -39 -82q0 -43 52 -68q41 -20 89 -20q39 0 82 12q75 22 119 68q38 41 38 82q0 43 -52 68q-40 20 -89 20zM349 113q-61 -18 -116 -18q-106 0 -171 60q-61 56 -61 137q0 75 55 137q61 70 173 102q61 18 116 18 q106 0 171 -60q61 -56 61 -137q0 -75 -54 -138q-61 -69 -174 -101zM457 646l-86 -49l-49 95l-50 -70l-58 21l111 120z"/>
<glyph glyph-name="otilde" horiz-adv-x="578" unicode="õ" d="M338 447q-39 0 -81 -12q-76 -22 -119 -68q-39 -41 -39 -82q0 -43 52 -68q41 -20 89 -20q39 0 82 12q75 22 119 68q38 41 38 82q0 43 -52 68q-40 20 -89 20zM349 113q-61 -18 -116 -18q-106 0 -171 60q-61 56 -61 137q0 75 55 137q61 70 173 102q61 18 116 18 q106 0 171 -60q61 -56 61 -137q0 -75 -54 -138q-61 -69 -174 -101zM416 710q17 -21 17 -41q0 -29 -41 -43q-15 -5 -26 -5q-22 0 -44.5 25.5t-43.5 25.5q-6 0 -13 -1q-49 -10 -49 -59q0 -11 2 -20l-23 -6q-12 30 -12 59q0 59 55 74q14 4 27 4q29 0 53 -21q9 -7 32 -37 q14 -17 23 -17h2q9 2 9 9q0 11 -24 31z"/>
<glyph glyph-name="odieresis" horiz-adv-x="578" unicode="ö" d="M338 447q-39 0 -81 -12q-76 -22 -119 -68q-39 -41 -39 -82q0 -43 52 -68q41 -20 89 -20q39 0 82 12q75 22 119 68q38 41 38 82q0 43 -52 68q-40 20 -89 20zM349 113q-61 -18 -116 -18q-106 0 -171 60q-61 56 -61 137q0 75 55 137q61 70 173 102q61 18 116 18 q106 0 171 -60q61 -56 61 -137q0 -75 -54 -138q-61 -69 -174 -101zM314 680q0 -24 -18.5 -41t-45.5 -17q-26 0 -44.5 17t-18.5 41t18.5 41.5t44.5 17.5q27 0 45.5 -17.5t18.5 -41.5zM461 657q0 -23 -17 -39t-41 -16t-41.5 16t-17.5 39t17.5 39t41.5 16t41 -16t17 -39z"/>
<glyph glyph-name="divide" horiz-adv-x="840" unicode="÷" d="M255 319q-4 0 -13 10.5t-14 10.5q-7 0 -7 -24q0 -10 1 -24l-8 -10q-16 21 -16 48q0 9 2 17q5 24 26 24q10 0 21 -5q26 -16 26 -29q0 -6 -6 -12t-12 -6zM744 273l-1 -12l-25 -17l1 32q1 13 -24 22q2 -17 -16 -21q-7 -1 -18 0q-22 -31 -56 -31q-9 0 -29 4q-8 1 -18 -10.5 t-17 -11.5q-10 0 -23.5 15t-13.5 30q0 20 20 39l-9 -1l-35 -63q-7 -34 -32 -47q-14 -6 -14 -38q0 -44 19 -60l10 -8l-26 -1l-15 14q-21 19 -21 49q0 49 35 67q15 7 28 29l-33 53l-15 5q-8 -9 -19 -3q-11 5 -16 16l-14 5l-54 12q-26 62 -69 62q-4 0 -9 -1q-62 -9 -62 -49 q0 -8 2 -17q6 -27 11 -54q11 -32 39 -32q8 0 22.5 4t21.5 4q13 0 13 -10q0 -12 -20 -37q-23 -35 -23 -65q0 -42 46 -57q80 -24 159 -48q98 -33 122 -72q16 -25 41 -25q20 0 51 17t36 17q1 -1 17.5 -4t27.5 -3q50 0 50 55q0 72 -42 81q2 -6 2 -13q0 -33 -47 -42 q-31 -7 -71 -7q-124 0 -145 54q-5 12 -5 24q0 34 32 66q28 28 57 32q12 2 22 2q19 0 26 -7q30 24 48 24q19 0 46 -22q4 8 9 15q12 16 27 20.5t15 23.5q0 32 -35 52l-22 13q-26 12 -40 12q-13 0 -33 -7l-27 15l-13 18l-27 -3l7 -38l-22 -24v-1q1 -4 -15 -18q-14 -13 -14 -27 q0 -17 8 -17q7 0 23 17t23 17q3 0 16 -8t25 -6q34 4 37 35q1 4 -8 9t-9 8q0 10 22 10q21 0 31 -21l2 -1q55 -4 52 -39zM723 96q11 11 11 22q0 20 -32 36q-36 -38 -61 -38q-4 0 -8 1q-21 9 -46 9q-36 0 -72 -16l30 -16q43 -24 96 -24q56 0 82 26zM692 183q-3 33 -19 33 q-3 0 -5 -1q-22 -6 -35 -36q-14 18 -39 18q-9 0 -19 -3q-38 -10 -69 -72q45 21 80 21q12 0 25.5 -5t19.5 -5q31 0 61 50zM409 449q-14 -2 -22 5q3 -6 3 -13q0 -18 -21 -34q-15 -12 -15 -29q0 -11 7 -22l9 -4l37 44zM563 336l-30 46l3 54l-52 -15l-51 20l-2 -54l-35 -42 l51 -19l30 -46l33 43zM579 411l-18 20l-2 -27zM630 500l-44 40q-19 0 -37 -6q-45 -13 -81 -48q-13 -13 -25 -21l42 -17l79 22l-2 -20l49 19zM711 443l-38 9l-25 30l-20 -33l-37 -15l26 -29l2 -39l36 15l38 -10l-3 39zM820 2q-31 -61 -72 -61q-12 0 -36 4q-3 1 -6 1 q-15 0 -41 -12q-36 -15 -57 -15q-36 0 -70 36q-48 51 -134 73q-61 11 -122 23q-40 9 -77.5 46.5t-37.5 63.5q0 5 2 8q-34 14 -61 33q-64 46 -84 115.5t-20 142.5q0 166 96 266q109 113 320 113q20 0 42 -1q134 -7 196 -71q50 -50 50 -129q0 -42 -14 -81q-11 -34 -25 -46 q10 -10 27 -39l55 -13l-36 -55l3 -31q73 -44 73 -78q0 -20 -30 -49q-29 -28 -29 -45q0 -16 47.5 -72.5t47.5 -94.5q0 -17 -7 -32z"/>
<glyph glyph-name="oslash" horiz-adv-x="636" unicode="ø" d="M478 421l-285 -196q25 -19 54 -34q62 -30 123 -30q66 0 112 33q51 37 51 99q0 68 -55 128zM128 301l265 183l-2 1q-62 30 -123 30q-66 0 -112 -33q-51 -36 -51 -99q0 -41 23 -82zM434 575q100 -49 152 -124q46 -69 46 -147q0 -100 -70 -171q-74 -75 -187 -75 q-83 0 -171 43q-100 49 -152 125q-46 68 -46 146q0 101 70 172q74 74 187 74q83 0 171 -43z"/>
<glyph glyph-name="ugrave" horiz-adv-x="463" unicode="ù" d="M466 376l-57 2l-7 -235q-3 -112 -58 -174q-50 -56 -123 -56q-79 0 -137 62q-60 65 -60 164v10l7 302l-28 -3l-7 100l206 -15l8 -65l-79 -8l-7 -317q-1 -11 -1 -21q0 -43 24 -74q27 -34 66 -34q36 0 60 31q27 35 29 99l7 238l-42 2l11 81l167 -27zM321 611l-49 -43 l-138 87l83 103z"/>
<glyph glyph-name="uacute" horiz-adv-x="463" unicode="ú" d="M466 376l-57 2l-7 -235q-3 -112 -58 -174q-50 -56 -123 -56q-79 0 -137 62q-60 65 -60 164v10l7 302l-28 -3l-7 100l206 -15l8 -65l-79 -8l-7 -317q-1 -11 -1 -21q0 -43 24 -74q27 -34 66 -34q36 0 60 31q27 35 29 99l7 238l-42 2l11 81l167 -27zM385 665l-138 -87 l-49 43l104 147z"/>
<glyph glyph-name="ucircumflex" horiz-adv-x="463" unicode="û" d="M466 376l-57 2l-7 -235q-3 -112 -58 -174q-50 -56 -123 -56q-79 0 -137 62q-60 65 -60 164v10l7 302l-28 -3l-7 100l206 -15l8 -65l-79 -8l-7 -317q-1 -11 -1 -21q0 -43 24 -74q27 -34 66 -34q36 0 60 31q27 35 29 99l7 238l-42 2l11 81l167 -27zM398 624l-86 -49l-49 95 l-50 -70l-58 21l111 120z"/>
<glyph glyph-name="udieresis" horiz-adv-x="463" unicode="ü" d="M466 376l-57 2l-7 -235q-3 -112 -58 -174q-50 -56 -123 -56q-79 0 -137 62q-60 65 -60 164v10l7 302l-28 -3l-7 100l206 -15l8 -65l-79 -8l-7 -317q-1 -11 -1 -21q0 -43 24 -74q27 -34 66 -34q36 0 60 31q27 35 29 99l7 238l-42 2l11 81l167 -27zM243 676 q0 -24 -18.5 -41t-45.5 -17q-26 0 -44.5 17t-18.5 41t18.5 41.5t44.5 17.5q27 0 45.5 -17.5t18.5 -41.5zM390 653q0 -23 -17 -39t-41 -16t-41.5 16t-17.5 39t17.5 39t41.5 16t41 -16t17 -39z"/>
<glyph glyph-name="yacute" horiz-adv-x="443" unicode="ý" d="M456 738l-5 -75l-34 1l-39 -792q-2 -11 -5 -29q-16 -61 -56 -97q-43 -38 -104 -38q-12 0 -25 2q-79 9 -115 68q-26 42 -26 99v8l-22 4l1 85l147 -55v-52l-27 4q5 -31 24 -48t43 -17q26 0 45 19.5t20 54.5l8 259q-50 -32 -110 -32q-153 0 -160 299l-7 242l-30 3l22 94 l146 -38l9 -73l-46 4l6 -233q5 -198 60 -198q72 0 119 80l22 380l-27 1l23 56zM362 818l-138 -87l-49 43l104 147z"/>
<glyph glyph-name="thorn" horiz-adv-x="1438" unicode="þ" d="M401 279q0 -17 -30 -17t-30 17t30 17t30 -17zM717 291q0 -16 -20 -26q-16 -7 -34 -7t-34 7q-20 10 -20 26t20 26q16 7 34 7t34 -7q20 -10 20 -26zM1156 167q0 -18 -34 -28q-25 -8 -47 -8q-23 0 -48 8q-34 10 -34 28t34 29q24 7 48 7q23 0 47 -7q34 -11 34 -29zM1102 276 q-15 -10 -38 -10t-44 11q-23 13 -23 32v3q2 16 21 25q16 8 34 8q22 0 43 -11q23 -13 23 -32q0 -15 -16 -26zM1296 333q0 -32 -48 -46q-13 -4 -26 -4q-43 0 -43 27q0 33 49 47q13 4 25 4q43 0 43 -28zM309 203l-5 16h-7l1 91v6q0 27 -8 50q-12 34 -37 34q-24 0 -40 -22 q-11 25 -30 25h-1q-24 0 -40 -19v6l4 1l6 19l-53 1l4 -24h8l2 -153h-10v-31l53 11l-1 20h-12l-1 74q10 62 39 65q13 -16 14 -64l2 -67l-7 1l-8 -23l54 -3l-2 21l-6 1l-2 71q0 13 -1 23q10 36 28 36q7 -5 11 -24q3 -18 3 -30v-5l-1 -93l-11 -1l2 -19zM447 206l-1 30h-13 l-3 114q-1 26 -16 47.5t-40 21.5q-38 0 -50 -50l-11 3l-6 -30l56 2l3 17l-12 2q6 25 22 25q18 0 23 -33q0 -3 1 -7v-27q-13 6 -28 6q-22 0 -39 -13.5t-17 -34.5t17 -34t39 -13q16 0 30 7v-6h-4v-23zM585 204l-5 24h-9l1 117v7q0 74 -43 74q-24 0 -41 -18v7h6l2 21h-51l3 -24 h9l1 -173h-7l-3 -21l50 -4l-2 25h-7l-1 102q10 54 41 54q13 -9 13 -49l-2 -119h-6v-31zM768 247l-19 -4l-2 227h11l8 17l-60 13l-1 -28h11l1 -134q-23 17 -54 17t-53 -16q-26 -19 -26 -48q0 -30 26 -48q23 -16 53 -16q32 0 55 18v-9l-9 -3l2 -14h52zM831 215l-2 22h-12 l-2 165l-40 -4l-5 -20l14 4l2 -144h-10l1 -24zM968 204l-5 24h-9l1 117v7q0 74 -43 74q-24 0 -41 -18v7h6l2 21h-47q1 2 1 4q0 18 -27 26q-6 1 -13 1q-25 0 -25 -17q0 -18 27 -26q6 -2 12 -2q14 0 22 8l2 -18h9l1 -173h-7l-3 -21l50 -4l-2 25h-7l-1 102q10 54 41 54 q12 -8 12 -43v-6l-1 -119h-7l1 -31zM1177 167q0 33 -37 52q-29 15 -66 15q-36 0 -64 -14q-3 3 -3 6q0 8 12 17q13 -5 30 -7q8 -1 15 -1q29 0 51 13q32 18 32 54q0 27 -20 46q8 12 8 25q0 21 -20 32l7 10l-13 9l-36 -22l23 -28l3 4q5 -2 5 -6q0 -3 -2 -7q-24 11 -53 11 q-33 0 -56 -17q-26 -19 -26 -50q0 -30 25 -51q-8 -11 -8 -23q0 -14 9 -26q-22 -17 -22 -42q0 -33 37 -52q30 -15 66 -15t66 15q37 19 37 52zM1327 331q0 28 -23 46q-20 15 -49 15q-57 0 -89 -37q-17 -19 -17 -42q0 -29 21 -45t50 -16q58 0 90 36q17 20 17 43zM1427 331 q0 -61 -41 -107.5t-109 -64.5q-4 -74 -68 -119q-58 -40 -135 -40q-58 0 -109 25q-54 28 -78 75q-17 5 -30 16h-10q-7 -1 -14 -1l-54 -1q-18 0 -34 5h-34q-16 0 -34 8h-13.5h-15.5q-23 -18 -48 -22l-51 -8q-9 -1 -17 -1q-28 0 -51 15q-16 -5 -34 -5h-10q-20 2 -40.5 4 t-35.5 9q-22 -13 -41 -15l-52 -6q-5 -1 -11 -1q-33 0 -59 22l-8 1q-6 -2 -13 -4l-53 -11q-13 -3 -25 -3q-42 0 -69 28t-27 73v31q0 41 32 71q-20 17 -24 72q-17 21 -17 44q0 35 34 63q33 27 70 27h3h46q30 -2 47 -8q15 -1 29 -6q14 3 30 3q21 0 41 -6q36 25 80 25h15 q27 17 55 17q77 0 99 -11q35 -4 62 -22q5 41 30.5 69.5t66.5 28.5q12 0 26 -3l60 -13q32 -8 52 -25q24 -8 44 -24q23 -1 42 -11q52 -5 85 -43q6 4 11 7l36 21q16 9 42 9q46 0 77 -21q10 -6 17 -14q30 8 61 8q71 0 121.5 -45.5t50.5 -115.5z"/>
<glyph glyph-name="OE" horiz-adv-x="1232" unicode="Œ" d="M618 317q0 62 -54 121q-59 64 -159 93q-54 15 -105 15q-75 0 -134 -33q-71 -40 -71 -109q0 -62 54 -121q60 -64 159 -93q54 -15 105 -15q75 0 134 33q71 40 71 109zM1304 55l-92 -66l-8 55l-543 -52l-3 177q-84 -96 -235 -96q-68 0 -143 21q-140 40 -215 128 q-68 78 -68 173q0 104 77 176q83 77 216 77q68 0 143 -21q143 -41 219 -132l-4 195l493 -34v43l94 -20l-36 -163l-58 19v21l-391 26l4 -191l318 10l1 25l66 -18l-21 -133l-52 7l1 18l-311 -9l3 -189l431 41l-5 34l64 23z"/>
<glyph glyph-name="oe" horiz-adv-x="888" unicode="œ" d="M338 447q-39 0 -81 -12q-76 -22 -119 -68q-39 -41 -39 -82q0 -43 52 -68q41 -20 89 -20q39 0 82 12q75 22 119 68q38 41 38 82q0 43 -52 68q-40 20 -89 20zM790 409q-9 72 -31 132q-29 77 -63 77q-42 0 -70 -96q-19 -66 -23 -132zM887 329l-285 1q5 -241 94 -241 q34 0 56 113h-34l-14 89l177 -33l-8 -58h-20q-5 -34 -14 -64q-41 -147 -143 -147q-145 0 -184 215q-60 -62 -163 -91q-61 -18 -116 -18q-106 0 -171 60q-61 56 -61 137q0 75 55 138q61 69 173 101q61 18 116 18q105 0 170 -59q6 29 13 55q50 173 168 173q177 0 191 -389z "/>
<glyph glyph-name="Scaron" horiz-adv-x="524" unicode="Š" d="M585 476l-45 -55l-147 45l23 33l22 -3v1q-5 81 -114 81q-52 0 -102.5 -19.5t-64.5 -43.5q-2 -5 -2 -12q0 -52 134 -120q223 -115 223 -233q0 -80 -96 -136q-91 -52 -202 -52q-91 0 -147 39q-64 44 -64 128q0 27 7 58l1 6l-29 3l16 73l198 -44l-37 -50l-48 6 q-7 -22 -7 -42q0 -78 129 -80h7q73 1 119 21q48 22 48 58q0 72 -164 156q-193 98 -193 206q0 74 88 127q83 50 186 50q88 0 144 -40q64 -46 69 -133q1 -11 1 -21zM253 794l76 4q5 -52 44 -53h2q23 0 23 19q0 10 -5 22l41 17q14 -21 14 -41q0 -46 -79 -48h-10q-104 0 -106 80 z"/>
<glyph glyph-name="scaron" horiz-adv-x="483" unicode="š" d="M480 475l-9 -64l-154 3l15 69l20 -1q-15 91 -98 91q-49 0 -102 -41.5t-53 -85.5q0 -65 127 -90q114 -21 172 -78q51 -49 51 -116q0 -80 -65 -146t-148 -66q-80 0 -139 61q-53 55 -71 136l-24 -6l-1 93l165 11l12 -60l-54 -13q29 -122 112 -122q36 0 74.5 34.5t38.5 73.5 q0 73 -142 100q-107 21 -161 72q-47 46 -47 110q0 86 78 159.5t177 73.5q87 0 142 -59q52 -55 58 -138zM168 785l76 4q5 -52 44 -53h2q23 0 23 19q0 10 -5 22l41 17q14 -21 14 -41q0 -46 -79 -48h-10q-104 0 -106 80z"/>
<glyph glyph-name="Ydieresis" horiz-adv-x="661" unicode="Ÿ" d="M753 765l-60 -55l-30 19l-365 -323l-21 -318l54 -2l-17 -86l-181 26l-14 67l58 -2l21 327l-195 297l-56 -21l-16 77l197 40l17 -44l-46 -17l161 -244l315 278l-40 26l76 78zM318 906q0 -24 -18.5 -41t-45.5 -17q-26 0 -44.5 17t-18.5 41t18.5 41.5t44.5 17.5 q27 0 45.5 -17.5t18.5 -41.5zM465 883q0 -23 -17 -39t-41 -16t-41.5 16t-17.5 39t17.5 39t41.5 16t41 -16t17 -39z"/>
<glyph glyph-name="circumflex" d="M352 849l-86 -49l-49 95l-50 -70l-58 21l111 120z" unicode="ˆ"/>
<glyph glyph-name="caron" horiz-adv-x="446" unicode="ˇ" d="M138 746l76 4q5 -52 44 -53h2q23 0 23 19q0 10 -5 22l41 17q14 -21 14 -41q0 -46 -79 -48h-10q-104 0 -106 80z"/>
<glyph glyph-name="ring" d="M281 735q0 13 -14 21.5t-34 8.5q-21 0 -35 -8.5t-14 -21.5q0 -12 14 -20.5t35 -8.5q20 0 34 8.5t14 20.5zM319 722q-4 -21 -25.5 -34.5t-51.5 -13.5q-36 0 -67 21q-32 21 -32 49q0 5 1 9q4 21 25.5 34t51.5 13q36 0 67 -20q32 -21 32 -49q0 -4 -1 -9z" unicode="˚"/>
<glyph glyph-name="tilde" d="M336 780q17 -21 17 -41q0 -29 -41 -43q-15 -5 -26 -5q-22 0 -44.5 25.5t-43.5 25.5q-6 0 -13 -1q-49 -10 -49 -59q0 -11 2 -20l-23 -6q-12 30 -12 59q0 59 55 74q14 4 27 4q29 0 53 -21q9 -7 32 -37q14 -17 23 -17h2q9 2 9 9q0 11 -24 31z" unicode="˜"/>
<glyph glyph-name="pi" horiz-adv-x="840" unicode="π" d="M255 319q-4 0 -13 10.5t-14 10.5q-7 0 -7 -24q0 -10 1 -24l-8 -10q-16 21 -16 48q0 9 2 17q5 24 26 24q10 0 21 -5q26 -16 26 -29q0 -6 -6 -12t-12 -6zM744 273l-1 -12l-25 -17l1 32q1 13 -24 22q2 -17 -16 -21q-7 -1 -18 0q-22 -31 -56 -31q-9 0 -29 4q-8 1 -18 -10.5 t-17 -11.5q-10 0 -23.5 15t-13.5 30q0 20 20 39l-9 -1l-35 -63q-7 -34 -32 -47q-14 -6 -14 -38q0 -44 19 -60l10 -8l-26 -1l-15 14q-21 19 -21 49q0 49 35 67q15 7 28 29l-33 53l-15 5q-8 -9 -19 -3q-11 5 -16 16l-14 5l-54 12q-26 62 -69 62q-4 0 -9 -1q-62 -9 -62 -49 q0 -8 2 -17q6 -27 11 -54q11 -32 39 -32q8 0 22.5 4t21.5 4q13 0 13 -10q0 -12 -20 -37q-23 -35 -23 -65q0 -42 46 -57q80 -24 159 -48q98 -33 122 -72q16 -25 41 -25q20 0 51 17t36 17q1 -1 17.5 -4t27.5 -3q50 0 50 55q0 72 -42 81q2 -6 2 -13q0 -33 -47 -42 q-31 -7 -71 -7q-124 0 -145 54q-5 12 -5 24q0 34 32 66q28 28 57 32q12 2 22 2q19 0 26 -7q30 24 48 24q19 0 46 -22q4 8 9 15q12 16 27 20.5t15 23.5q0 32 -35 52l-22 13q-26 12 -40 12q-13 0 -33 -7l-27 15l-13 18l-27 -3l7 -38l-22 -24v-1q1 -4 -15 -18q-14 -13 -14 -27 q0 -17 8 -17q7 0 23 17t23 17q3 0 16 -8t25 -6q34 4 37 35q1 4 -8 9t-9 8q0 10 22 10q21 0 31 -21l2 -1q55 -4 52 -39zM723 96q11 11 11 22q0 20 -32 36q-36 -38 -61 -38q-4 0 -8 1q-21 9 -46 9q-36 0 -72 -16l30 -16q43 -24 96 -24q56 0 82 26zM692 183q-3 33 -19 33 q-3 0 -5 -1q-22 -6 -35 -36q-14 18 -39 18q-9 0 -19 -3q-38 -10 -69 -72q45 21 80 21q12 0 25.5 -5t19.5 -5q31 0 61 50zM409 449q-14 -2 -22 5q3 -6 3 -13q0 -18 -21 -34q-15 -12 -15 -29q0 -11 7 -22l9 -4l37 44zM563 336l-30 46l3 54l-52 -15l-51 20l-2 -54l-35 -42 l51 -19l30 -46l33 43zM579 411l-18 20l-2 -27zM630 500l-44 40q-19 0 -37 -6q-45 -13 -81 -48q-13 -13 -25 -21l42 -17l79 22l-2 -20l49 19zM711 443l-38 9l-25 30l-20 -33l-37 -15l26 -29l2 -39l36 15l38 -10l-3 39zM820 2q-31 -61 -72 -61q-12 0 -36 4q-3 1 -6 1 q-15 0 -41 -12q-36 -15 -57 -15q-36 0 -70 36q-48 51 -134 73q-61 11 -122 23q-40 9 -77.5 46.5t-37.5 63.5q0 5 2 8q-34 14 -61 33q-64 46 -84 115.5t-20 142.5q0 166 96 266q109 113 320 113q20 0 42 -1q134 -7 196 -71q50 -50 50 -129q0 -42 -14 -81q-11 -34 -25 -46 q10 -10 27 -39l55 -13l-36 -55l3 -31q73 -44 73 -78q0 -20 -30 -49q-29 -28 -29 -45q0 -16 47.5 -72.5t47.5 -94.5q0 -17 -7 -32z"/>
<glyph glyph-name="endash" horiz-adv-x="220" unicode="–" d="M0 432q0 38 32 64t77 26t76.5 -26t31.5 -64q0 -37 -31.5 -63.5t-76.5 -26.5t-77 26.5t-32 63.5z"/>
<glyph glyph-name="emdash" horiz-adv-x="220" unicode="—" d="M0 432q0 38 32 64t77 26t76.5 -26t31.5 -64q0 -37 -31.5 -63.5t-76.5 -26.5t-77 26.5t-32 63.5z"/>
<glyph glyph-name="quoteleft" horiz-adv-x="229" unicode="‘" d="M229 666q0 -109 -59 -149q-25 -16 -59 -17l-4 38q49 4 49 48q0 19 -9 46q-19 -5 -39 -5q-40 0 -69.5 20.5t-33.5 52.5q-1 6 -1 11q0 37 36 63q36 27 82 27q40 0 69.5 -21t33.5 -53t4 -61z"/>
<glyph glyph-name="quotesinglbase" horiz-adv-x="229" unicode="‚" d="M227 53q0 -109 -59 -149q-25 -16 -59 -17l-4 38q49 3 49 48q0 19 -9 46q-19 -5 -39 -5q-40 0 -69.5 20.5t-33.5 52.5q-1 5 -1 10q0 38 36 64q37 27 82 27q40 0 69.5 -21t33.5 -53t4 -61z"/>
<glyph glyph-name="quotedblleft" horiz-adv-x="410" unicode="“" d="M372.5 762.5q29.5 -20.5 33.5 -53t4 -61.5q0 -109 -59 -148q-25 -17 -59 -18l-4 38q49 4 49 48q0 20 -10 46q-18 -5 -38 -5q-40 0 -69.5 21t-33.5 53q-1 5 -1 11q0 36 36 63q36 26 82 26q40 0 69.5 -20.5zM3 700q-1 5 -1 9q0 38 37 65q36 27 81 27q54 0 85 -33 q-40 -35 -40 -77q0 -6 1 -11q5 -45 57 -72q-15 -72 -66 -97q-21 -11 -48 -11l-3 38q49 4 49 48q0 19 -10 46q-19 -5 -38 -5q-41 0 -70.5 20.5t-33.5 52.5z"/>
<glyph glyph-name="quotedblright" horiz-adv-x="410" unicode="”" d="M372.5 762.5q29.5 -20.5 33.5 -53t4 -61.5q0 -109 -59 -148q-25 -17 -59 -18l-4 38q49 4 49 48q0 20 -10 46q-18 -5 -38 -5q-40 0 -69.5 21t-33.5 53q-1 5 -1 11q0 36 36 63q36 26 82 26q40 0 69.5 -20.5zM3 700q-1 5 -1 9q0 38 37 65q36 27 81 27q54 0 85 -33 q-40 -35 -40 -77q0 -6 1 -11q5 -45 57 -72q-15 -72 -66 -97q-21 -11 -48 -11l-3 38q49 4 49 48q0 19 -10 46q-19 -5 -38 -5q-41 0 -70.5 20.5t-33.5 52.5z"/>
<glyph glyph-name="dagger" horiz-adv-x="1438" unicode="†" d="M401 279q0 -17 -30 -17t-30 17t30 17t30 -17zM717 291q0 -16 -20 -26q-16 -7 -34 -7t-34 7q-20 10 -20 26t20 26q16 7 34 7t34 -7q20 -10 20 -26zM1156 167q0 -18 -34 -28q-25 -8 -47 -8q-23 0 -48 8q-34 10 -34 28t34 29q24 7 48 7q23 0 47 -7q34 -11 34 -29zM1102 276 q-15 -10 -38 -10t-44 11q-23 13 -23 32v3q2 16 21 25q16 8 34 8q22 0 43 -11q23 -13 23 -32q0 -15 -16 -26zM1296 333q0 -32 -48 -46q-13 -4 -26 -4q-43 0 -43 27q0 33 49 47q13 4 25 4q43 0 43 -28zM309 203l-5 16h-7l1 91v6q0 27 -8 50q-12 34 -37 34q-24 0 -40 -22 q-11 25 -30 25h-1q-24 0 -40 -19v6l4 1l6 19l-53 1l4 -24h8l2 -153h-10v-31l53 11l-1 20h-12l-1 74q10 62 39 65q13 -16 14 -64l2 -67l-7 1l-8 -23l54 -3l-2 21l-6 1l-2 71q0 13 -1 23q10 36 28 36q7 -5 11 -24q3 -18 3 -30v-5l-1 -93l-11 -1l2 -19zM447 206l-1 30h-13 l-3 114q-1 26 -16 47.5t-40 21.5q-38 0 -50 -50l-11 3l-6 -30l56 2l3 17l-12 2q6 25 22 25q18 0 23 -33q0 -3 1 -7v-27q-13 6 -28 6q-22 0 -39 -13.5t-17 -34.5t17 -34t39 -13q16 0 30 7v-6h-4v-23zM585 204l-5 24h-9l1 117v7q0 74 -43 74q-24 0 -41 -18v7h6l2 21h-51l3 -24 h9l1 -173h-7l-3 -21l50 -4l-2 25h-7l-1 102q10 54 41 54q13 -9 13 -49l-2 -119h-6v-31zM768 247l-19 -4l-2 227h11l8 17l-60 13l-1 -28h11l1 -134q-23 17 -54 17t-53 -16q-26 -19 -26 -48q0 -30 26 -48q23 -16 53 -16q32 0 55 18v-9l-9 -3l2 -14h52zM831 215l-2 22h-12 l-2 165l-40 -4l-5 -20l14 4l2 -144h-10l1 -24zM968 204l-5 24h-9l1 117v7q0 74 -43 74q-24 0 -41 -18v7h6l2 21h-47q1 2 1 4q0 18 -27 26q-6 1 -13 1q-25 0 -25 -17q0 -18 27 -26q6 -2 12 -2q14 0 22 8l2 -18h9l1 -173h-7l-3 -21l50 -4l-2 25h-7l-1 102q10 54 41 54 q12 -8 12 -43v-6l-1 -119h-7l1 -31zM1177 167q0 33 -37 52q-29 15 -66 15q-36 0 -64 -14q-3 3 -3 6q0 8 12 17q13 -5 30 -7q8 -1 15 -1q29 0 51 13q32 18 32 54q0 27 -20 46q8 12 8 25q0 21 -20 32l7 10l-13 9l-36 -22l23 -28l3 4q5 -2 5 -6q0 -3 -2 -7q-24 11 -53 11 q-33 0 -56 -17q-26 -19 -26 -50q0 -30 25 -51q-8 -11 -8 -23q0 -14 9 -26q-22 -17 -22 -42q0 -33 37 -52q30 -15 66 -15t66 15q37 19 37 52zM1327 331q0 28 -23 46q-20 15 -49 15q-57 0 -89 -37q-17 -19 -17 -42q0 -29 21 -45t50 -16q58 0 90 36q17 20 17 43zM1427 331 q0 -61 -41 -107.5t-109 -64.5q-4 -74 -68 -119q-58 -40 -135 -40q-58 0 -109 25q-54 28 -78 75q-17 5 -30 16h-10q-7 -1 -14 -1l-54 -1q-18 0 -34 5h-34q-16 0 -34 8h-13.5h-15.5q-23 -18 -48 -22l-51 -8q-9 -1 -17 -1q-28 0 -51 15q-16 -5 -34 -5h-10q-20 2 -40.5 4 t-35.5 9q-22 -13 -41 -15l-52 -6q-5 -1 -11 -1q-33 0 -59 22l-8 1q-6 -2 -13 -4l-53 -11q-13 -3 -25 -3q-42 0 -69 28t-27 73v31q0 41 32 71q-20 17 -24 72q-17 21 -17 44q0 35 34 63q33 27 70 27h3h46q30 -2 47 -8q15 -1 29 -6q14 3 30 3q21 0 41 -6q36 25 80 25h15 q27 17 55 17q77 0 99 -11q35 -4 62 -22q5 41 30.5 69.5t66.5 28.5q12 0 26 -3l60 -13q32 -8 52 -25q24 -8 44 -24q23 -1 42 -11q52 -5 85 -43q6 4 11 7l36 21q16 9 42 9q46 0 77 -21q10 -6 17 -14q30 8 61 8q71 0 121.5 -45.5t50.5 -115.5z"/>
<glyph glyph-name="daggerdbl" horiz-adv-x="840" unicode="‡" d="M255 319q-4 0 -13 10.5t-14 10.5q-7 0 -7 -24q0 -10 1 -24l-8 -10q-16 21 -16 48q0 9 2 17q5 24 26 24q10 0 21 -5q26 -16 26 -29q0 -6 -6 -12t-12 -6zM744 273l-1 -12l-25 -17l1 32q1 13 -24 22q2 -17 -16 -21q-7 -1 -18 0q-22 -31 -56 -31q-9 0 -29 4q-8 1 -18 -10.5 t-17 -11.5q-10 0 -23.5 15t-13.5 30q0 20 20 39l-9 -1l-35 -63q-7 -34 -32 -47q-14 -6 -14 -38q0 -44 19 -60l10 -8l-26 -1l-15 14q-21 19 -21 49q0 49 35 67q15 7 28 29l-33 53l-15 5q-8 -9 -19 -3q-11 5 -16 16l-14 5l-54 12q-26 62 -69 62q-4 0 -9 -1q-62 -9 -62 -49 q0 -8 2 -17q6 -27 11 -54q11 -32 39 -32q8 0 22.5 4t21.5 4q13 0 13 -10q0 -12 -20 -37q-23 -35 -23 -65q0 -42 46 -57q80 -24 159 -48q98 -33 122 -72q16 -25 41 -25q20 0 51 17t36 17q1 -1 17.5 -4t27.5 -3q50 0 50 55q0 72 -42 81q2 -6 2 -13q0 -33 -47 -42 q-31 -7 -71 -7q-124 0 -145 54q-5 12 -5 24q0 34 32 66q28 28 57 32q12 2 22 2q19 0 26 -7q30 24 48 24q19 0 46 -22q4 8 9 15q12 16 27 20.5t15 23.5q0 32 -35 52l-22 13q-26 12 -40 12q-13 0 -33 -7l-27 15l-13 18l-27 -3l7 -38l-22 -24v-1q1 -4 -15 -18q-14 -13 -14 -27 q0 -17 8 -17q7 0 23 17t23 17q3 0 16 -8t25 -6q34 4 37 35q1 4 -8 9t-9 8q0 10 22 10q21 0 31 -21l2 -1q55 -4 52 -39zM723 96q11 11 11 22q0 20 -32 36q-36 -38 -61 -38q-4 0 -8 1q-21 9 -46 9q-36 0 -72 -16l30 -16q43 -24 96 -24q56 0 82 26zM692 183q-3 33 -19 33 q-3 0 -5 -1q-22 -6 -35 -36q-14 18 -39 18q-9 0 -19 -3q-38 -10 -69 -72q45 21 80 21q12 0 25.5 -5t19.5 -5q31 0 61 50zM409 449q-14 -2 -22 5q3 -6 3 -13q0 -18 -21 -34q-15 -12 -15 -29q0 -11 7 -22l9 -4l37 44zM563 336l-30 46l3 54l-52 -15l-51 20l-2 -54l-35 -42 l51 -19l30 -46l33 43zM579 411l-18 20l-2 -27zM630 500l-44 40q-19 0 -37 -6q-45 -13 -81 -48q-13 -13 -25 -21l42 -17l79 22l-2 -20l49 19zM711 443l-38 9l-25 30l-20 -33l-37 -15l26 -29l2 -39l36 15l38 -10l-3 39zM820 2q-31 -61 -72 -61q-12 0 -36 4q-3 1 -6 1 q-15 0 -41 -12q-36 -15 -57 -15q-36 0 -70 36q-48 51 -134 73q-61 11 -122 23q-40 9 -77.5 46.5t-37.5 63.5q0 5 2 8q-34 14 -61 33q-64 46 -84 115.5t-20 142.5q0 166 96 266q109 113 320 113q20 0 42 -1q134 -7 196 -71q50 -50 50 -129q0 -42 -14 -81q-11 -34 -25 -46 q10 -10 27 -39l55 -13l-36 -55l3 -31q73 -44 73 -78q0 -20 -30 -49q-29 -28 -29 -45q0 -16 47.5 -72.5t47.5 -94.5q0 -17 -7 -32z"/>
<glyph glyph-name="ellipsis" horiz-adv-x="786" unicode="…" d="M576 123q0 28 25 48t61 20t61.5 -20t25.5 -48t-25.5 -48t-61.5 -20t-61 20t-25 48zM296 109q0 37 34.5 64t83.5 27t84 -27t35 -64q0 -38 -35 -64.5t-84 -26.5t-83.5 26.5t-34.5 64.5zM17 113q0 41 33 69.5t80 28.5q48 0 81 -28.5t33 -69.5q0 -40 -33 -69t-81 -29 q-47 0 -80 29t-33 69z"/>
<glyph glyph-name="perthousand" horiz-adv-x="798" unicode="‰" d="M406 220q-23 0 -49 -7q-45 -13 -71 -41q-23 -24 -23 -49q0 -26 31 -41q24 -12 53 -12q24 0 49 7q45 13 72 41q23 25 23 49q0 26 -31 41q-25 12 -54 12zM648 108q-23 0 -48 -8q-46 -13 -72 -41q-23 -24 -23 -48q0 -27 31 -42q25 -12 54 -12q23 0 48 8q46 13 72 41 q23 24 23 49q0 26 -31 41q-25 12 -54 12zM343 9q-63 0 -103 36q-36 33 -36 82q0 45 34.5 84.5t102.5 59.5q36 10 70 10q63 0 101 -34.5t38 -83.5q0 -9 -2 -17q53 23 105 23q63 0 101 -35t38 -83q0 -45 -33 -83q-37 -42 -104 -61q-37 -10 -70 -10q-63 0 -101 34.5t-38 83.5 q0 8 1 17q-52 -23 -104 -23zM605 809l-52 -63l-32 15l-449 -805l43 -18l-28 -39l-178 37l31 75l39 -16l451 808l-38 17l32 25zM200 750q-23 0 -49 -8q-45 -13 -71 -41q-23 -24 -23 -49q0 -26 31 -41q24 -12 53 -12q24 0 49 8q45 13 72 41q22 24 22 49q0 26 -30 41 q-25 12 -54 12zM207 549q-37 -11 -70 -11q-64 0 -101.5 35t-37.5 83q0 46 33 83q36 42 104 61q36 10 69 10q64 0 102 -34.5t38 -82.5q0 -46 -33 -83q-37 -42 -104 -61z"/>
<glyph glyph-name="guilsinglleft" horiz-adv-x="375" unicode="‹" d="M352 195l-45 -108l-36 9l9 27l-278 176l266 233l-22 29l72 36l55 -130l-29 -35l-16 21l-189 -161l162 -103l9 27z"/>
<glyph glyph-name="guilsinglright" horiz-adv-x="375" unicode="›" d="M23 195l43 21l8 -27l163 103l-189 161l-16 -21l-30 35l56 130l72 -36l-22 -29l265 -233l-277 -176l9 -27l-36 -9z"/>
<glyph glyph-name="fraction" horiz-adv-x="532" unicode="⁄" d="M115 -62l-28 -39l-178 37l31 75l39 -16l451 808l-38 17l32 25l181 -36l-52 -63l-32 15l-449 -805z"/>
<glyph glyph-name="trademark" horiz-adv-x="446" unicode="™" d="M194 550l-7 -2v-9v-9q0 -43 -18 -68q-18 -24 -46 -24q-33 0 -57 29q-28 32 -28 82l-2 135l-33 -1l-1 40l33 1v36h-12l-1 23l64 11l1 -34h-12v-35l60 1v-40l-59 -1l2 -136q0 -31 13.5 -50.5t29.5 -19.5q27 0 27 44q0 7 -1 16l-8 -2l-8 29l63 4l-1 113l-10 -1l-5 31l69 -1 l-8 -25l-6 -1v-8q21 25 52 25h2q25 0 39 -32q20 29 50 29q33 0 49 -45q10 -28 10 -65v-7l-1 -119l9 1l6 -21l-66 -7l-3 24l14 1l1 121q0 11 -4 44q-5 26 -15 33q-22 0 -36 -48q2 -16 2 -30l2 -92l9 -1l3 -26l-70 4l9 29l9 -1l-2 86q0 12 -5 48q-6 26 -13 34q-19 -1 -34 -31 q-12 -24 -16 -52l1 -96h15l2 -26l-69 -14v40h12z"/>
<glyph glyph-name="partialdiff" horiz-adv-x="1438" unicode="∂" d="M401 279q0 -17 -30 -17t-30 17t30 17t30 -17zM717 291q0 -16 -20 -26q-16 -7 -34 -7t-34 7q-20 10 -20 26t20 26q16 7 34 7t34 -7q20 -10 20 -26zM1156 167q0 -18 -34 -28q-25 -8 -47 -8q-23 0 -48 8q-34 10 -34 28t34 29q24 7 48 7q23 0 47 -7q34 -11 34 -29zM1102 276 q-15 -10 -38 -10t-44 11q-23 13 -23 32v3q2 16 21 25q16 8 34 8q22 0 43 -11q23 -13 23 -32q0 -15 -16 -26zM1296 333q0 -32 -48 -46q-13 -4 -26 -4q-43 0 -43 27q0 33 49 47q13 4 25 4q43 0 43 -28zM309 203l-5 16h-7l1 91v6q0 27 -8 50q-12 34 -37 34q-24 0 -40 -22 q-11 25 -30 25h-1q-24 0 -40 -19v6l4 1l6 19l-53 1l4 -24h8l2 -153h-10v-31l53 11l-1 20h-12l-1 74q10 62 39 65q13 -16 14 -64l2 -67l-7 1l-8 -23l54 -3l-2 21l-6 1l-2 71q0 13 -1 23q10 36 28 36q7 -5 11 -24q3 -18 3 -30v-5l-1 -93l-11 -1l2 -19zM447 206l-1 30h-13 l-3 114q-1 26 -16 47.5t-40 21.5q-38 0 -50 -50l-11 3l-6 -30l56 2l3 17l-12 2q6 25 22 25q18 0 23 -33q0 -3 1 -7v-27q-13 6 -28 6q-22 0 -39 -13.5t-17 -34.5t17 -34t39 -13q16 0 30 7v-6h-4v-23zM585 204l-5 24h-9l1 117v7q0 74 -43 74q-24 0 -41 -18v7h6l2 21h-51l3 -24 h9l1 -173h-7l-3 -21l50 -4l-2 25h-7l-1 102q10 54 41 54q13 -9 13 -49l-2 -119h-6v-31zM768 247l-19 -4l-2 227h11l8 17l-60 13l-1 -28h11l1 -134q-23 17 -54 17t-53 -16q-26 -19 -26 -48q0 -30 26 -48q23 -16 53 -16q32 0 55 18v-9l-9 -3l2 -14h52zM831 215l-2 22h-12 l-2 165l-40 -4l-5 -20l14 4l2 -144h-10l1 -24zM968 204l-5 24h-9l1 117v7q0 74 -43 74q-24 0 -41 -18v7h6l2 21h-47q1 2 1 4q0 18 -27 26q-6 1 -13 1q-25 0 -25 -17q0 -18 27 -26q6 -2 12 -2q14 0 22 8l2 -18h9l1 -173h-7l-3 -21l50 -4l-2 25h-7l-1 102q10 54 41 54 q12 -8 12 -43v-6l-1 -119h-7l1 -31zM1177 167q0 33 -37 52q-29 15 -66 15q-36 0 -64 -14q-3 3 -3 6q0 8 12 17q13 -5 30 -7q8 -1 15 -1q29 0 51 13q32 18 32 54q0 27 -20 46q8 12 8 25q0 21 -20 32l7 10l-13 9l-36 -22l23 -28l3 4q5 -2 5 -6q0 -3 -2 -7q-24 11 -53 11 q-33 0 -56 -17q-26 -19 -26 -50q0 -30 25 -51q-8 -11 -8 -23q0 -14 9 -26q-22 -17 -22 -42q0 -33 37 -52q30 -15 66 -15t66 15q37 19 37 52zM1327 331q0 28 -23 46q-20 15 -49 15q-57 0 -89 -37q-17 -19 -17 -42q0 -29 21 -45t50 -16q58 0 90 36q17 20 17 43zM1427 331 q0 -61 -41 -107.5t-109 -64.5q-4 -74 -68 -119q-58 -40 -135 -40q-58 0 -109 25q-54 28 -78 75q-17 5 -30 16h-10q-7 -1 -14 -1l-54 -1q-18 0 -34 5h-34q-16 0 -34 8h-13.5h-15.5q-23 -18 -48 -22l-51 -8q-9 -1 -17 -1q-28 0 -51 15q-16 -5 -34 -5h-10q-20 2 -40.5 4 t-35.5 9q-22 -13 -41 -15l-52 -6q-5 -1 -11 -1q-33 0 -59 22l-8 1q-6 -2 -13 -4l-53 -11q-13 -3 -25 -3q-42 0 -69 28t-27 73v31q0 41 32 71q-20 17 -24 72q-17 21 -17 44q0 35 34 63q33 27 70 27h3h46q30 -2 47 -8q15 -1 29 -6q14 3 30 3q21 0 41 -6q36 25 80 25h15 q27 17 55 17q77 0 99 -11q35 -4 62 -22q5 41 30.5 69.5t66.5 28.5q12 0 26 -3l60 -13q32 -8 52 -25q24 -8 44 -24q23 -1 42 -11q52 -5 85 -43q6 4 11 7l36 21q16 9 42 9q46 0 77 -21q10 -6 17 -14q30 8 61 8q71 0 121.5 -45.5t50.5 -115.5z"/>
<glyph glyph-name="product" horiz-adv-x="1438" unicode="∏" d="M401 279q0 -17 -30 -17t-30 17t30 17t30 -17zM717 291q0 -16 -20 -26q-16 -7 -34 -7t-34 7q-20 10 -20 26t20 26q16 7 34 7t34 -7q20 -10 20 -26zM1156 167q0 -18 -34 -28q-25 -8 -47 -8q-23 0 -48 8q-34 10 -34 28t34 29q24 7 48 7q23 0 47 -7q34 -11 34 -29zM1102 276 q-15 -10 -38 -10t-44 11q-23 13 -23 32v3q2 16 21 25q16 8 34 8q22 0 43 -11q23 -13 23 -32q0 -15 -16 -26zM1296 333q0 -32 -48 -46q-13 -4 -26 -4q-43 0 -43 27q0 33 49 47q13 4 25 4q43 0 43 -28zM309 203l-5 16h-7l1 91v6q0 27 -8 50q-12 34 -37 34q-24 0 -40 -22 q-11 25 -30 25h-1q-24 0 -40 -19v6l4 1l6 19l-53 1l4 -24h8l2 -153h-10v-31l53 11l-1 20h-12l-1 74q10 62 39 65q13 -16 14 -64l2 -67l-7 1l-8 -23l54 -3l-2 21l-6 1l-2 71q0 13 -1 23q10 36 28 36q7 -5 11 -24q3 -18 3 -30v-5l-1 -93l-11 -1l2 -19zM447 206l-1 30h-13 l-3 114q-1 26 -16 47.5t-40 21.5q-38 0 -50 -50l-11 3l-6 -30l56 2l3 17l-12 2q6 25 22 25q18 0 23 -33q0 -3 1 -7v-27q-13 6 -28 6q-22 0 -39 -13.5t-17 -34.5t17 -34t39 -13q16 0 30 7v-6h-4v-23zM585 204l-5 24h-9l1 117v7q0 74 -43 74q-24 0 -41 -18v7h6l2 21h-51l3 -24 h9l1 -173h-7l-3 -21l50 -4l-2 25h-7l-1 102q10 54 41 54q13 -9 13 -49l-2 -119h-6v-31zM768 247l-19 -4l-2 227h11l8 17l-60 13l-1 -28h11l1 -134q-23 17 -54 17t-53 -16q-26 -19 -26 -48q0 -30 26 -48q23 -16 53 -16q32 0 55 18v-9l-9 -3l2 -14h52zM831 215l-2 22h-12 l-2 165l-40 -4l-5 -20l14 4l2 -144h-10l1 -24zM968 204l-5 24h-9l1 117v7q0 74 -43 74q-24 0 -41 -18v7h6l2 21h-47q1 2 1 4q0 18 -27 26q-6 1 -13 1q-25 0 -25 -17q0 -18 27 -26q6 -2 12 -2q14 0 22 8l2 -18h9l1 -173h-7l-3 -21l50 -4l-2 25h-7l-1 102q10 54 41 54 q12 -8 12 -43v-6l-1 -119h-7l1 -31zM1177 167q0 33 -37 52q-29 15 -66 15q-36 0 -64 -14q-3 3 -3 6q0 8 12 17q13 -5 30 -7q8 -1 15 -1q29 0 51 13q32 18 32 54q0 27 -20 46q8 12 8 25q0 21 -20 32l7 10l-13 9l-36 -22l23 -28l3 4q5 -2 5 -6q0 -3 -2 -7q-24 11 -53 11 q-33 0 -56 -17q-26 -19 -26 -50q0 -30 25 -51q-8 -11 -8 -23q0 -14 9 -26q-22 -17 -22 -42q0 -33 37 -52q30 -15 66 -15t66 15q37 19 37 52zM1327 331q0 28 -23 46q-20 15 -49 15q-57 0 -89 -37q-17 -19 -17 -42q0 -29 21 -45t50 -16q58 0 90 36q17 20 17 43zM1427 331 q0 -61 -41 -107.5t-109 -64.5q-4 -74 -68 -119q-58 -40 -135 -40q-58 0 -109 25q-54 28 -78 75q-17 5 -30 16h-10q-7 -1 -14 -1l-54 -1q-18 0 -34 5h-34q-16 0 -34 8h-13.5h-15.5q-23 -18 -48 -22l-51 -8q-9 -1 -17 -1q-28 0 -51 15q-16 -5 -34 -5h-10q-20 2 -40.5 4 t-35.5 9q-22 -13 -41 -15l-52 -6q-5 -1 -11 -1q-33 0 -59 22l-8 1q-6 -2 -13 -4l-53 -11q-13 -3 -25 -3q-42 0 -69 28t-27 73v31q0 41 32 71q-20 17 -24 72q-17 21 -17 44q0 35 34 63q33 27 70 27h3h46q30 -2 47 -8q15 -1 29 -6q14 3 30 3q21 0 41 -6q36 25 80 25h15 q27 17 55 17q77 0 99 -11q35 -4 62 -22q5 41 30.5 69.5t66.5 28.5q12 0 26 -3l60 -13q32 -8 52 -25q24 -8 44 -24q23 -1 42 -11q52 -5 85 -43q6 4 11 7l36 21q16 9 42 9q46 0 77 -21q10 -6 17 -14q30 8 61 8q71 0 121.5 -45.5t50.5 -115.5z"/>
<glyph glyph-name="summation" horiz-adv-x="840" unicode="∑" d="M255 319q-4 0 -13 10.5t-14 10.5q-7 0 -7 -24q0 -10 1 -24l-8 -10q-16 21 -16 48q0 9 2 17q5 24 26 24q10 0 21 -5q26 -16 26 -29q0 -6 -6 -12t-12 -6zM744 273l-1 -12l-25 -17l1 32q1 13 -24 22q2 -17 -16 -21q-7 -1 -18 0q-22 -31 -56 -31q-9 0 -29 4q-8 1 -18 -10.5 t-17 -11.5q-10 0 -23.5 15t-13.5 30q0 20 20 39l-9 -1l-35 -63q-7 -34 -32 -47q-14 -6 -14 -38q0 -44 19 -60l10 -8l-26 -1l-15 14q-21 19 -21 49q0 49 35 67q15 7 28 29l-33 53l-15 5q-8 -9 -19 -3q-11 5 -16 16l-14 5l-54 12q-26 62 -69 62q-4 0 -9 -1q-62 -9 -62 -49 q0 -8 2 -17q6 -27 11 -54q11 -32 39 -32q8 0 22.5 4t21.5 4q13 0 13 -10q0 -12 -20 -37q-23 -35 -23 -65q0 -42 46 -57q80 -24 159 -48q98 -33 122 -72q16 -25 41 -25q20 0 51 17t36 17q1 -1 17.5 -4t27.5 -3q50 0 50 55q0 72 -42 81q2 -6 2 -13q0 -33 -47 -42 q-31 -7 -71 -7q-124 0 -145 54q-5 12 -5 24q0 34 32 66q28 28 57 32q12 2 22 2q19 0 26 -7q30 24 48 24q19 0 46 -22q4 8 9 15q12 16 27 20.5t15 23.5q0 32 -35 52l-22 13q-26 12 -40 12q-13 0 -33 -7l-27 15l-13 18l-27 -3l7 -38l-22 -24v-1q1 -4 -15 -18q-14 -13 -14 -27 q0 -17 8 -17q7 0 23 17t23 17q3 0 16 -8t25 -6q34 4 37 35q1 4 -8 9t-9 8q0 10 22 10q21 0 31 -21l2 -1q55 -4 52 -39zM723 96q11 11 11 22q0 20 -32 36q-36 -38 -61 -38q-4 0 -8 1q-21 9 -46 9q-36 0 -72 -16l30 -16q43 -24 96 -24q56 0 82 26zM692 183q-3 33 -19 33 q-3 0 -5 -1q-22 -6 -35 -36q-14 18 -39 18q-9 0 -19 -3q-38 -10 -69 -72q45 21 80 21q12 0 25.5 -5t19.5 -5q31 0 61 50zM409 449q-14 -2 -22 5q3 -6 3 -13q0 -18 -21 -34q-15 -12 -15 -29q0 -11 7 -22l9 -4l37 44zM563 336l-30 46l3 54l-52 -15l-51 20l-2 -54l-35 -42 l51 -19l30 -46l33 43zM579 411l-18 20l-2 -27zM630 500l-44 40q-19 0 -37 -6q-45 -13 -81 -48q-13 -13 -25 -21l42 -17l79 22l-2 -20l49 19zM711 443l-38 9l-25 30l-20 -33l-37 -15l26 -29l2 -39l36 15l38 -10l-3 39zM820 2q-31 -61 -72 -61q-12 0 -36 4q-3 1 -6 1 q-15 0 -41 -12q-36 -15 -57 -15q-36 0 -70 36q-48 51 -134 73q-61 11 -122 23q-40 9 -77.5 46.5t-37.5 63.5q0 5 2 8q-34 14 -61 33q-64 46 -84 115.5t-20 142.5q0 166 96 266q109 113 320 113q20 0 42 -1q134 -7 196 -71q50 -50 50 -129q0 -42 -14 -81q-11 -34 -25 -46 q10 -10 27 -39l55 -13l-36 -55l3 -31q73 -44 73 -78q0 -20 -30 -49q-29 -28 -29 -45q0 -16 47.5 -72.5t47.5 -94.5q0 -17 -7 -32z"/>
<glyph glyph-name="radical" horiz-adv-x="840" unicode="√" d="M255 319q-4 0 -13 10.5t-14 10.5q-7 0 -7 -24q0 -10 1 -24l-8 -10q-16 21 -16 48q0 9 2 17q5 24 26 24q10 0 21 -5q26 -16 26 -29q0 -6 -6 -12t-12 -6zM744 273l-1 -12l-25 -17l1 32q1 13 -24 22q2 -17 -16 -21q-7 -1 -18 0q-22 -31 -56 -31q-9 0 -29 4q-8 1 -18 -10.5 t-17 -11.5q-10 0 -23.5 15t-13.5 30q0 20 20 39l-9 -1l-35 -63q-7 -34 -32 -47q-14 -6 -14 -38q0 -44 19 -60l10 -8l-26 -1l-15 14q-21 19 -21 49q0 49 35 67q15 7 28 29l-33 53l-15 5q-8 -9 -19 -3q-11 5 -16 16l-14 5l-54 12q-26 62 -69 62q-4 0 -9 -1q-62 -9 -62 -49 q0 -8 2 -17q6 -27 11 -54q11 -32 39 -32q8 0 22.5 4t21.5 4q13 0 13 -10q0 -12 -20 -37q-23 -35 -23 -65q0 -42 46 -57q80 -24 159 -48q98 -33 122 -72q16 -25 41 -25q20 0 51 17t36 17q1 -1 17.5 -4t27.5 -3q50 0 50 55q0 72 -42 81q2 -6 2 -13q0 -33 -47 -42 q-31 -7 -71 -7q-124 0 -145 54q-5 12 -5 24q0 34 32 66q28 28 57 32q12 2 22 2q19 0 26 -7q30 24 48 24q19 0 46 -22q4 8 9 15q12 16 27 20.5t15 23.5q0 32 -35 52l-22 13q-26 12 -40 12q-13 0 -33 -7l-27 15l-13 18l-27 -3l7 -38l-22 -24v-1q1 -4 -15 -18q-14 -13 -14 -27 q0 -17 8 -17q7 0 23 17t23 17q3 0 16 -8t25 -6q34 4 37 35q1 4 -8 9t-9 8q0 10 22 10q21 0 31 -21l2 -1q55 -4 52 -39zM723 96q11 11 11 22q0 20 -32 36q-36 -38 -61 -38q-4 0 -8 1q-21 9 -46 9q-36 0 -72 -16l30 -16q43 -24 96 -24q56 0 82 26zM692 183q-3 33 -19 33 q-3 0 -5 -1q-22 -6 -35 -36q-14 18 -39 18q-9 0 -19 -3q-38 -10 -69 -72q45 21 80 21q12 0 25.5 -5t19.5 -5q31 0 61 50zM409 449q-14 -2 -22 5q3 -6 3 -13q0 -18 -21 -34q-15 -12 -15 -29q0 -11 7 -22l9 -4l37 44zM563 336l-30 46l3 54l-52 -15l-51 20l-2 -54l-35 -42 l51 -19l30 -46l33 43zM579 411l-18 20l-2 -27zM630 500l-44 40q-19 0 -37 -6q-45 -13 -81 -48q-13 -13 -25 -21l42 -17l79 22l-2 -20l49 19zM711 443l-38 9l-25 30l-20 -33l-37 -15l26 -29l2 -39l36 15l38 -10l-3 39zM820 2q-31 -61 -72 -61q-12 0 -36 4q-3 1 -6 1 q-15 0 -41 -12q-36 -15 -57 -15q-36 0 -70 36q-48 51 -134 73q-61 11 -122 23q-40 9 -77.5 46.5t-37.5 63.5q0 5 2 8q-34 14 -61 33q-64 46 -84 115.5t-20 142.5q0 166 96 266q109 113 320 113q20 0 42 -1q134 -7 196 -71q50 -50 50 -129q0 -42 -14 -81q-11 -34 -25 -46 q10 -10 27 -39l55 -13l-36 -55l3 -31q73 -44 73 -78q0 -20 -30 -49q-29 -28 -29 -45q0 -16 47.5 -72.5t47.5 -94.5q0 -17 -7 -32z"/>
<glyph glyph-name="infinity" horiz-adv-x="840" unicode="∞" d="M255 319q-4 0 -13 10.5t-14 10.5q-7 0 -7 -24q0 -10 1 -24l-8 -10q-16 21 -16 48q0 9 2 17q5 24 26 24q10 0 21 -5q26 -16 26 -29q0 -6 -6 -12t-12 -6zM744 273l-1 -12l-25 -17l1 32q1 13 -24 22q2 -17 -16 -21q-7 -1 -18 0q-22 -31 -56 -31q-9 0 -29 4q-8 1 -18 -10.5 t-17 -11.5q-10 0 -23.5 15t-13.5 30q0 20 20 39l-9 -1l-35 -63q-7 -34 -32 -47q-14 -6 -14 -38q0 -44 19 -60l10 -8l-26 -1l-15 14q-21 19 -21 49q0 49 35 67q15 7 28 29l-33 53l-15 5q-8 -9 -19 -3q-11 5 -16 16l-14 5l-54 12q-26 62 -69 62q-4 0 -9 -1q-62 -9 -62 -49 q0 -8 2 -17q6 -27 11 -54q11 -32 39 -32q8 0 22.5 4t21.5 4q13 0 13 -10q0 -12 -20 -37q-23 -35 -23 -65q0 -42 46 -57q80 -24 159 -48q98 -33 122 -72q16 -25 41 -25q20 0 51 17t36 17q1 -1 17.5 -4t27.5 -3q50 0 50 55q0 72 -42 81q2 -6 2 -13q0 -33 -47 -42 q-31 -7 -71 -7q-124 0 -145 54q-5 12 -5 24q0 34 32 66q28 28 57 32q12 2 22 2q19 0 26 -7q30 24 48 24q19 0 46 -22q4 8 9 15q12 16 27 20.5t15 23.5q0 32 -35 52l-22 13q-26 12 -40 12q-13 0 -33 -7l-27 15l-13 18l-27 -3l7 -38l-22 -24v-1q1 -4 -15 -18q-14 -13 -14 -27 q0 -17 8 -17q7 0 23 17t23 17q3 0 16 -8t25 -6q34 4 37 35q1 4 -8 9t-9 8q0 10 22 10q21 0 31 -21l2 -1q55 -4 52 -39zM723 96q11 11 11 22q0 20 -32 36q-36 -38 -61 -38q-4 0 -8 1q-21 9 -46 9q-36 0 -72 -16l30 -16q43 -24 96 -24q56 0 82 26zM692 183q-3 33 -19 33 q-3 0 -5 -1q-22 -6 -35 -36q-14 18 -39 18q-9 0 -19 -3q-38 -10 -69 -72q45 21 80 21q12 0 25.5 -5t19.5 -5q31 0 61 50zM409 449q-14 -2 -22 5q3 -6 3 -13q0 -18 -21 -34q-15 -12 -15 -29q0 -11 7 -22l9 -4l37 44zM563 336l-30 46l3 54l-52 -15l-51 20l-2 -54l-35 -42 l51 -19l30 -46l33 43zM579 411l-18 20l-2 -27zM630 500l-44 40q-19 0 -37 -6q-45 -13 -81 -48q-13 -13 -25 -21l42 -17l79 22l-2 -20l49 19zM711 443l-38 9l-25 30l-20 -33l-37 -15l26 -29l2 -39l36 15l38 -10l-3 39zM820 2q-31 -61 -72 -61q-12 0 -36 4q-3 1 -6 1 q-15 0 -41 -12q-36 -15 -57 -15q-36 0 -70 36q-48 51 -134 73q-61 11 -122 23q-40 9 -77.5 46.5t-37.5 63.5q0 5 2 8q-34 14 -61 33q-64 46 -84 115.5t-20 142.5q0 166 96 266q109 113 320 113q20 0 42 -1q134 -7 196 -71q50 -50 50 -129q0 -42 -14 -81q-11 -34 -25 -46 q10 -10 27 -39l55 -13l-36 -55l3 -31q73 -44 73 -78q0 -20 -30 -49q-29 -28 -29 -45q0 -16 47.5 -72.5t47.5 -94.5q0 -17 -7 -32z"/>
<glyph glyph-name="approxequal" horiz-adv-x="1438" unicode="≈" d="M401 279q0 -17 -30 -17t-30 17t30 17t30 -17zM717 291q0 -16 -20 -26q-16 -7 -34 -7t-34 7q-20 10 -20 26t20 26q16 7 34 7t34 -7q20 -10 20 -26zM1156 167q0 -18 -34 -28q-25 -8 -47 -8q-23 0 -48 8q-34 10 -34 28t34 29q24 7 48 7q23 0 47 -7q34 -11 34 -29zM1102 276 q-15 -10 -38 -10t-44 11q-23 13 -23 32v3q2 16 21 25q16 8 34 8q22 0 43 -11q23 -13 23 -32q0 -15 -16 -26zM1296 333q0 -32 -48 -46q-13 -4 -26 -4q-43 0 -43 27q0 33 49 47q13 4 25 4q43 0 43 -28zM309 203l-5 16h-7l1 91v6q0 27 -8 50q-12 34 -37 34q-24 0 -40 -22 q-11 25 -30 25h-1q-24 0 -40 -19v6l4 1l6 19l-53 1l4 -24h8l2 -153h-10v-31l53 11l-1 20h-12l-1 74q10 62 39 65q13 -16 14 -64l2 -67l-7 1l-8 -23l54 -3l-2 21l-6 1l-2 71q0 13 -1 23q10 36 28 36q7 -5 11 -24q3 -18 3 -30v-5l-1 -93l-11 -1l2 -19zM447 206l-1 30h-13 l-3 114q-1 26 -16 47.5t-40 21.5q-38 0 -50 -50l-11 3l-6 -30l56 2l3 17l-12 2q6 25 22 25q18 0 23 -33q0 -3 1 -7v-27q-13 6 -28 6q-22 0 -39 -13.5t-17 -34.5t17 -34t39 -13q16 0 30 7v-6h-4v-23zM585 204l-5 24h-9l1 117v7q0 74 -43 74q-24 0 -41 -18v7h6l2 21h-51l3 -24 h9l1 -173h-7l-3 -21l50 -4l-2 25h-7l-1 102q10 54 41 54q13 -9 13 -49l-2 -119h-6v-31zM768 247l-19 -4l-2 227h11l8 17l-60 13l-1 -28h11l1 -134q-23 17 -54 17t-53 -16q-26 -19 -26 -48q0 -30 26 -48q23 -16 53 -16q32 0 55 18v-9l-9 -3l2 -14h52zM831 215l-2 22h-12 l-2 165l-40 -4l-5 -20l14 4l2 -144h-10l1 -24zM968 204l-5 24h-9l1 117v7q0 74 -43 74q-24 0 -41 -18v7h6l2 21h-47q1 2 1 4q0 18 -27 26q-6 1 -13 1q-25 0 -25 -17q0 -18 27 -26q6 -2 12 -2q14 0 22 8l2 -18h9l1 -173h-7l-3 -21l50 -4l-2 25h-7l-1 102q10 54 41 54 q12 -8 12 -43v-6l-1 -119h-7l1 -31zM1177 167q0 33 -37 52q-29 15 -66 15q-36 0 -64 -14q-3 3 -3 6q0 8 12 17q13 -5 30 -7q8 -1 15 -1q29 0 51 13q32 18 32 54q0 27 -20 46q8 12 8 25q0 21 -20 32l7 10l-13 9l-36 -22l23 -28l3 4q5 -2 5 -6q0 -3 -2 -7q-24 11 -53 11 q-33 0 -56 -17q-26 -19 -26 -50q0 -30 25 -51q-8 -11 -8 -23q0 -14 9 -26q-22 -17 -22 -42q0 -33 37 -52q30 -15 66 -15t66 15q37 19 37 52zM1327 331q0 28 -23 46q-20 15 -49 15q-57 0 -89 -37q-17 -19 -17 -42q0 -29 21 -45t50 -16q58 0 90 36q17 20 17 43zM1427 331 q0 -61 -41 -107.5t-109 -64.5q-4 -74 -68 -119q-58 -40 -135 -40q-58 0 -109 25q-54 28 -78 75q-17 5 -30 16h-10q-7 -1 -14 -1l-54 -1q-18 0 -34 5h-34q-16 0 -34 8h-13.5h-15.5q-23 -18 -48 -22l-51 -8q-9 -1 -17 -1q-28 0 -51 15q-16 -5 -34 -5h-10q-20 2 -40.5 4 t-35.5 9q-22 -13 -41 -15l-52 -6q-5 -1 -11 -1q-33 0 -59 22l-8 1q-6 -2 -13 -4l-53 -11q-13 -3 -25 -3q-42 0 -69 28t-27 73v31q0 41 32 71q-20 17 -24 72q-17 21 -17 44q0 35 34 63q33 27 70 27h3h46q30 -2 47 -8q15 -1 29 -6q14 3 30 3q21 0 41 -6q36 25 80 25h15 q27 17 55 17q77 0 99 -11q35 -4 62 -22q5 41 30.5 69.5t66.5 28.5q12 0 26 -3l60 -13q32 -8 52 -25q24 -8 44 -24q23 -1 42 -11q52 -5 85 -43q6 4 11 7l36 21q16 9 42 9q46 0 77 -21q10 -6 17 -14q30 8 61 8q71 0 121.5 -45.5t50.5 -115.5z"/>
<glyph glyph-name="approxequal" horiz-adv-x="1438" unicode="⋲" d="M401 279q0 -17 -30 -17t-30 17t30 17t30 -17zM717 291q0 -16 -20 -26q-16 -7 -34 -7t-34 7q-20 10 -20 26t20 26q16 7 34 7t34 -7q20 -10 20 -26zM1156 167q0 -18 -34 -28q-25 -8 -47 -8q-23 0 -48 8q-34 10 -34 28t34 29q24 7 48 7q23 0 47 -7q34 -11 34 -29zM1102 276 q-15 -10 -38 -10t-44 11q-23 13 -23 32v3q2 16 21 25q16 8 34 8q22 0 43 -11q23 -13 23 -32q0 -15 -16 -26zM1296 333q0 -32 -48 -46q-13 -4 -26 -4q-43 0 -43 27q0 33 49 47q13 4 25 4q43 0 43 -28zM309 203l-5 16h-7l1 91v6q0 27 -8 50q-12 34 -37 34q-24 0 -40 -22 q-11 25 -30 25h-1q-24 0 -40 -19v6l4 1l6 19l-53 1l4 -24h8l2 -153h-10v-31l53 11l-1 20h-12l-1 74q10 62 39 65q13 -16 14 -64l2 -67l-7 1l-8 -23l54 -3l-2 21l-6 1l-2 71q0 13 -1 23q10 36 28 36q7 -5 11 -24q3 -18 3 -30v-5l-1 -93l-11 -1l2 -19zM447 206l-1 30h-13 l-3 114q-1 26 -16 47.5t-40 21.5q-38 0 -50 -50l-11 3l-6 -30l56 2l3 17l-12 2q6 25 22 25q18 0 23 -33q0 -3 1 -7v-27q-13 6 -28 6q-22 0 -39 -13.5t-17 -34.5t17 -34t39 -13q16 0 30 7v-6h-4v-23zM585 204l-5 24h-9l1 117v7q0 74 -43 74q-24 0 -41 -18v7h6l2 21h-51l3 -24 h9l1 -173h-7l-3 -21l50 -4l-2 25h-7l-1 102q10 54 41 54q13 -9 13 -49l-2 -119h-6v-31zM768 247l-19 -4l-2 227h11l8 17l-60 13l-1 -28h11l1 -134q-23 17 -54 17t-53 -16q-26 -19 -26 -48q0 -30 26 -48q23 -16 53 -16q32 0 55 18v-9l-9 -3l2 -14h52zM831 215l-2 22h-12 l-2 165l-40 -4l-5 -20l14 4l2 -144h-10l1 -24zM968 204l-5 24h-9l1 117v7q0 74 -43 74q-24 0 -41 -18v7h6l2 21h-47q1 2 1 4q0 18 -27 26q-6 1 -13 1q-25 0 -25 -17q0 -18 27 -26q6 -2 12 -2q14 0 22 8l2 -18h9l1 -173h-7l-3 -21l50 -4l-2 25h-7l-1 102q10 54 41 54 q12 -8 12 -43v-6l-1 -119h-7l1 -31zM1177 167q0 33 -37 52q-29 15 -66 15q-36 0 -64 -14q-3 3 -3 6q0 8 12 17q13 -5 30 -7q8 -1 15 -1q29 0 51 13q32 18 32 54q0 27 -20 46q8 12 8 25q0 21 -20 32l7 10l-13 9l-36 -22l23 -28l3 4q5 -2 5 -6q0 -3 -2 -7q-24 11 -53 11 q-33 0 -56 -17q-26 -19 -26 -50q0 -30 25 -51q-8 -11 -8 -23q0 -14 9 -26q-22 -17 -22 -42q0 -33 37 -52q30 -15 66 -15t66 15q37 19 37 52zM1327 331q0 28 -23 46q-20 15 -49 15q-57 0 -89 -37q-17 -19 -17 -42q0 -29 21 -45t50 -16q58 0 90 36q17 20 17 43zM1427 331 q0 -61 -41 -107.5t-109 -64.5q-4 -74 -68 -119q-58 -40 -135 -40q-58 0 -109 25q-54 28 -78 75q-17 5 -30 16h-10q-7 -1 -14 -1l-54 -1q-18 0 -34 5h-34q-16 0 -34 8h-13.5h-15.5q-23 -18 -48 -22l-51 -8q-9 -1 -17 -1q-28 0 -51 15q-16 -5 -34 -5h-10q-20 2 -40.5 4 t-35.5 9q-22 -13 -41 -15l-52 -6q-5 -1 -11 -1q-33 0 -59 22l-8 1q-6 -2 -13 -4l-53 -11q-13 -3 -25 -3q-42 0 -69 28t-27 73v31q0 41 32 71q-20 17 -24 72q-17 21 -17 44q0 35 34 63q33 27 70 27h3h46q30 -2 47 -8q15 -1 29 -6q14 3 30 3q21 0 41 -6q36 25 80 25h15 q27 17 55 17q77 0 99 -11q35 -4 62 -22q5 41 30.5 69.5t66.5 28.5q12 0 26 -3l60 -13q32 -8 52 -25q24 -8 44 -24q23 -1 42 -11q52 -5 85 -43q6 4 11 7l36 21q16 9 42 9q46 0 77 -21q10 -6 17 -14q30 8 61 8q71 0 121.5 -45.5t50.5 -115.5z"/>
<glyph glyph-name="notequal" horiz-adv-x="360" unicode="≠" d="M126 595h69v-170l136 2l31 -66l-167 -8v-33l165 1l-18 -84l-147 11v-175h-69v180l-126 10l19 55l107 1v31l-126 -6v78l126 2v171z"/>
<glyph glyph-name="lessequal" horiz-adv-x="375" unicode="≤" d="M352 195l-45 -108l-36 9l9 27l-278 176l266 233l-22 29l72 36l55 -130l-29 -35l-16 21l-189 -161l162 -103l9 27z"/>
<glyph glyph-name="greaterequal" horiz-adv-x="375" unicode="≥" d="M23 195l43 21l8 -27l163 103l-189 161l-16 -21l-30 35l56 130l72 -36l-22 -29l265 -233l-277 -176l9 -27l-36 -9z"/>
<glyph glyph-name="lozenge" horiz-adv-x="198" unicode="◊" d="M160 461q0 13 -14 21.5t-34 8.5q-21 0 -35 -8.5t-14 -21.5q0 -12 14 -20.5t35 -8.5q20 0 34 8.5t14 20.5zM198 448q-4 -21 -25.5 -34.5t-51.5 -13.5q-36 0 -67 21q-32 21 -32 49q0 5 1 9q4 21 25.5 34t51.5 13q36 0 67 -20q32 -21 32 -49q0 -4 -1 -9z"/>
</font>
</defs>
</svg>
